<svg xmlns="http://www.w3.org/2000/svg" width="175.796" height="105.204" viewBox="0 0 175.796 105.204">
  <g id="ペン付きのノートアイコン素材" transform="translate(0)">
    <path id="パス_14" data-name="パス 14" d="M327.591,231.23l-4.608-4.614c-2.774,1.668-8.911,4.415-8.911,4.415a4.391,4.391,0,0,0-2.65,3.294l-3.106,14.469-1.781,1.781a2.466,2.466,0,1,0,2.43,2.436l1.781-1.786,14.469-3.106a4.419,4.419,0,0,0,3.3-2.65s2.741-6.132,4.41-8.906l-4.608-4.608Zm-4.979,9.512a2.7,2.7,0,1,1,0-3.809A2.7,2.7,0,0,1,322.612,240.742Z" transform="translate(-199.643 -184.103)" fill="#ce8ee7"/>
    <path id="パス_15" data-name="パス 15" d="M380.426,209.257l-9.828-9.828-4.555,4.555a2.913,2.913,0,0,1-2.554.778l-1.33,1.33,4.662,4.662,1.116,1.116,5.826,5.826,1.33-1.33a2.913,2.913,0,0,1,.778-2.554Z" transform="translate(-237.812 -166.251)" fill="#ce8ee7"/>
    <path id="パス_16" data-name="パス 16" d="M169.949,186.473q-3.838-13.375-7.693-26.744-2.479-8.611-4.957-17.226c-2.629,2.21-5.14,4.329-6.931,5.9q4.595,18.106,9.19,36.207c1.11,4.372-1.8,8.262-6.6,6.77a76.517,76.517,0,0,0-25.011-5.992,65.988,65.988,0,0,0-28.471,5.193c-1,.413-7.731,5.252-7.993,1.819q-.226-12.039-.445-24.072-.459-24.866-.923-49.726c-.016-.955,2.275-1.432,2.752-1.61a59.607,59.607,0,0,1,11.636-3.042,69.416,69.416,0,0,1,28.551,1.631c3.294.837,6.77,1.883,8.986,4.249,1.4-1.668,2.79-3.321,4.131-4.893a24.452,24.452,0,0,0-5.1-3c-8-3.578-18.149-4.995-26.824-5.2a79.638,79.638,0,0,0-27.505,4.243c-1.706.59-4.5-.966-6.245-1.438-2.06-.558-4.142-1.025-6.234-1.416a84.036,84.036,0,0,0-14-1.4,89.19,89.19,0,0,0-26.722,4.158c-1.888.708-.542.215-.123.048-5.349,2.028-11.212,5.327-12.9,11.2-.419,1.47-.842,2.935-1.266,4.4q-3.2,11.129-6.405,22.264Q8.456,164.012,4.081,179.23c-1.7,5.907-5.07,13.493-3.809,19.705,1.545,7.688,9.061,11.228,16.331,9.742a54.358,54.358,0,0,0,7.339-2.575,93.563,93.563,0,0,1,12.484-3.573c10.22-2.119,20.6-1,30.633,1.593,2.242.58,10.644,2.028,10.891,4.539.225,2.334,2.913,1.7,4.6,1.7h5.038c1.545,0,4.126.531,5.585-.107s.338-2.242,1.717-2.843a59.584,59.584,0,0,1,5.788-2.1,92.318,92.318,0,0,1,14.018-3.176,64.686,64.686,0,0,1,29.469,2.661c5.7,1.8,11.229,5.118,17.42,4.008,8.434-1.491,11.883-10.113,9.673-17.806C170.862,189.482,170.39,187.98,169.949,186.473ZM81.463,138.308q-.5,26.725-.993,53.449c-.027,1.191-.349,1.937-1.679,1.9a63.2,63.2,0,0,0-24.061-7.811c-9.737-1.234-19.26.1-28.589,2.988-2.892.9-6.132,2.859-9.2,2.859-3.509,0-5.553-3.128-4.726-6.389q3.211-12.65,6.427-25.306,3.774-14.887,7.554-29.764.941-3.71,1.878-7.414c1.534-6.046,10.091-7.194,15.193-8.251a66.017,66.017,0,0,1,28.707.274c1.642.386,9.893,1.658,9.85,4.008Q81.637,128.579,81.463,138.308Z" transform="translate(0.004 -105.365)" fill="#ce8ee7"/>
    <path id="パス_17" data-name="パス 17" d="M401.68,144.1c3.5-3.5,21.98-18.337,27.14-23.5s5.579-10.118,1.036-14.657-9.5-4.136-14.662,1.03-20.005,23.642-23.5,27.14Zm4.6-18.1,15.558-15.553a.975.975,0,0,1,1.379,0l2.13,2.13a.975.975,0,0,1,0,1.379l-15.553,15.558a.968.968,0,0,1-1.373,0l-2.14-2.135A.984.984,0,0,1,406.278,126Z" transform="translate(-257.204 -102.797)" fill="#ce8ee7"/>
  </g>
</svg>
