<svg xmlns="http://www.w3.org/2000/svg" width="51.15" height="42" viewBox="0 0 51.15 42"><defs><style>.a{fill:#393723;}.b{fill:#e6e403;}.c{fill:#fff;font-size:17px;font-family:'\30 7TetsubinGothic';}</style></defs><g transform="translate(-241 -2511)"><g transform="translate(257.452 2450.99)"><path class="a" d="M34.664,86.191S33.039,83.8,32.753,83.38s-.86-2.394-1.815-2.914a22.153,22.153,0,0,0-2.306-.864.984.984,0,0,0-.943-.906.918.918,0,0,0-.715.358c-2.143-.7-4.412-1.389-4.826-1.5A33.035,33.035,0,0,0,16.892,76.2a80.012,80.012,0,0,1-8.026-.832c-1.529-.312-10.8,1.561-8.5,13.946,0,1.562.191,11.553.191,11.865v.312H5.236c.956,0,.574-.624.574-.624H7.624s.477-1.041,0-1.353A15.461,15.461,0,0,1,6,97.951a31.28,31.28,0,0,1,1.911-4.059,21.925,21.925,0,0,0,1.72-2.707h4.586s-.955,5.413-1.242,6.453-.382,3.123.1,3.643,2.866,0,3.726,0,.86-.832.383-1.353-.765-1.873.287-3.33c0,0,2.293,4.163,2.77,4.683a2.314,2.314,0,0,0,2.006.729h3.727c.765,0,1.338-1.249.478-1.665a19.176,19.176,0,0,1-2.58-1.873,49,49,0,0,1-1.815-5.517c0-.728.86-4.892.86-4.892s4.773-.595,5.255-.52c1.337.208,3.535-.416,5.159.208C34.245,88.1,34.855,86.918,34.664,86.191Z" transform="translate(0)"/></g><g transform="translate(-34 -0.318)"><path class="b" d="M12.255,3.116a2,2,0,0,1,3.49,0L26.333,22.023A2,2,0,0,1,24.588,25H3.412a2,2,0,0,1-1.745-2.977Z" transform="translate(275 2511.319)"/><text class="c" transform="translate(286 2533.319)"><tspan x="0" y="0">!</tspan></text></g></g></svg>