<svg xmlns="http://www.w3.org/2000/svg" width="111.986" height="89.502" viewBox="0 0 111.986 89.502"><defs><style>.a{fill:#fff;}.b{fill:#7b8395;}.c{fill:#e6e403;}</style></defs><g transform="translate(-692.775 -2746.498)"><circle class="a" cx="41.5" cy="41.5" r="41.5" transform="translate(718 2753)"/><g transform="translate(21.761 7.745)"><g transform="translate(732 2738.752)"><path class="b" d="M11.815,3H33.389A4.577,4.577,0,0,1,37.7,7.8V46.2A4.577,4.577,0,0,1,33.389,51H11.815A4.577,4.577,0,0,1,7.5,46.2V7.8A4.577,4.577,0,0,1,11.815,3Z" transform="translate(-7.5 -3)"/></g><g transform="translate(734.306 2742.202)"><path class="a" d="M11.156,3h18.28a3.482,3.482,0,0,1,3.656,3.278V32.5a3.482,3.482,0,0,1-3.656,3.278H11.156A3.482,3.482,0,0,1,7.5,32.5V6.278A3.482,3.482,0,0,1,11.156,3Z" transform="translate(-7.5 -3)"/></g><circle class="a" cx="2.652" cy="2.652" r="2.652" transform="translate(744.731 2779.328)"/></g><path class="c" d="M18.094,41.357a5.169,5.169,0,0,0,5.167-5.17H12.926A5.169,5.169,0,0,0,18.094,41.357Zm17.4-12.093c-1.561-1.677-4.481-4.2-4.481-12.463A12.756,12.756,0,0,0,20.677,4.268V2.585a2.583,2.583,0,1,0-5.166,0V4.268A12.756,12.756,0,0,0,5.176,16.8c0,8.263-2.92,10.786-4.481,12.463A2.524,2.524,0,0,0,0,31.018,2.587,2.587,0,0,0,2.593,33.6h31a2.587,2.587,0,0,0,2.593-2.585,2.522,2.522,0,0,0-.7-1.754Z" transform="translate(768.925 2782.695) rotate(8)"/><path d="M19.96,6.235,11.7,14.492H2.228A2.227,2.227,0,0,0,0,16.72V30.086a2.228,2.228,0,0,0,2.228,2.228H11.7l8.259,8.257A2.229,2.229,0,0,0,23.763,39V7.81A2.229,2.229,0,0,0,19.96,6.235ZM41.618,1.494a2.246,2.246,0,1,0-2.465,3.756,21.688,21.688,0,0,1,0,36.309,2.246,2.246,0,1,0,2.465,3.755,26.181,26.181,0,0,0,0-43.819ZM44.555,23.4A17.139,17.139,0,0,0,36.594,8.9a2.218,2.218,0,0,0-3.074.692,2.254,2.254,0,0,0,.688,3.1,12.686,12.686,0,0,1,0,21.427,2.254,2.254,0,0,0-.688,3.1,2.222,2.222,0,0,0,3.074.692A17.138,17.138,0,0,0,44.555,23.4ZM31.4,16.267a2.228,2.228,0,1,0-2.15,3.9,3.659,3.659,0,0,1,0,6.462,2.228,2.228,0,1,0,2.15,3.9,8.116,8.116,0,0,0,0-14.271Z" transform="translate(745.044 2822.574) rotate(-169)"/></g></svg>