<svg xmlns="http://www.w3.org/2000/svg" width="117.089" height="124.947" viewBox="0 0 117.089 124.947"><defs><style>.a{fill:#fff;}.a,.b{stroke:#ff6233;stroke-width:5px;}.b,.d,.f{fill:none;}.c{fill:#7b8395;}.d{stroke:#393723;stroke-width:2px;}.e{stroke:none;}</style></defs><g transform="translate(-701.814 -2855.484)"><g class="a" transform="translate(719.486 2881.014)"><circle class="e" cx="49.709" cy="49.709" r="49.709"/><circle class="f" cx="49.709" cy="49.709" r="47.209"/></g><line class="b" x1="61.241" y2="72.376" transform="translate(737.381 2894.136)"/><path class="c" d="M51.074,11.977l-4.2,32.894H32.7L28.525,11.812h17.3L49.248,0l1.939.584L47.905,11.952l3.168.025ZM26.521,31.007s.53-4.266-6.82-4.266H8c-7.339,0-6.82,4.266-6.82,4.266H26.521ZM1.177,40.6S.658,44.87,8,44.87H19.7c7.35,0,6.82-4.266,6.82-4.266H1.177Zm24.244-2.133A2.453,2.453,0,0,0,27.6,35.807a2.449,2.449,0,0,0-2.174-2.667H2.175A2.454,2.454,0,0,0,0,35.807a2.457,2.457,0,0,0,2.175,2.665Z" transform="translate(763.155 2905.208) rotate(23)"/><path d="M34.316,7.956a2.4,2.4,0,0,0-2.423,2.365v12.56a1.022,1.022,0,0,1-2.044,0V4.351a2.423,2.423,0,0,0-4.845,0V18.91a1.022,1.022,0,0,1-2.044,0V2.365a2.423,2.423,0,0,0-4.845,0V20.9a1.022,1.022,0,0,1-2.044,0V6.338a2.423,2.423,0,0,0-4.845,0V31.4l-3.192-2.71c-3-2.606-5.534-3.72-7.6-1.8C-.954,28.244,1.228,30.437,3.512,33c2.2,2.468,8.037,10.551,13.008,13.467a8.964,8.964,0,0,0,4.661,1.309h6.567c5.293,0,9-4.351,9-10.7V10.322A2.422,2.422,0,0,0,34.316,7.956Z" transform="translate(760.186 2893.13) rotate(142)"/><path class="d" d="M4077.761,2889.472s14.434-1.632,19.89,17" transform="translate(-3328.456 18.202)"/><path class="d" d="M4077.761,2889.472s14.434-1.632,19.89,17" transform="translate(-3332.96 24.255)"/></g></svg>