<svg xmlns="http://www.w3.org/2000/svg" width="154.242" height="123.529" viewBox="0 0 154.242 123.529">
  <g id="神社のシンボル鳥居のアイコン" transform="translate(0 -50.975)">
    <path id="パス_13" data-name="パス 13" d="M154.242,50.975c-25.551,4.051-51.332,5.094-77.123,5.094S25.548,55.026,0,50.975L5.248,68.242q14.706,2.093,29.487,3.328l-.969,24.594H12.122V110.5H33.2l-2.5,63.4,15.3.6L48.524,110.5h57.193l2.524,64.005,15.3-.6-2.5-63.4H142.12V96.164H120.475l-.969-24.594Q134.283,70.334,149,68.242ZM69.465,96.164H49.1l.927-23.545q9.711.519,19.442.657V96.164Zm15.312,0V73.277q9.729-.144,19.45-.657l.927,23.545H84.777Z" fill="#e6e403"/>
  </g>
</svg>
