<?xml version="1.0" encoding="utf-8"?>
<!-- Generator: Adobe Illustrator 27.2.0, SVG Export Plug-In . SVG Version: 6.00 Build 0)  -->
<svg version="1.1" id="レイヤー_1" xmlns="http://www.w3.org/2000/svg" xmlns:xlink="http://www.w3.org/1999/xlink" x="0px"
	 y="0px" viewBox="0 0 116 100" style="enable-background:new 0 0 116 100;" xml:space="preserve">
<style type="text/css">
	.st0{fill:#E6E403;}
	.st1{fill:#393723;}
	.st2{enable-background:new    ;}
	.st3{fill:#F45151;}
</style>
<g>
	<path class="st0" d="M100.4,99.5H15.6c-3.1,0-5.8-1.6-7.4-4.3c-1.5-2.7-1.5-5.8,0-8.5l42.4-73.1c1.5-2.7,4.3-4.2,7.4-4.2
		c3.1,0,5.8,1.6,7.4,4.2l42.4,73.1c1.5,2.7,1.5,5.8,0,8.5C106.2,97.9,103.5,99.5,100.4,99.5z"/>
	<path class="st1" d="M58,9.9c-2.9,0-5.5,1.5-6.9,4L8.7,87c-1.5,2.5-1.5,5.5,0,8c1.4,2.5,4,4,6.9,4h84.8c2.9,0,5.5-1.5,6.9-4
		c1.4-2.5,1.4-5.5,0-8L64.9,13.9C63.5,11.4,60.9,9.9,58,9.9 M58,8.9c3,0,6.1,1.5,7.8,4.5l42.4,73.1c3.5,6-0.8,13.5-7.8,13.5H15.6
		c-6.9,0-11.3-7.5-7.8-13.5l42.4-73.1C51.9,10.4,55,8.9,58,8.9z"/>
</g>
<g transform="translate(30 -53.822)">
	<path class="st1" d="M41.8,88.4c0,0-2-2.9-2.3-3.4s-1-2.9-2.2-3.5c-0.9-0.4-1.8-0.7-2.8-1c0-0.6-0.5-1.1-1.1-1.1
		c-0.3,0-0.7,0.2-0.9,0.4c-2.6-0.8-5.3-1.7-5.8-1.8c-0.9-0.3-5-1.6-6.3-1.6c-3.2-0.2-6.5-0.5-9.7-1C8.8,75-2.3,77.3,0.4,92.2
		c0,1.9,0.2,13.9,0.2,14.3v0.4h5.6c1.2,0,0.7-0.8,0.7-0.8h2.2c0,0,0.6-1.3,0-1.6c-0.7-0.6-1.4-1.2-2-1.9c0,0,1.8-4.5,2.3-4.9
		c0.8-1,1.5-2.1,2.1-3.3h5.5c0,0-1.2,6.5-1.5,7.8s-0.5,3.8,0.1,4.4s3.5,0,4.5,0s1-1,0.5-1.6s-0.9-2.3,0.3-4c0,0,2.8,5,3.3,5.6
		c0.6,0.7,1.5,1,2.4,0.9h4.5c0.9,0,1.6-1.5,0.6-2c-1.1-0.7-2.1-1.4-3.1-2.3c0,0-2.2-5.8-2.2-6.7s1-5.9,1-5.9S33.4,90,34,90
		c1.6,0.3,4.3-0.5,6.2,0.2C41.3,90.7,42,89.3,41.8,88.4z"/>
</g>
<g class="st2">
	<path class="st1" d="M30.6,61.7c0-0.2,0-0.3,0.1-0.3s0.2-0.1,0.3-0.1c0.1,0,0.2,0,0.4,0s0.2,0,0.3-0.1s0.1-0.2,0.1-0.4
		c0-0.2,0.1-0.4,0.1-0.5c0-0.2,0.1-0.3,0.2-0.5c0.1-0.1,0.1-0.2,0.2-0.2c0.1,0,0.2,0,0.4,0.1c0.2,0,0.4,0.1,0.6,0.2s0.4,0.1,0.6,0.2
		s0.2,0.2,0.2,0.2c0,0.1,0,0.1-0.1,0.2s-0.1,0.2-0.2,0.3s-0.1,0.2-0.2,0.3c-0.1,0.1-0.1,0.2-0.1,0.2c0.1,0.1,0.2,0.1,0.3,0.1
		c0.2,0,0.3,0,0.3,0l0.2,0c0-0.1-0.1-0.2-0.2-0.3c-0.1-0.1-0.2-0.2-0.2-0.3c0,0,0.1-0.1,0.2-0.2c0.1-0.1,0.3-0.2,0.5-0.2
		c0.2-0.1,0.4-0.1,0.5-0.2c0.2-0.1,0.3-0.1,0.3-0.1c0.1,0,0.3,0.1,0.5,0.3s0.3,0.4,0.5,0.7c0.2,0.3,0.3,0.5,0.4,0.8
		c0.1,0.2,0.2,0.4,0.3,0.5c0.1-0.2,0.1-0.4,0.2-0.6s0-0.5,0-0.7c0-0.2,0-0.4-0.1-0.5c-0.1-0.2-0.1-0.4-0.1-0.5c0-0.1,0-0.2,0.1-0.2
		c0.1,0,0.2,0,0.3,0c0.1,0,0.2,0,0.4,0c0.2,0,0.4,0,0.5,0s0.3,0.1,0.5,0.1s0.2,0.1,0.2,0.2c0,0.1,0,0.2,0,0.3s0,0.2,0,0.3
		c0,0,0,0.1,0.1,0.2l0.1,0c0.1,0,0.3,0,0.5-0.1s0.4-0.1,0.6-0.2s0.4-0.1,0.5-0.2c0.2-0.1,0.3-0.1,0.4-0.1c0.1,0,0.1,0,0.3,0.2
		c0.1,0.1,0.2,0.2,0.4,0.3c0.1,0.1,0.2,0.3,0.3,0.4c0.1,0.1,0.2,0.2,0.2,0.3c0,0.1-0.2,0.2-0.5,0.2c-0.3,0.1-0.6,0.2-1,0.3
		s-0.7,0.2-1.1,0.3c-0.3,0.1-0.6,0.2-0.7,0.2v0l0,0.1c0.2,0.1,0.3,0.2,0.4,0.3s0.2,0.1,0.3,0.1c0.1,0,0.2,0,0.4,0c0.1,0,0.3,0,0.5,0
		c0.1,0,0.2,0,0.3-0.1c0.1-0.1,0.2-0.2,0.2-0.3c0.1-0.1,0.1-0.2,0.2-0.3C41.9,62,41.9,62,42,62c0.1,0,0.2,0,0.3,0.1
		c0.2,0.1,0.3,0.1,0.5,0.2c0.2,0.1,0.3,0.2,0.4,0.3s0.2,0.2,0.2,0.2c0,0.1,0,0.1-0.1,0.3s-0.1,0.2-0.1,0.3s-0.1,0.2-0.2,0.3
		s-0.1,0.2-0.2,0.2c-0.1,0.1-0.3,0.2-0.6,0.2s-0.6,0.1-1,0.2c-0.3,0.1-0.7,0.1-1,0.1c-0.3,0-0.6,0.1-0.7,0.1c-0.2,0-0.4,0-0.5,0
		c-0.2,0-0.4-0.1-0.5-0.1s-0.3-0.1-0.5-0.2c-0.1-0.1-0.3-0.2-0.4-0.4c0-0.1-0.1-0.2-0.1-0.3s-0.1-0.3-0.1-0.4s-0.1-0.3-0.2-0.4
		c-0.1-0.1-0.1-0.2-0.2-0.2c-0.2,0-0.4,0-0.6,0.1s-0.4,0.1-0.6,0.2c-0.3,0.1-0.6,0.1-0.9,0.1s-0.6,0-0.9,0c-0.2,0-0.5,0-0.7,0.1
		c-0.2,0-0.5,0.1-0.7,0.1c-0.6,0-1.1,0-1.7,0c-0.1,0-0.3,0-0.4,0c-0.1,0-0.2-0.1-0.2-0.3V61.7z M30.6,72.1c0-0.1,0-0.2,0.1-0.2
		s0.1-0.2,0.2-0.2c0.2-0.3,0.3-0.5,0.5-0.8s0.3-0.6,0.5-0.8c0.1-0.1,0.2-0.2,0.4-0.2c0.1,0,0.2,0,0.4,0s0.3,0.1,0.5,0.1
		c0.2,0,0.3,0.1,0.4,0.2s0.2,0.1,0.2,0.2c0,0.1-0.1,0.3-0.2,0.6c-0.1,0.3-0.2,0.5-0.4,0.8c-0.1,0.3-0.3,0.5-0.5,0.7
		c-0.2,0.2-0.3,0.3-0.4,0.3c0,0-0.1,0-0.3-0.1s-0.4-0.1-0.6-0.2s-0.4-0.1-0.5-0.2C30.7,72.2,30.7,72.2,30.6,72.1z M36.6,66.4
		c0,0.2,0,0.4,0,0.6c0,0.2,0,0.4,0,0.6c0,0.2,0,0.4-0.1,0.5s-0.2,0.3-0.3,0.5c-0.1,0.2-0.2,0.4-0.4,0.5c-0.1,0.1-0.2,0.2-0.4,0.2
		c-0.1,0-0.3,0.1-0.5,0.1c-0.2,0-0.4,0-0.6,0c0,0-0.1,0-0.1,0c-0.1,0-0.1,0-0.1,0c0,0-0.1-0.1-0.2-0.2s-0.1-0.2-0.2-0.3
		s-0.1-0.2-0.2-0.3c-0.1-0.1-0.1-0.2-0.1-0.2c0-0.1,0-0.1,0.2-0.2c0.1,0,0.2-0.1,0.3-0.1c0.1,0,0.3,0,0.4-0.1c0.1,0,0.2,0,0.3-0.1
		l0-0.1l0,0c-0.1,0-0.3-0.1-0.4,0s-0.3,0-0.4,0c-0.2,0-0.4,0-0.5,0s-0.2,0.1-0.2,0.1s-0.1,0.2,0,0.3c0,0.1,0,0.3,0,0.5
		c0,0.2,0,0.4,0,0.5c0,0.1-0.1,0.2-0.1,0.2c-0.1,0.1-0.2,0.1-0.3,0.1c-0.1,0-0.3,0-0.5,0h-0.6c-0.2,0-0.4-0.1-0.4-0.3
		c0-0.3,0-0.5,0.1-0.8c0-0.3,0.1-0.5,0.1-0.8v-0.8c0-0.5,0-0.9-0.1-1.4s-0.1-0.9-0.1-1.4c0-0.1,0-0.1,0-0.2c0-0.1,0-0.2,0-0.2
		s0-0.1,0.1-0.2s0.1-0.1,0.2-0.1c0.2,0,0.4,0,0.6,0c0.2,0,0.4,0,0.6,0c0.2,0,0.4,0,0.7,0c0.2,0,0.5,0,0.7,0c0.4,0,0.7,0,1.1,0
		c0.4,0,0.7,0,1.1,0c0.2,0,0.4,0,0.4,0.1s0.1,0.2,0.1,0.4c0,0.2,0,0.4,0,0.5s0,0.4,0,0.6V66.4z M34.6,66.6L34.6,66.6l0.1-0.1l0-0.1
		c0,0-0.1-0.1-0.2-0.1s-0.3,0-0.4-0.1c-0.2,0-0.3,0-0.5,0s-0.3,0-0.3,0s-0.1,0-0.2,0.1l0,0.1l0,0.1c0,0,0.1,0.1,0.2,0.1
		c0.1,0,0.2,0,0.4,0c0.1,0,0.3,0,0.4,0s0.2,0,0.3,0H34.6z M33.4,64.6c-0.1,0-0.1,0-0.2,0l-0.1,0.1c0,0.1,0,0.2,0.1,0.3
		s0.2,0.1,0.3,0.1c0.1,0,0.3,0,0.4,0s0.3,0,0.4,0l0.2,0l0.1-0.1c0-0.1,0-0.2-0.1-0.3l-0.1-0.1c-0.1,0-0.2,0-0.2,0H33.4z M34.6,71.7
		c0-0.4,0-0.6,0-0.8s0.1-0.3,0.2-0.4c0.1-0.1,0.2-0.2,0.4-0.2s0.5,0,0.8,0c0.1,0,0.2,0,0.3,0.1c0,0,0.1,0.1,0.1,0.2
		c0,0.1,0.1,0.2,0.1,0.4c0,0.1,0.1,0.3,0.1,0.4c0,0.1,0,0.2,0,0.3v0.6c0,0.1,0,0.2,0,0.3c0,0.1-0.1,0.2-0.1,0.2c0,0-0.1,0.1-0.3,0.1
		c-0.1,0-0.3,0-0.5,0.1c-0.2,0-0.3,0-0.5,0s-0.3,0-0.3,0c-0.2,0-0.2,0-0.3-0.1s0-0.2,0-0.3V71.7z M38.8,70.1c0.1,0,0.2,0,0.3,0.2
		c0.1,0.2,0.2,0.4,0.3,0.7s0.2,0.5,0.3,0.7c0,0,0,0.1,0.1,0.2c0,0.1,0.1,0.1,0.1,0.2c0,0.1-0.1,0.1-0.3,0.2
		c-0.2,0.1-0.4,0.1-0.6,0.2s-0.4,0.1-0.6,0.1c-0.2,0-0.3,0.1-0.4,0.1c-0.1,0-0.1,0-0.2,0c-0.1,0-0.1-0.1-0.1-0.1
		c0-0.1-0.1-0.2-0.1-0.3c0-0.2-0.1-0.3-0.1-0.5s-0.1-0.4-0.1-0.5c0-0.2,0-0.3,0-0.4c0-0.1,0.1-0.2,0.2-0.2s0.3-0.1,0.4-0.2
		c0.2-0.1,0.3-0.1,0.5-0.1S38.7,70.1,38.8,70.1z M37.4,65.7c0-0.1,0-0.3,0-0.4c0-0.1,0-0.3,0-0.4c0-0.1,0.1-0.2,0.2-0.2
		c0.1,0,0.2-0.1,0.4-0.1s0.3,0,0.4,0c0.1,0,0.3,0,0.3,0c0,0,0.1,0,0.2,0c0.1,0,0.2,0,0.3,0s0.2,0,0.2,0.1c0.1,0,0.1,0.1,0.1,0.2
		c0,0.1,0,0.2,0,0.3c0,0.1,0,0.2,0,0.3c0,0.1,0,0.1,0,0.2c0.1,0,0.1,0,0.2,0c0.2,0,0.3,0,0.5-0.1s0.4-0.1,0.5-0.2s0.4-0.2,0.5-0.2
		c0.2-0.1,0.3-0.1,0.5-0.1c0.1,0,0.2,0,0.3,0.1c0.1,0.1,0.2,0.2,0.3,0.3c0.1,0.1,0.2,0.3,0.3,0.4c0.1,0.1,0.1,0.2,0.2,0.3
		c0,0.1-0.2,0.2-0.5,0.2s-0.6,0.2-1,0.2c-0.4,0.1-0.7,0.2-1.1,0.3s-0.6,0.2-0.7,0.3v0.1c0,0,0,0.1,0,0.1c0.1,0.1,0.2,0.2,0.3,0.3
		c0.1,0.1,0.2,0.1,0.4,0.1h0.8c0.1,0,0.3,0,0.3-0.1c0.1-0.1,0.2-0.2,0.3-0.3c0.1-0.1,0.2-0.2,0.2-0.3S42,67,42.1,67
		c0.1,0,0.2,0,0.3,0.1c0.2,0,0.3,0.1,0.5,0.2c0.2,0.1,0.3,0.1,0.4,0.2s0.2,0.2,0.2,0.2c0,0.1,0,0.2-0.1,0.3
		c-0.1,0.2-0.1,0.3-0.1,0.3c-0.1,0.1-0.1,0.3-0.2,0.4s-0.2,0.3-0.3,0.4c-0.1,0.1-0.2,0.1-0.3,0.2c-0.2,0.1-0.3,0.1-0.5,0.2
		c-0.2,0-0.4,0.1-0.5,0.1c-0.2,0-0.3,0-0.4,0c-0.4,0-0.7,0-1.1-0.1s-0.7-0.1-1-0.1c-0.3,0-0.5-0.1-0.6-0.2c-0.2-0.1-0.3-0.1-0.4-0.3
		c-0.1-0.1-0.2-0.2-0.3-0.4s-0.1-0.4-0.2-0.6c0-0.1-0.1-0.3-0.1-0.4c0-0.1-0.1-0.3-0.1-0.4c0-0.2,0-0.3,0-0.5c0-0.2,0-0.3,0-0.5
		V65.7z M43.3,72.1c0,0.1-0.1,0.1-0.3,0.2c-0.2,0.1-0.3,0.1-0.5,0.2c-0.2,0.1-0.4,0.1-0.5,0.1c-0.2,0-0.3,0.1-0.4,0.1
		c-0.1,0-0.2,0-0.2-0.1c-0.1-0.1-0.2-0.2-0.3-0.3s-0.2-0.3-0.2-0.4c-0.1-0.1-0.1-0.2-0.2-0.3c0,0-0.1-0.1-0.2-0.2s-0.2-0.2-0.3-0.3
		c-0.1-0.1-0.2-0.2-0.2-0.3s-0.1-0.2-0.1-0.2c0-0.1,0.1-0.1,0.2-0.2s0.3-0.2,0.5-0.3c0.2-0.1,0.4-0.2,0.6-0.2
		c0.2-0.1,0.3-0.1,0.4-0.1c0.1,0,0.3,0.1,0.5,0.3c0.2,0.2,0.4,0.4,0.6,0.7s0.4,0.5,0.5,0.8C43.3,71.7,43.3,71.9,43.3,72.1L43.3,72.1
		z"/>
	<path class="st1" d="M56.2,63.5c0,0.2,0,0.4,0,0.6s0,0.4,0,0.6c0,0.1,0,0.2,0,0.3c0,0.1,0,0.2,0,0.4c0,0.1,0,0.2,0,0.3
		c0,0.1,0,0.2-0.1,0.2c-0.1,0.1-0.2,0.1-0.4,0.2c-0.2,0-0.5,0-0.7,0.1c-0.3,0-0.5,0-0.8,0c-0.2,0-0.4,0-0.5,0c-0.1,0-0.2,0-0.3,0
		s-0.3,0-0.5,0c-0.2,0-0.3,0-0.5,0c-0.1,0-0.2,0-0.3,0.1c0,0-0.1,0.1-0.1,0.2s0,0.2-0.1,0.3s0,0.2,0,0.3s0,0.2,0,0.2
		c0,0.2,0,0.5,0.1,0.7s0.1,0.4,0.1,0.7c0,0.2,0,0.4,0,0.5c0,0.2,0,0.3,0,0.5c0,0.1,0.1,0.2,0.2,0.2c0.1,0,0.3,0.1,0.4,0.1
		c0.2,0,0.3,0,0.5,0c0.2,0,0.3,0,0.3,0c0.1,0,0.3,0,0.4,0c0.1,0,0.3,0,0.5,0c0.1,0,0.2-0.1,0.2-0.3c0-0.2,0.1-0.5,0.1-0.8
		s0-0.6,0-0.8c0-0.3,0-0.4,0-0.5c0-0.2,0-0.4,0-0.5c0-0.1,0.1-0.2,0.1-0.2c0.1,0,0.2-0.1,0.3-0.1c0.1,0,0.3,0,0.6,0
		c0.3,0,0.5,0,0.7,0c0.2,0,0.3,0,0.3,0.1s0.1,0.2,0.1,0.3s0,0.4,0,0.6c0,0.4,0,0.7-0.1,1.1c0,0.4-0.1,0.7-0.1,1.1
		c0,0.2,0,0.5,0.1,0.7c0,0.2,0.1,0.5,0.1,0.7c0,0.1,0,0.2,0,0.3s0,0.3,0,0.5c0,0.2-0.1,0.3-0.1,0.4s-0.1,0.2-0.2,0.2
		c-0.1,0-0.2,0-0.3,0c-0.1,0-0.2,0-0.3,0c-0.2,0-0.3,0-0.5,0c-0.2,0-0.3,0-0.5,0c-0.1,0-0.1,0-0.2,0l0-0.1c0-0.1,0-0.2,0-0.3
		s0-0.2,0-0.3L54.6,72c-0.1,0-0.3-0.1-0.4-0.1c-0.6,0-1.2,0-1.8,0c-0.6,0-1.2,0-1.8,0c-0.3,0-0.6,0-0.9,0.1
		c-0.3,0.1-0.6,0.1-0.9,0.1c-0.2,0-0.4,0-0.6,0s-0.4,0-0.6,0c-0.2,0-0.2,0-0.2,0.1s0,0.2,0,0.3c0,0.2,0,0.3-0.1,0.4
		c-0.1,0-0.2,0.1-0.4,0.1c-0.1,0-0.2,0-0.4,0c-0.2,0-0.4,0-0.6,0s-0.4-0.1-0.5-0.1c-0.1-0.1-0.2-0.1-0.2-0.2c0-0.3,0-0.7,0.1-1
		c0.1-0.3,0.1-0.6,0.1-1c0-0.4,0-0.8-0.1-1.1s-0.1-0.7-0.1-1.1c0-0.1,0-0.2,0-0.4c0-0.2,0-0.3,0.1-0.5s0.1-0.3,0.1-0.5
		c0-0.1,0.1-0.2,0.1-0.3c0.1,0,0.2-0.1,0.3-0.1c0.3,0,0.5,0,0.7,0c0.2,0,0.3,0,0.4,0.1s0.2,0.1,0.3,0.3c0.1,0.1,0.1,0.3,0.1,0.6
		c0,0.2,0,0.3,0,0.5c0,0.2,0,0.3,0,0.4c0,0.2,0,0.4,0,0.6c0,0.2,0,0.4,0,0.7c0,0.1,0,0.2,0.1,0.2c0.1,0,0.2,0.1,0.3,0.1
		c0.1,0,0.2,0,0.3,0c0.1,0,0.2,0,0.3,0c0.3,0,0.6,0,0.8,0s0.3,0,0.4-0.1c0.1-0.1,0.1-0.2,0.1-0.3c0-0.2,0-0.4,0-0.7
		c0-0.3,0-0.7,0.1-1c0-0.3,0.1-0.6,0.1-1c0-0.1,0-0.2,0-0.3c0-0.1,0-0.2,0-0.3c0-0.1,0-0.2-0.1-0.3s-0.1-0.1-0.2-0.1
		c-0.2,0-0.3,0-0.5,0c-0.2,0-0.3,0-0.5,0c-0.1,0-0.2,0-0.5,0s-0.5,0-0.8,0c-0.3,0-0.5,0-0.7,0s-0.3,0-0.4,0c-0.1,0-0.1-0.1-0.2-0.1
		S46,65.8,46,65.7s0-0.2,0-0.2c0-0.1,0-0.2,0-0.2v-3c0-0.1,0-0.2,0-0.4c0-0.2,0-0.3,0-0.5S46,61,46,60.9s0.2-0.2,0.3-0.2
		c0.4,0,0.7,0,0.9,0c0.2,0,0.3,0.1,0.4,0.2s0.1,0.2,0.1,0.5s0,0.5,0,0.9c0,0.1,0,0.2,0,0.4s0,0.4,0.1,0.6s0.1,0.4,0.1,0.6
		s0.1,0.3,0.1,0.3c0.1,0.1,0.2,0.1,0.3,0.1c0.1,0,0.2,0,0.4,0c0.2,0,0.3,0,0.5,0s0.3-0.1,0.4-0.1c0.1-0.1,0.2-0.2,0.2-0.3
		c0-0.2,0-0.4,0-0.6c0-0.2,0-0.4,0-0.6c0-0.2,0-0.5,0.1-0.8c0-0.3,0.1-0.5,0.1-0.8c0-0.2,0-0.4,0-0.6s0-0.4,0-0.6
		c0-0.1,0-0.1,0.1-0.2c0.1-0.1,0.1-0.1,0.3-0.1c0.1,0,0.2,0,0.4,0c0.2,0,0.3,0,0.5,0c0.2,0,0.3,0,0.5,0c0.1,0,0.2,0,0.3,0.1
		c0,0,0.1,0.2,0.1,0.4c0,0.3,0,0.6,0.1,0.9c0,0.3,0,0.6,0.1,0.9s0,0.5,0,0.5c0,0.2,0,0.4-0.1,0.6s-0.1,0.4-0.1,0.6
		c0,0.1,0.1,0.2,0.2,0.2s0.3,0.1,0.5,0.1c0.2,0,0.4,0,0.5,0c0.2,0,0.3,0,0.4,0c0.1,0,0.1,0,0.2,0c0.1,0,0.1,0,0.2-0.1
		c0.1-0.1,0.1-0.2,0.2-0.3s0.1-0.4,0.1-0.6c0-0.2,0-0.4,0-0.6c0-0.2,0-0.3,0-0.4c0-0.2,0-0.3,0-0.5c0-0.2,0-0.3,0-0.5
		c0-0.1,0-0.2,0.1-0.3c0.1-0.1,0.1-0.1,0.3-0.1c0.1,0,0.2,0,0.3,0s0.2,0,0.3,0c0.1,0,0.2,0,0.3,0c0.1,0,0.2,0,0.3,0
		c0.1,0,0.1,0,0.2,0c0.1,0,0.2,0,0.2,0.1c0,0.1,0,0.2,0.1,0.3c0,0.1,0,0.3,0,0.4c0,0.1,0,0.3,0,0.4c0,0.1,0,0.2,0,0.2V63.5z"/>
	<path class="st1" d="M60.7,66.1c-0.1,0-0.2,0-0.3-0.1s-0.2-0.1-0.3-0.2c-0.3-0.2-0.5-0.3-0.8-0.4s-0.5-0.3-0.8-0.4
		c-0.1,0-0.1-0.1-0.1-0.2c0-0.1,0-0.2,0.1-0.3s0.2-0.3,0.3-0.4c0.1-0.2,0.2-0.3,0.4-0.4s0.2-0.2,0.3-0.2c0.1,0,0.2,0.1,0.5,0.2
		s0.5,0.3,0.7,0.4s0.5,0.3,0.7,0.5s0.3,0.3,0.3,0.3c0,0.1,0,0.2-0.1,0.3s-0.2,0.3-0.3,0.4S61.1,65.9,61,66S60.8,66.1,60.7,66.1z
		 M62.7,68.5c0,0,0,0.1-0.1,0.3s-0.2,0.4-0.3,0.6s-0.2,0.5-0.3,0.7s-0.2,0.3-0.2,0.4c0,0-0.1,0.2-0.2,0.4s-0.3,0.5-0.5,0.7
		s-0.3,0.5-0.5,0.7s-0.2,0.3-0.2,0.3c0,0-0.1,0-0.1,0c0,0-0.1-0.1-0.1-0.1s-0.1-0.1-0.1-0.1c-0.2-0.2-0.4-0.4-0.6-0.5
		s-0.4-0.3-0.6-0.4c0,0-0.1-0.1-0.1-0.1c0,0,0-0.1,0-0.1c0,0,0-0.1,0.1-0.2c0-0.1,0.1-0.2,0.2-0.3c0.1-0.1,0.1-0.2,0.2-0.3
		s0.1-0.1,0.1-0.1c0.1-0.2,0.3-0.4,0.4-0.7s0.3-0.4,0.4-0.6c0.1-0.1,0.2-0.3,0.3-0.4s0.2-0.3,0.3-0.4c0.1-0.1,0.2-0.3,0.2-0.5
		s0.2-0.3,0.3-0.4c0.1-0.1,0.1-0.1,0.2-0.1c0.1,0,0.2,0.1,0.3,0.2s0.3,0.2,0.4,0.4s0.3,0.3,0.4,0.4S62.7,68.4,62.7,68.5z M61.7,62.5
		c-0.1,0-0.2-0.1-0.5-0.2s-0.5-0.3-0.8-0.5s-0.5-0.4-0.7-0.5s-0.3-0.3-0.3-0.4c0-0.1,0-0.2,0.1-0.3s0.1-0.3,0.2-0.4s0.2-0.2,0.3-0.3
		s0.2-0.1,0.2-0.1c0.1,0,0.3,0,0.6,0.1s0.5,0.2,0.8,0.4s0.5,0.3,0.7,0.5s0.3,0.3,0.3,0.4c0,0.1,0,0.2-0.1,0.3s-0.2,0.3-0.3,0.5
		s-0.2,0.3-0.3,0.4S61.8,62.5,61.7,62.5z M64.1,65.6c0.3,0,0.6,0,0.8,0s0.5-0.1,0.8-0.1c0.3,0,0.6,0,0.8,0s0.5,0.1,0.8,0.1
		c0.3,0,0.5,0,0.8,0s0.5,0,0.8,0c0.1,0,0.2,0,0.4,0s0.4,0.1,0.5,0.1s0.3,0.1,0.5,0.2s0.2,0.2,0.2,0.3c0,0.2,0,0.4-0.1,0.7
		s-0.2,0.6-0.3,0.9s-0.3,0.6-0.4,0.8s-0.3,0.4-0.4,0.5c0,0-0.1,0.1-0.2,0.1s-0.2,0.1-0.2,0.2s-0.1,0.1-0.2,0.2s-0.1,0.1-0.1,0.2
		c0.1,0.1,0.3,0.2,0.6,0.3s0.6,0.2,1,0.3s0.7,0.2,1,0.3s0.5,0.2,0.5,0.2l0,0.1c0,0,0,0,0,0s0,0,0,0c-0.1,0.1-0.2,0.2-0.3,0.3
		s-0.2,0.2-0.3,0.3c-0.1,0.1-0.2,0.3-0.3,0.4s-0.2,0.3-0.3,0.4c-0.1,0.1-0.2,0.2-0.3,0.2c-0.2,0-0.5-0.1-0.8-0.2s-0.7-0.3-1-0.5
		s-0.7-0.3-1-0.5s-0.5-0.2-0.6-0.2c-0.1,0-0.2,0-0.3,0.1s-0.2,0.1-0.4,0.2s-0.3,0.1-0.4,0.2S65.6,72,65.5,72c-0.1,0-0.2,0.1-0.5,0.2
		s-0.5,0.2-0.8,0.3s-0.7,0.2-1.2,0.4c-0.1,0-0.2,0-0.2-0.1c0-0.1-0.1-0.2-0.2-0.3s-0.2-0.3-0.3-0.5s-0.2-0.4-0.3-0.5
		s-0.1-0.3-0.1-0.3c0,0,0.1-0.1,0.3-0.1s0.4-0.1,0.6-0.2s0.5-0.1,0.7-0.2s0.5-0.1,0.7-0.2s0.4-0.1,0.6-0.2s0.3-0.1,0.3-0.2
		c0-0.1-0.1-0.2-0.2-0.4s-0.3-0.3-0.4-0.5s-0.3-0.4-0.4-0.5s-0.2-0.4-0.2-0.6c0-0.1,0-0.1,0.1-0.2s0.2-0.1,0.3-0.2s0.2-0.1,0.3-0.2
		s0.2-0.1,0.2-0.1c-0.1,0-0.3-0.1-0.4-0.1s-0.3,0-0.4,0s-0.3,0-0.4,0s-0.3,0-0.4,0s-0.2,0-0.3-0.1s-0.1-0.2-0.1-0.3s0-0.3,0-0.4
		s0-0.3,0-0.3c0,0,0-0.1,0-0.2s0-0.2,0-0.2s0-0.1,0.1-0.2s0.1-0.1,0.1-0.1c0,0,0.1,0,0.1,0s0.1,0,0.2,0s0.1,0,0.2,0s0.1,0,0.1-0.1
		c0-0.1-0.1-0.1-0.2-0.2s-0.3-0.2-0.5-0.3s-0.3-0.3-0.5-0.4s-0.2-0.2-0.2-0.3c0-0.1,0.1-0.2,0.2-0.3s0.3-0.2,0.4-0.4
		s0.3-0.3,0.5-0.5s0.3-0.4,0.3-0.7c0-0.2,0.1-0.3,0.1-0.5s0-0.3,0-0.5c0-0.1,0-0.2,0-0.3s0-0.3,0-0.5s0-0.3,0.1-0.4s0.1-0.2,0.3-0.2
		c0.2,0,0.4,0,0.6,0.1S65,60,65.2,60c0.4,0,0.7,0,1.1-0.1s0.7-0.1,1.1-0.1c0.1,0,0.2,0,0.4,0s0.4,0,0.7,0s0.4,0.1,0.6,0.1
		s0.3,0.1,0.3,0.3c0,0.2,0,0.4-0.1,0.6s-0.1,0.4-0.1,0.6c0,0.1,0,0.2,0,0.3s0.1,0.4,0.1,0.5s0.1,0.4,0.1,0.5s0.1,0.3,0.1,0.3
		l0.1,0.1c0.1-0.1,0.2-0.2,0.3-0.3s0.1-0.3,0.1-0.4s0-0.2,0-0.3s0.1-0.2,0.1-0.2c0.1,0,0.2,0,0.3,0.1s0.3,0.1,0.4,0.2
		s0.3,0.2,0.4,0.2s0.2,0.1,0.2,0.2c0,0.1,0.1,0.1,0.1,0.2s0,0.2,0,0.2c0,0.1,0,0.1,0,0.2s0,0.2,0,0.3s0,0.2,0,0.3s0,0.2,0,0.2
		c-0.1,0.1-0.1,0.3-0.3,0.4s-0.3,0.2-0.4,0.3s-0.3,0.1-0.5,0.2s-0.3,0.1-0.5,0.1c-0.1,0-0.2,0-0.4,0s-0.4-0.1-0.6-0.1
		s-0.4-0.1-0.6-0.2s-0.3-0.2-0.3-0.2c-0.1-0.1-0.2-0.3-0.3-0.6s-0.1-0.6-0.2-0.9s-0.1-0.6-0.1-0.9s-0.1-0.4-0.1-0.4
		c-0.1-0.1-0.2-0.1-0.3-0.1s-0.3,0-0.3,0c-0.1,0-0.2,0-0.3,0s-0.2,0-0.3,0.1c0,0-0.1,0.1-0.1,0.3s-0.1,0.3-0.1,0.5s-0.1,0.3-0.1,0.5
		s-0.1,0.3-0.1,0.4c-0.1,0.3-0.2,0.6-0.4,0.7s-0.3,0.3-0.4,0.5s-0.3,0.3-0.4,0.4S64.1,65.3,64.1,65.6L64.1,65.6z M66.7,67.4
		c0,0-0.1,0-0.2,0s-0.2,0-0.3,0s-0.2,0-0.2,0.1s-0.1,0.1-0.1,0.1c0,0.1,0.1,0.1,0.2,0.2s0.2,0.2,0.3,0.3s0.2,0.2,0.3,0.3
		s0.2,0.1,0.2,0.1c0.1,0,0.1,0,0.2-0.1s0.2-0.2,0.3-0.3s0.2-0.2,0.3-0.4s0.1-0.2,0.1-0.3c0,0-0.1-0.1-0.1-0.1s-0.2,0-0.2-0.1
		s-0.2,0-0.3,0s-0.1,0-0.2,0H66.7z"/>
	<path class="st1" d="M78.5,70.3c0-0.1,0.1-0.1,0.3-0.2s0.4-0.1,0.6-0.2s0.5-0.2,0.8-0.3s0.6-0.3,0.9-0.5s0.6-0.5,0.8-0.8
		s0.4-0.7,0.6-1.2c0-0.1,0-0.2,0.1-0.4s0.1-0.3,0.1-0.4c0-0.2,0-0.4-0.1-0.7s-0.1-0.5-0.2-0.8s-0.2-0.5-0.3-0.7s-0.3-0.4-0.4-0.6
		c-0.1-0.1-0.2-0.1-0.3-0.2s-0.2-0.1-0.3-0.2c-0.1,0-0.2-0.1-0.2-0.1s-0.2-0.1-0.2-0.1c0,0,0,0,0,0s0,0,0,0c0,0-0.1,0.2-0.2,0.4
		s-0.1,0.5-0.2,0.8S80,65,79.9,65.3s-0.1,0.4-0.1,0.5c-0.1,0.2-0.1,0.5-0.2,0.7s-0.1,0.5-0.2,0.7c-0.1,0.2-0.2,0.4-0.3,0.7
		s-0.3,0.6-0.5,0.9s-0.4,0.6-0.6,0.9s-0.5,0.6-0.7,0.8s-0.5,0.5-0.7,0.6s-0.5,0.2-0.7,0.2c-0.1,0-0.2,0-0.3-0.1s-0.3-0.1-0.5-0.2
		s-0.3-0.1-0.5-0.2s-0.2-0.1-0.3-0.2c-0.1-0.1-0.2-0.2-0.3-0.3s-0.3-0.3-0.4-0.5s-0.3-0.3-0.4-0.5S73,69.2,73,69.1
		c0-0.1-0.1-0.2-0.1-0.4s0-0.3-0.1-0.5s0-0.4,0-0.5s0-0.3,0-0.4c0-0.5,0-1,0.1-1.4s0.2-0.9,0.4-1.4c0.1-0.2,0.2-0.3,0.3-0.5
		s0.2-0.3,0.4-0.4c0.6-0.7,1.4-1.3,2.2-1.8S78,61,79,61c0.3,0,0.6,0,0.9,0.1s0.6,0.1,0.8,0.2c0.1,0,0.3,0.1,0.5,0.1s0.4,0.1,0.6,0.2
		s0.4,0.2,0.6,0.2s0.4,0.2,0.5,0.2c0.3,0.2,0.6,0.5,0.9,0.8s0.5,0.8,0.6,1.2s0.3,0.9,0.4,1.3s0.1,0.9,0.1,1.2c0,0.7-0.1,1.3-0.2,1.8
		s-0.3,0.9-0.6,1.2s-0.6,0.7-1.1,0.9s-1,0.6-1.6,0.9c0,0-0.1,0-0.2,0.1s-0.3,0.1-0.4,0.2S80.5,72,80.3,72s-0.3,0.1-0.3,0.1
		c-0.1,0-0.2-0.1-0.4-0.2s-0.3-0.3-0.5-0.5s-0.3-0.4-0.4-0.6S78.5,70.4,78.5,70.3z M77.7,63.3c-0.2,0-0.4,0.1-0.6,0.2
		s-0.5,0.4-0.7,0.6s-0.5,0.5-0.7,0.7s-0.3,0.4-0.4,0.6c-0.1,0.1-0.1,0.3-0.1,0.5s0,0.4,0,0.5c0,0.1,0,0.3,0.1,0.5s0.1,0.5,0.2,0.7
		s0.2,0.5,0.2,0.6s0.2,0.3,0.2,0.3c0,0,0.1,0,0.2-0.1s0.1-0.1,0.2-0.1c0.2-0.2,0.3-0.3,0.4-0.5s0.2-0.4,0.2-0.5s0.1-0.4,0.2-0.6
		s0.2-0.4,0.3-0.5c0,0,0,0,0.1,0c0.1-0.2,0.1-0.4,0.2-0.6s0.1-0.5,0.1-0.7s0.1-0.5,0.1-0.7s0-0.4,0-0.6
		C77.7,63.4,77.7,63.4,77.7,63.3L77.7,63.3z"/>
</g>
<g class="st2">
	<path class="st1" d="M35.6,82.6c-0.1,0-0.2,0.1-0.3,0.2c-0.1,0.1-0.1,0.3-0.1,0.4c0,0.2,0,0.3,0,0.5c0,0.2,0,0.3,0,0.4
		c0,0.2,0,0.3,0,0.5c0,0.2,0,0.3,0,0.5c0,0.5,0,1,0.1,1.6c0,0.6,0,1.1,0,1.6c0,0.3,0,0.7-0.1,1c0,0.3-0.1,0.7-0.2,1
		c0,0.2-0.1,0.4-0.1,0.5s0,0.3,0,0.4s0,0.3-0.1,0.4s-0.2,0.3-0.3,0.5c-0.1,0.1-0.1,0.1-0.2,0.2c0,0-0.1,0.1-0.1,0.1
		c0,0-0.1,0.1-0.2,0.1c-0.1,0-0.1,0-0.2,0c-0.2,0-0.4,0-0.6,0c-0.2,0-0.4,0-0.6,0c-0.2,0-0.5,0.1-0.7,0.1c-0.3,0-0.5,0.1-0.7,0.1
		c0,0-0.1,0-0.2,0c-0.1,0-0.1,0-0.2,0c-0.1,0-0.1-0.1-0.2-0.3s-0.2-0.4-0.2-0.6c-0.1-0.2-0.1-0.4-0.2-0.6c-0.1-0.2-0.1-0.4-0.1-0.4
		c0,0,0-0.1,0-0.1c0,0,0.1,0,0.2,0c0.2,0,0.5,0,0.7,0.1s0.4,0.1,0.7,0.1c0.1,0,0.2,0,0.4,0c0.1,0,0.3-0.1,0.4-0.1
		c0.1-0.1,0.2-0.1,0.3-0.2c0.1-0.1,0.2-0.2,0.2-0.3c0-0.2,0-0.4-0.1-0.6c0-0.2-0.1-0.4-0.1-0.5c0-0.2,0-0.4,0-0.6c0-0.2,0-0.4,0-0.6
		c0-0.2,0-0.5,0-0.7c0-0.2,0-0.4,0-0.7s0-0.4,0.1-0.7c0-0.2,0.1-0.4,0.1-0.7c0-0.1,0-0.3,0-0.6c0-0.3,0-0.5,0-0.8
		c0-0.3-0.1-0.5-0.1-0.7c0-0.2-0.1-0.4-0.1-0.4c0,0-0.2-0.1-0.5-0.1s-0.5-0.1-0.9-0.1s-0.6,0-0.9,0c-0.3,0-0.5,0-0.6,0
		c-0.2,0-0.5,0-0.7,0.1s-0.5,0.1-0.8,0.1c-0.3,0-0.5,0-0.8-0.1s-0.5-0.1-0.8-0.1c-0.4,0-0.8,0-1.1,0c-0.4,0-0.8,0-1.1,0
		c-0.1,0-0.2,0-0.2,0c-0.1,0-0.1,0-0.2-0.1c0,0-0.1-0.1-0.1-0.3c0-0.1,0-0.3,0-0.5c0-0.2,0-0.3,0-0.5s0-0.3,0-0.3c0-0.1,0-0.2,0-0.3
		c0-0.1,0.1-0.1,0.2-0.1c0.2,0,0.4,0,0.5,0c0.2,0,0.4,0,0.6,0c0.3,0,0.7,0,1-0.1c0.3-0.1,0.7-0.1,1-0.1c0.3,0,0.7,0,1,0.1
		s0.7,0.1,1,0.1c0.3,0,0.6,0,0.9,0s0.6,0,1,0c0.2,0,0.4,0,0.5,0c0.2,0,0.4,0,0.5,0c0.2,0,0.4,0,0.6-0.1c0.2,0,0.4-0.1,0.7-0.1
		c0.3,0,0.5,0,0.8,0.1s0.5,0.1,0.8,0.1c0.2,0,0.4,0,0.6,0s0.4,0,0.6,0c0.1,0,0.2,0,0.2,0.1c0,0.1,0,0.1,0,0.2c0,0.1,0,0.2,0,0.4
		s0,0.4,0,0.6c0,0.2-0.1,0.4-0.1,0.5s-0.1,0.2-0.3,0.2c-0.1,0-0.3,0-0.4,0C35.9,82.6,35.8,82.6,35.6,82.6z M25.2,84.3
		c0-0.2,0-0.3,0-0.4c0-0.1,0.1-0.2,0.3-0.2c0.5,0,0.9,0,1.4,0.1s0.9,0.1,1.4,0.1c0.4,0,0.7,0,1.1-0.1c0.4,0,0.7-0.1,1.1-0.1
		c0.1,0,0.2,0,0.3,0c0.2,0,0.3,0,0.3,0.1c0.1,0.1,0.1,0.2,0.2,0.5c0,0.3,0.1,0.6,0.1,0.9c0,0.3,0,0.6,0,0.9c0,0.3,0,0.5,0,0.6
		c0,0.2,0,0.5,0,0.7s-0.1,0.5-0.1,0.7c0,0.2,0,0.4,0,0.5c0,0.2,0,0.4-0.1,0.5c0,0.1-0.2,0.2-0.5,0.3s-0.6,0.1-1,0.1
		c-0.4,0-0.7,0-1.1,0s-0.7,0-1,0c-0.1,0-0.1,0-0.2,0s-0.1,0-0.2,0c0,0,0,0,0,0.1c0,0,0,0.1,0,0.1c0,0.1,0,0.2,0,0.3
		c0,0.1,0,0.2,0,0.3c0,0.1-0.1,0.1-0.2,0.2c-0.2,0-0.3,0.1-0.5,0.1c-0.2,0-0.4,0-0.6,0c-0.2,0-0.3,0-0.4,0c-0.2,0-0.3,0-0.3-0.1
		s-0.1-0.1-0.1-0.2c0-0.1,0-0.2,0-0.3c0-0.1,0-0.2,0-0.4c0-0.3,0-0.5,0.1-0.8c0-0.3,0.1-0.5,0.1-0.8c0-0.2,0-0.5,0-0.7
		c0-0.2-0.1-0.5-0.1-0.7c0-0.2,0-0.5,0-0.7s0-0.5,0-0.7V84.3z M28.1,85.7c-0.1,0-0.2,0-0.3,0s-0.2,0-0.3,0s-0.2,0-0.2,0.1
		c-0.1,0-0.1,0.1-0.1,0.2c0,0.1,0,0.2,0,0.3c0,0.1,0,0.3,0,0.4c0,0.1,0,0.3,0.1,0.4s0.1,0.2,0.2,0.2c0.1,0,0.2,0,0.3,0
		c0.1,0,0.2,0,0.3,0h0.3c0.1,0,0.2,0,0.3,0s0.2,0,0.3,0s0.2-0.1,0.2-0.1s0.1-0.1,0.1-0.3v-0.5c0-0.2,0-0.3,0-0.5
		c0-0.1-0.1-0.2-0.1-0.2s-0.1-0.1-0.3-0.1c-0.1,0-0.3,0-0.4,0H28.1z"/>
	<path class="st1" d="M47.2,83.3c0,0.1,0,0.1,0.1,0.2c0,0.1,0.1,0.2,0.1,0.3s0.1,0.2,0.2,0.2c0.1,0.1,0.1,0.1,0.2,0.1
		c0,0,0.1,0,0.3,0c0.1,0,0.2,0,0.3,0c0.3,0,0.5-0.1,0.6-0.2c0.1-0.1,0.2-0.3,0.2-0.4s0.1-0.3,0.1-0.4s0.1-0.2,0.3-0.2
		c0.1,0,0.2,0,0.4,0.1s0.4,0.1,0.5,0.2c0.2,0.1,0.3,0.2,0.5,0.3c0.1,0.1,0.2,0.2,0.2,0.3c0,0.1,0,0.2,0,0.3c0,0.1,0,0.2-0.1,0.3
		c0,0.1-0.1,0.2-0.1,0.4c0,0.1-0.1,0.3-0.1,0.4c-0.1,0.2-0.3,0.4-0.6,0.6c-0.3,0.1-0.6,0.3-0.9,0.3s-0.7,0.1-1,0.1s-0.6,0-0.8,0
		c-0.1,0-0.2,0-0.3,0c-0.2,0-0.3,0-0.5-0.1c-0.2,0-0.3-0.1-0.5-0.1s-0.2-0.1-0.3-0.1c-0.1-0.1-0.1-0.1-0.2-0.2
		c-0.1-0.1-0.1-0.1-0.2-0.2c-0.1-0.1-0.1-0.2-0.2-0.3c-0.1-0.1-0.1-0.3-0.1-0.4s-0.1-0.3-0.1-0.4S44.9,84,44.8,84
		c-0.1,0-0.2,0-0.4,0.1c-0.1,0-0.3,0.1-0.4,0.2s-0.3,0.1-0.4,0.2s-0.2,0.1-0.3,0.1c-0.1,0-0.1,0-0.1-0.1c0-0.1,0-0.1,0-0.2
		c0-0.1,0-0.2-0.1-0.2s-0.1-0.1-0.3-0.1c-0.4,0-0.9,0-1.3,0.1c-0.4,0.1-0.9,0.1-1.3,0.1c-0.3,0-0.6,0-0.8,0s-0.6,0-0.8,0
		c-0.1,0-0.2,0-0.2,0c-0.1,0-0.2,0-0.2-0.1c0,0-0.1-0.1-0.1-0.2s-0.1-0.3-0.1-0.4c0-0.1,0-0.3-0.1-0.4c0-0.1,0-0.2,0-0.3
		c0-0.2,0-0.3,0.1-0.3s0.2,0,0.3-0.1c0.1,0,0.3-0.1,0.4-0.2c0.1-0.1,0.3-0.3,0.4-0.6c0-0.1,0.1-0.2,0.1-0.4c0.1-0.2,0.1-0.4,0.2-0.6
		c0.1-0.2,0.1-0.4,0.2-0.6s0.1-0.3,0.1-0.3s0.1,0,0.1,0c0,0,0.1,0,0.1,0c0.1,0,0.2,0,0.4,0c0.2,0,0.4,0.1,0.6,0.1
		c0.2,0,0.4,0.1,0.6,0.1c0.2,0,0.3,0.1,0.3,0.1c0,0.1,0,0.2-0.1,0.4c-0.1,0.2-0.2,0.4-0.3,0.6s-0.2,0.4-0.3,0.6
		C41.1,81.7,41,81.9,41,82c0,0,0,0.1,0,0.1c0.1,0.1,0.2,0.1,0.3,0.1s0.2,0,0.3,0c0.2,0,0.4,0,0.5-0.1c0-0.1-0.1-0.3-0.2-0.4
		c-0.1-0.1-0.1-0.3-0.1-0.3c0-0.1,0.1-0.1,0.2-0.2s0.3-0.2,0.5-0.3s0.4-0.2,0.5-0.2c0.2-0.1,0.3-0.1,0.3-0.1c0.1,0,0.3,0.1,0.5,0.4
		c0.2,0.3,0.3,0.6,0.5,1s0.3,0.7,0.5,1.1s0.2,0.6,0.3,0.7l0,0v0c0-0.2,0-0.4,0-0.5c0-0.2,0-0.3,0-0.5c0-0.8,0-1.6,0-2.4
		c0-0.1,0-0.1,0-0.2s0-0.1,0-0.2c0-0.1,0.1-0.2,0.2-0.2s0.3-0.1,0.4-0.1c0.2,0,0.3,0,0.5,0c0.1,0,0.3,0,0.4,0c0.2,0,0.3,0.1,0.3,0.3
		c0,0.2,0.1,0.4,0.1,0.6s0,0.4,0,0.6s0.1,0.3,0.2,0.3c0,0,0.1,0,0.3-0.2c0.2-0.1,0.4-0.2,0.6-0.3c0.2-0.1,0.4-0.2,0.6-0.3
		c0.2-0.1,0.4-0.1,0.5-0.1l0.1,0c0.1,0,0.1,0.1,0.2,0.2s0.2,0.3,0.3,0.4c0.1,0.2,0.2,0.3,0.3,0.4c0.1,0.1,0.1,0.2,0.1,0.3
		c0,0.1-0.1,0.2-0.4,0.3s-0.6,0.2-1,0.3c-0.4,0.1-0.7,0.2-1,0.3c-0.3,0.1-0.6,0.2-0.7,0.3l-0.1,0.1L47.2,83.3z M39.9,84.5
		c0.3,0,0.5,0,0.8,0.1c0.3,0,0.5,0.1,0.8,0.1c0.4,0,0.8,0.1,1.2,0c0.4,0,0.8,0,1.2,0c0.1,0,0.1,0,0.2,0.1c0,0,0,0.2,0.1,0.5
		c0,0.3,0,0.6,0.1,1c0,0.4,0,0.7,0.1,1c0,0.3,0,0.5,0,0.6c0,0.4,0,0.8,0,1.2c0,0.2,0,0.4-0.1,0.8s-0.1,0.7-0.2,1.1
		c-0.1,0.4-0.2,0.7-0.3,1s-0.2,0.5-0.4,0.6c-0.1,0-0.2,0.1-0.3,0.1s-0.3,0-0.4,0.1c-0.2,0-0.3,0-0.5,0c-0.1,0-0.3,0-0.3,0
		c-0.1,0-0.1,0-0.2,0c-0.1,0-0.1,0-0.2-0.1c-0.1,0-0.1-0.1-0.2-0.3s-0.1-0.3-0.2-0.5c-0.1-0.2-0.1-0.3-0.2-0.5s-0.1-0.3-0.1-0.3
		c0-0.1,0-0.1,0.1-0.2c0.1,0,0.2-0.1,0.3-0.1s0.2,0,0.4,0c0.1,0,0.2,0,0.3,0c0,0,0.1-0.1,0.1-0.1s0-0.1,0-0.2c0,0,0-0.1,0-0.2
		l-0.1-0.1c0,0-0.1,0-0.1,0c-0.3,0-0.6,0-0.8,0c-0.2,0-0.3,0.1-0.4,0.2c-0.1,0.1-0.1,0.2-0.2,0.3c0,0.2,0,0.4,0,0.6
		c0,0.2,0,0.4,0,0.5s0,0.4,0,0.6c0,0.1-0.1,0.1-0.2,0.2c-0.1,0-0.3,0.1-0.5,0.1c-0.2,0-0.4,0-0.6,0c-0.2,0-0.3,0-0.4,0
		c-0.1,0-0.1,0-0.2,0c-0.1,0-0.1-0.1-0.1-0.2c0-0.2,0-0.3,0-0.5c0-0.2,0-0.3,0-0.5c0-0.2,0-0.4-0.1-0.7s-0.1-0.4-0.1-0.7
		c0-0.3,0-0.5,0.1-0.8c0.1-0.3,0.1-0.6,0.1-0.8c0-0.4,0-0.8-0.1-1.2c0-0.4,0-0.8,0-1.2c0,0,0-0.1,0-0.3s0-0.3,0-0.5
		c0-0.2,0-0.3,0-0.5s0-0.2,0.1-0.3c0,0,0.1-0.1,0.2-0.1s0.2,0,0.3,0H39.9z M40.8,86.3c-0.1,0-0.1,0-0.2,0s-0.1,0-0.1,0.1
		c0,0,0,0.1,0,0.2c0,0.1,0,0.1,0,0.2c0,0.1,0.1,0.1,0.2,0.1c0.1,0,0.1,0,0.2,0c0.2,0,0.4,0,0.6,0c0.2,0,0.4,0,0.6,0l0.1-0.1l0-0.1
		l0-0.1L42,86.4c-0.1,0-0.2,0-0.2,0H40.8z M42.1,88.7l0-0.2l0-0.1L42,88.3c-0.1,0-0.1-0.1-0.2-0.1h-0.9c-0.1,0-0.2,0-0.3,0.1
		c0,0-0.1,0.1-0.1,0.2c0,0.1,0,0.2,0.1,0.2c0,0,0.1,0,0.3,0c0.2,0,0.4,0,0.6,0C41.6,88.8,41.8,88.8,42.1,88.7L42.1,88.7z M45,86.7
		c0-0.2,0-0.3,0-0.4s0.1-0.2,0.1-0.2c0.1,0,0.1,0,0.3,0s0.2,0,0.4,0c0.4,0,0.7,0,0.9,0c0.2,0,0.3,0.1,0.4,0.2s0.1,0.2,0,0.4
		s0,0.5,0,0.8c0,0.1,0,0.2,0.1,0.2c0,0,0,0,0.1,0c0.1,0,0.2-0.1,0.4-0.2c0.2-0.1,0.4-0.2,0.6-0.3c0.2-0.1,0.4-0.2,0.6-0.3
		c0.2-0.1,0.3-0.1,0.4-0.1c0.1,0,0.2,0.1,0.3,0.2s0.3,0.2,0.4,0.4c0.1,0.1,0.2,0.3,0.3,0.4c0.1,0.1,0.2,0.2,0.2,0.3
		c0,0.1-0.1,0.2-0.2,0.2c-0.1,0.1-0.2,0.1-0.3,0.1c-0.1,0-0.2,0.1-0.3,0.1c-0.1,0-0.2,0.1-0.3,0.1c-0.2,0.1-0.4,0.2-0.6,0.3
		c-0.2,0.1-0.4,0.2-0.6,0.3c-0.2,0.1-0.4,0.1-0.5,0.2c-0.1,0-0.3,0.1-0.3,0.1s-0.1,0.1-0.2,0.2c0,0.1-0.1,0.3-0.1,0.5
		c0,0,0,0.1,0.1,0.2c0,0.1,0.1,0.2,0.1,0.3s0.1,0.2,0.2,0.2c0.1,0.1,0.1,0.1,0.2,0.1c0.1,0,0.2,0,0.3,0s0.3,0,0.4,0
		c0.1,0,0.3,0,0.4-0.1c0.1,0,0.2-0.1,0.2-0.1c0.1-0.1,0.1-0.2,0.2-0.3c0-0.1,0.1-0.3,0.1-0.4c0-0.1,0.1-0.2,0.1-0.3
		c0.1-0.1,0.1-0.1,0.3-0.1c0.1,0,0.2,0,0.4,0.1s0.4,0.1,0.5,0.2c0.2,0.1,0.4,0.1,0.5,0.2c0.1,0.1,0.2,0.2,0.2,0.3
		c0,0.1,0,0.3-0.1,0.5c-0.1,0.2-0.2,0.5-0.3,0.7c-0.1,0.2-0.2,0.5-0.3,0.7c-0.1,0.2-0.2,0.3-0.3,0.4c0,0-0.1,0.1-0.2,0.1
		c-0.1,0-0.3,0-0.4,0.1s-0.3,0-0.4,0s-0.2,0-0.3,0c-0.2,0-0.5,0-0.8,0c-0.4,0-0.8-0.1-1.2-0.1s-0.8-0.2-1.1-0.3
		c-0.3-0.1-0.5-0.3-0.6-0.5c-0.1-0.2-0.1-0.4-0.1-0.7s0-0.5,0-0.7v-1.2c0-0.3,0-0.6-0.1-1c-0.1-0.3-0.1-0.6-0.1-1V86.7z"/>
	<path class="st1" d="M64.5,90.4c0.2,0,0.3,0,0.4,0s0.2,0.1,0.2,0.1s0.1,0.2,0.1,0.3s0,0.3,0,0.5c0,0.1,0,0.3,0,0.4s0,0.3-0.1,0.4
		c0,0.1-0.2,0.1-0.5,0.1s-0.6,0.1-1,0.1s-0.7,0-1,0s-0.5,0-0.6,0c-0.2,0-0.5,0-0.7,0s-0.5,0-0.7,0c-0.5,0-1,0-1.4,0.1
		s-0.9,0.1-1.4,0.1c-0.1,0-0.3,0-0.4,0s-0.3,0-0.4,0c-0.2,0-0.4,0-0.5-0.1s-0.2-0.1-0.2-0.2s-0.1-0.2-0.1-0.3c0-0.1,0-0.3,0-0.5
		c0-0.2,0-0.3,0-0.4c0-0.1,0-0.2,0-0.3c0-0.1,0.1-0.2,0.2-0.2c0.1,0,0.2-0.1,0.4-0.1c0.4,0,0.8,0,1.3,0.1c0.4,0,0.8,0.1,1.3,0.1
		c0.1,0,0.2,0,0.3,0s0.2,0,0.2-0.1c0,0,0-0.1,0.1-0.2s0-0.2,0-0.4s0-0.3,0-0.4s0-0.2,0-0.3c0-0.3,0-0.5,0-0.7s0-0.3-0.1-0.4
		S59.5,88,59.4,88s-0.4,0-0.7,0c-0.2,0-0.3,0-0.5,0s-0.3,0-0.5,0c-0.2,0-0.3,0-0.3-0.1c-0.1,0-0.1-0.2-0.1-0.3c0-0.5,0-0.8,0-1.1
		s0.1-0.4,0.2-0.4s0.3-0.1,0.6-0.1c0.3,0,0.7,0,1.2,0c0.1,0,0.1,0,0.2,0s0.1,0,0.1-0.1c0-0.1,0.1-0.2,0.1-0.3s0-0.3,0.1-0.4
		s0-0.3,0-0.5s0-0.3,0-0.3c0,0,0-0.1,0-0.2s-0.1-0.1-0.1-0.1c-0.4,0-0.7,0.1-0.9,0.2s-0.3,0.3-0.4,0.5c-0.1,0.2-0.2,0.4-0.2,0.5
		c-0.1,0.2-0.2,0.2-0.3,0.2c-0.1,0-0.2,0-0.3-0.1c-0.2-0.1-0.3-0.1-0.5-0.2s-0.3-0.2-0.5-0.2c-0.1-0.1-0.2-0.2-0.2-0.2
		c0-0.1,0-0.2,0.1-0.3c0-0.1,0.1-0.2,0.1-0.3c-0.1,0-0.2,0.1-0.3,0.1s-0.2,0.1-0.3,0.1c0-0.1-0.1-0.2-0.1-0.3s0-0.2-0.1-0.2
		c0,0.1,0,0.2-0.1,0.3s-0.1,0.2-0.1,0.4s-0.1,0.2-0.1,0.4c0,0.1,0,0.2,0,0.3c0,0.2,0,0.4,0.1,0.7c0.1,0.2,0.1,0.5,0.1,0.7
		c0,0.3,0,0.6-0.1,0.9s-0.1,0.6-0.1,1c0,0.2,0,0.4,0,0.7c0,0.2,0,0.4,0,0.6c0,0.2,0,0.5,0,0.7c0,0.2,0,0.5,0,0.7
		c0,0.2,0,0.4,0.1,0.6c0,0.2,0.1,0.4,0.1,0.6c0,0.1,0,0.2-0.1,0.2c-0.1,0-0.1,0.1-0.2,0.1c-0.1,0-0.2,0-0.3,0c-0.1,0-0.2,0-0.2,0
		c-0.3,0-0.6,0-0.8,0c-0.2,0-0.3,0-0.4-0.1s-0.2-0.2-0.2-0.4c0-0.2,0-0.4,0-0.8c0-0.4,0-0.8,0.1-1.1c0.1-0.4,0.1-0.8,0.1-1.1
		c0-0.2,0-0.4,0-0.6s0-0.4,0-0.6c0-0.5,0-1,0-1.4c0-0.5,0-1-0.1-1.4c0,0.1,0,0.1,0,0.3c0,0.1,0,0.2,0,0.4c0,0.1,0,0.2-0.1,0.3
		s-0.1,0.1-0.2,0.1c-0.1,0-0.2,0-0.3,0s-0.3-0.1-0.4-0.1c-0.1,0-0.3-0.1-0.4-0.2c-0.1-0.1-0.2-0.1-0.2-0.2c0-0.1,0-0.3,0.1-0.5
		s0.1-0.3,0.1-0.5c0.1-0.3,0.1-0.6,0.2-0.9c0-0.3,0.1-0.6,0.1-1c0,0,0-0.1,0-0.2s0-0.2,0-0.2s0-0.1,0.1-0.2s0.1-0.1,0.2-0.1
		c0.1,0,0.2,0,0.3,0s0.2,0,0.3,0c0.1,0,0.1,0,0.1-0.1c0-0.1,0-0.2,0-0.3s0-0.2,0-0.3c0-0.1,0-0.2,0-0.2c0-0.2,0-0.3,0-0.5
		c0-0.1,0-0.3,0.1-0.5c0-0.1,0-0.1,0-0.2c0-0.1,0-0.1,0-0.2c0-0.1,0.1-0.2,0.2-0.2s0.3-0.1,0.4-0.1c0.1,0,0.3,0,0.4,0s0.3,0,0.3,0
		s0.2,0,0.3,0s0.2,0.1,0.2,0.2c0,0.2,0,0.3,0,0.5s0,0.3,0,0.5c0,0.1,0,0.1,0,0.3c0,0.1,0,0.3,0,0.4c0,0.1,0,0.3,0.1,0.4
		c0,0.1,0,0.2,0.1,0.3c0,0,0,0,0.1,0c0.1,0,0.2,0,0.3-0.1S56,82,56.1,82c0.1,0,0.1,0.1,0.2,0.2c0.1,0.1,0.1,0.2,0.2,0.4
		s0.1,0.3,0.1,0.4s0.1,0.2,0.1,0.3c0.1-0.1,0.1-0.3,0.2-0.6s0.1-0.6,0.2-1c0.1-0.3,0.1-0.6,0.2-0.9s0.1-0.4,0.2-0.4c0,0,0.1,0,0.2,0
		c0.1,0,0.1,0,0.2,0c0.1,0,0.2,0,0.4,0c0.2,0,0.4,0,0.5,0.1c0.2,0,0.3,0.1,0.5,0.1s0.2,0.1,0.2,0.2c0,0.1,0,0.3-0.1,0.4
		s-0.1,0.2-0.1,0.4s-0.1,0.2-0.1,0.4s0,0.3,0,0.4c0,0,0,0,0,0.1s0,0,0.1,0.1c0.1,0,0.1,0,0.2,0s0.1,0,0.2,0c0.1,0,0.1-0.1,0.2-0.2
		s0.1-0.2,0.1-0.4s0-0.3,0-0.4s0-0.2,0-0.3c0-0.2,0-0.3,0-0.5s0-0.4,0-0.5c0-0.1,0.1-0.2,0.2-0.2s0.3-0.1,0.5-0.1s0.3,0,0.5,0
		s0.3,0,0.4,0c0,0,0.1,0,0.2,0s0.1,0,0.2,0c0.1,0,0.1,0.2,0.2,0.4s0,0.5,0,0.8s0,0.6,0,0.8s0.1,0.4,0.1,0.5c0,0,0.1,0,0.2,0.1
		s0.2,0,0.3,0s0.2,0,0.3,0s0.2,0,0.2,0c0.2,0,0.4,0,0.6-0.1s0.4-0.1,0.6-0.1c0.1,0,0.1,0,0.2,0.1s0.1,0.1,0.1,0.2s0,0.1,0,0.2
		s0,0.1,0,0.2c0,0.1,0,0.2,0,0.3s0,0.3,0,0.4s0,0.3-0.1,0.4s-0.1,0.2-0.2,0.2c0,0-0.1,0-0.2,0s-0.1,0-0.2,0
		c-0.2,0.1-0.4,0.1-0.6,0.1s-0.4,0-0.6,0c-0.1,0-0.2,0-0.3,0s-0.2,0-0.3,0.1c0,0-0.1,0.1-0.1,0.3s0,0.3-0.1,0.5s0,0.3,0,0.5
		s0,0.3,0,0.3c0,0.2,0.1,0.3,0.2,0.3s0.3,0.1,0.5,0.1s0.4,0,0.6,0s0.4,0,0.5,0c0.2,0,0.3,0,0.4,0s0.1,0.1,0.1,0.3c0,0.4,0,0.7,0,0.9
		s0,0.3-0.1,0.4S64,88,63.8,88s-0.4,0-0.7,0c-0.1,0-0.2,0-0.3,0s-0.3,0-0.4,0s-0.3,0-0.4,0.1s-0.2,0.1-0.2,0.2c0,0.1,0,0.2,0,0.4
		s0,0.4,0,0.7s0,0.5,0,0.6s0,0.3,0,0.3c0.1,0,0.1,0,0.2,0s0.1,0,0.2,0c0.4,0,0.8,0,1.1,0S64.2,90.4,64.5,90.4z"/>
	<path class="st1" d="M74.4,83.8c0,0,0.1,0,0.2,0.1s0.2,0.1,0.4,0.1s0.2,0.1,0.4,0.2s0.2,0.1,0.2,0.1c0.3,0.1,0.5,0.3,0.8,0.4
		s0.5,0.3,0.8,0.5s0.5,0.4,0.7,0.6s0.4,0.5,0.5,0.7c0,0,0,0.1,0.1,0.3s0,0.3,0.1,0.5s0,0.3,0,0.5s0,0.3,0,0.3c0,0.7-0.1,1.3-0.3,1.8
		s-0.6,1-1.2,1.4c-0.1,0.1-0.2,0.2-0.4,0.3s-0.3,0.2-0.4,0.2c-0.2,0.1-0.4,0.1-0.5,0.2s-0.4,0.1-0.6,0.1c-0.1,0-0.3,0.1-0.4,0.1
		s-0.3,0.1-0.4,0.1c-0.1,0-0.2-0.1-0.4-0.2s-0.3-0.3-0.4-0.5s-0.2-0.4-0.3-0.6S73,90.8,73,90.7c0-0.1,0-0.2,0.1-0.2s0.1-0.1,0.2-0.1
		c0.1,0,0.2-0.1,0.4-0.1s0.3,0,0.5-0.1s0.3,0,0.5-0.1s0.3-0.1,0.3-0.1c0.1-0.1,0.3-0.2,0.4-0.3s0.3-0.3,0.5-0.5s0.3-0.4,0.4-0.6
		s0.1-0.4,0.1-0.5c0-0.1-0.1-0.2-0.1-0.4s-0.2-0.4-0.3-0.5s-0.2-0.4-0.3-0.5s-0.2-0.2-0.3-0.2c0,0-0.1,0-0.1,0.1s-0.1,0.2-0.2,0.3
		s-0.1,0.2-0.2,0.3s-0.1,0.2-0.1,0.2c-0.2,0.3-0.4,0.7-0.7,1s-0.5,0.6-0.7,0.9c-0.1,0.2-0.3,0.3-0.4,0.5s-0.3,0.3-0.4,0.5
		c0,0,0,0.1,0,0.2s0,0.2,0,0.3s0,0.2,0,0.2s0,0.1-0.1,0.1c-0.1,0-0.2,0.1-0.4,0.1s-0.3,0-0.4,0c-0.2,0-0.4,0-0.7,0.1
		s-0.5,0.1-0.7,0.1s-0.5,0.1-0.7,0.1s-0.4,0-0.6,0c-0.1,0-0.2,0-0.3-0.1s-0.3-0.1-0.5-0.1s-0.3-0.1-0.5-0.2s-0.2-0.1-0.3-0.2
		c0,0-0.1-0.1-0.1-0.3s-0.1-0.3-0.2-0.5s-0.1-0.3-0.1-0.5s-0.1-0.3-0.1-0.3c0-0.2,0-0.3,0.1-0.5s0.1-0.4,0.1-0.5
		c0-0.1,0.1-0.3,0.3-0.5s0.3-0.5,0.5-0.8s0.4-0.5,0.5-0.8s0.3-0.4,0.4-0.4s0.2-0.1,0.3-0.2s0.3-0.1,0.4-0.2s0.3-0.2,0.4-0.2
		S70,85,70,84.9c0.1-0.1,0.1-0.2,0.1-0.3s0-0.3,0-0.4c0,0,0-0.1,0-0.2s0-0.1,0-0.2s0-0.1,0-0.2s0-0.1,0-0.1c0,0-0.1-0.1-0.3-0.1
		s-0.3,0-0.5,0s-0.4,0-0.6,0s-0.4,0-0.6-0.1s-0.4-0.1-0.5-0.2s-0.2-0.2-0.2-0.3c0-0.1,0-0.2,0-0.3s0-0.3,0-0.4s0-0.3,0.1-0.4
		s0.1-0.2,0.2-0.2c0.2,0,0.3,0,0.5,0.1s0.3,0.1,0.5,0.1c0.1,0,0.2,0,0.4,0s0.3,0,0.5,0.1s0.3,0,0.5,0s0.3,0,0.3-0.1c0,0,0-0.1,0-0.2
		s0-0.1,0-0.2s0-0.1,0-0.2s0.1-0.1,0.1-0.2c0.1,0,0.2-0.1,0.3-0.1s0.3,0,0.5,0s0.3,0,0.5,0s0.3,0,0.3,0c0.1,0,0.1,0,0.2,0.1
		s0,0.1,0.1,0.2s0,0.1,0,0.2s0,0.1,0,0.2l0.1,0.1c0.1,0,0.2,0,0.2,0c0.4,0,0.9,0,1.4-0.1s1-0.2,1.4-0.3c0.2,0,0.5-0.1,0.7-0.2
		s0.5-0.1,0.7-0.1c0.1,0,0.2,0,0.2,0.1s0.1,0.2,0.1,0.3s0,0.2,0,0.3s0,0.2,0,0.2c0,0.1,0,0.1,0,0.2s0,0.2,0,0.3s0,0.2,0,0.3
		s0,0.1-0.1,0.2c-0.1,0.1-0.2,0.2-0.5,0.2s-0.6,0.1-0.9,0.1s-0.7,0.1-1.1,0.1s-0.7,0-1.1,0.1s-0.6,0.1-0.8,0.1s-0.4,0.1-0.4,0.2
		c0,0.1,0,0.2,0,0.3s0,0.3,0,0.3c0,0.1,0,0.1,0.1,0.1s0.1,0,0.2,0c0.3,0,0.7-0.1,1-0.2s0.7-0.3,1-0.4L74.4,83.8z M70.1,88.9
		c0-0.1,0-0.2,0-0.4s0-0.4,0-0.6s0-0.4-0.1-0.5s-0.1-0.2-0.1-0.2c0,0-0.1,0-0.2,0.1s-0.2,0.1-0.2,0.2c-0.2,0.2-0.4,0.5-0.6,0.7
		s-0.2,0.5-0.2,0.9c0,0.1,0.1,0.2,0.2,0.3s0.2,0.2,0.3,0.2c0.3,0,0.5-0.1,0.7-0.2S70.1,89.2,70.1,88.9z M73.1,86c-0.1,0-0.2,0-0.4,0
		s-0.3,0.1-0.5,0.1s-0.3,0.1-0.4,0.2s-0.2,0.2-0.2,0.3c0,0.2,0,0.4,0.1,0.5s0.1,0.4,0.1,0.5c0,0,0,0,0,0.1s0,0.1,0,0.1s0,0.1,0,0.1
		s0,0,0.1,0c0.1-0.1,0.2-0.2,0.3-0.3s0.3-0.4,0.4-0.6s0.2-0.4,0.3-0.6s0.1-0.3,0.1-0.4c0,0,0-0.1,0-0.1H73.1z"/>
	<path class="st1" d="M82.3,80.9c0-0.1,0-0.2,0.1-0.3s0.1-0.1,0.1-0.2c0-0.1,0.1-0.1,0.2-0.2c0.3,0,0.6,0,0.9-0.1s0.6-0.1,0.9-0.1
		c0.2,0,0.3,0.1,0.3,0.2c0,0.1,0,0.3-0.1,0.5s-0.1,0.3-0.2,0.5s-0.1,0.3-0.2,0.5s-0.1,0.3-0.1,0.5v0c0,0,0,0,0.1,0
		c0,0,0.1,0,0.2-0.1s0.2-0.1,0.3-0.2s0.2-0.1,0.3-0.2s0.1-0.1,0.2-0.1c0.1-0.1,0.3-0.1,0.5-0.2s0.5-0.2,0.7-0.2s0.5-0.1,0.7-0.2
		s0.4-0.1,0.5-0.1c0.4,0,0.8,0.1,1.1,0.3s0.7,0.4,0.9,0.7s0.5,0.6,0.7,0.9s0.4,0.7,0.5,1c0,0.1,0.1,0.2,0.1,0.4s0.1,0.4,0.1,0.5
		s0,0.4,0,0.6s0,0.3,0,0.4c0,0.2,0,0.5-0.1,0.8s-0.1,0.5-0.2,0.7c-0.1,0.6-0.3,1.2-0.5,1.6s-0.5,0.9-0.8,1.2s-0.7,0.7-1.1,0.9
		s-0.9,0.5-1.5,0.8c-0.1,0-0.2,0.1-0.4,0.2s-0.4,0.1-0.6,0.2s-0.4,0.1-0.6,0.2s-0.3,0.1-0.4,0.1c-0.1,0-0.2-0.1-0.3-0.2
		s-0.2-0.3-0.3-0.5s-0.2-0.4-0.3-0.6s-0.1-0.3-0.1-0.4c0-0.1,0-0.1,0.1-0.1s0.1-0.1,0.1-0.1c0.3-0.1,0.6-0.2,1-0.3s0.6-0.2,1-0.4
		c0.4-0.2,0.8-0.4,1.1-0.6s0.6-0.5,0.9-0.8s0.4-0.6,0.6-1s0.2-0.8,0.2-1.3c0-0.1,0-0.3-0.1-0.5s-0.1-0.5-0.2-0.8s-0.1-0.5-0.2-0.7
		s-0.1-0.4-0.2-0.5c-0.1-0.1-0.2-0.2-0.3-0.3s-0.2-0.2-0.3-0.2c-0.1,0-0.1-0.1-0.3-0.2S87,82.7,87,82.7c-0.1,0-0.2,0-0.3,0.1
		s-0.2,0.2-0.3,0.2c-0.5,0.4-0.9,0.8-1.2,1.4s-0.5,1.1-0.7,1.7c0,0.2-0.1,0.3-0.2,0.5s-0.1,0.3-0.1,0.5c0,0.2,0,0.4,0,0.6
		s0,0.4-0.1,0.6c0,0.1,0,0.1-0.1,0.2c-0.1,0.1-0.2,0.1-0.4,0.1s-0.3,0-0.4,0c-0.1,0-0.3,0-0.4,0s-0.3,0-0.4-0.1
		c0-0.1-0.1-0.2-0.1-0.4s-0.1-0.4-0.2-0.6S82,86.8,82,86.6s0-0.4,0-0.4c0-0.3,0-0.5,0.1-0.8s0.1-0.5,0.1-0.7c0-0.2,0-0.5-0.1-0.7
		S82,83.6,82,83.3c0-0.1,0-0.3,0.1-0.5s0.1-0.4,0.1-0.7s0.1-0.5,0.1-0.7S82.3,81,82.3,80.9z"/>
</g>
<path class="st3" d="M88.2,48c-0.5,3.1-3.4,5.2-6.5,4.7s-5.2-3.4-4.7-6.5c0.5-3.1,3.4-5.2,6.5-4.7c0,0,0,0,0,0
	C86.6,42,88.7,44.9,88.2,48z M82.1,17.8L80,37c-0.1,0.9,0.5,1.7,1.4,1.9l4.7,0.7c0.9,0.1,1.8-0.4,1.9-1.3l4-19
	c0.2-0.9-0.4-1.8-1.3-2c0,0-0.1,0-0.1,0l-6.6-1C83.2,16.1,82.3,16.7,82.1,17.8C82.1,17.7,82.1,17.7,82.1,17.8z"/>
</svg>
