<svg xmlns="http://www.w3.org/2000/svg" width="116" height="100" viewBox="0 0 116 100"><defs><style>.a{fill:#e6e403;}.b,.c{fill:#393723;}.c{font-size:13px;font-family:'\30 7TetsubinGothic';}.d{fill:#f45151;}.e,.f{stroke:none;}.f{fill:#393723;}</style></defs><g class="a"><path class="e" d="M 100.3757553100586 99.5 L 15.62425327301025 99.5 C 12.54782485961914 99.5 9.79439640045166 97.90848541259766 8.258824348449707 95.24268341064453 C 6.72325325012207 92.57689666748047 6.727982044219971 89.39659881591797 8.271481513977051 86.73539733886719 L 50.64723968505859 13.67375564575195 C 52.18544006347656 11.02168464660645 54.93412399291992 9.438356399536133 57.99999618530273 9.438356399536133 C 61.06585311889648 9.438356399536133 63.81455230712891 11.02168464660645 65.35276794433594 13.67375564575195 L 107.7285079956055 86.73539733886719 C 109.2720108032227 89.39659881591797 109.276741027832 92.57689666748047 107.7411651611328 95.24269866943359 C 106.2056121826172 97.90848541259766 103.4521789550781 99.5 100.3757553100586 99.5 Z"/><path class="f" d="M 57.99999618530273 9.9383544921875 C 55.11446762084961 9.9383544921875 52.5274543762207 11.42854309082031 51.07974243164062 13.92461395263672 L 8.703994750976562 86.98624420166016 C 7.251296997070312 89.49091339111328 7.246841430664062 92.48413848876953 8.692085266113281 94.99312591552734 C 10.13732147216797 97.50209808349609 12.72879791259766 99 15.62425231933594 99 L 100.3757400512695 99 C 103.2711944580078 99 105.8626708984375 97.50209808349609 107.3079071044922 94.99312591552734 C 108.7531509399414 92.48413848876953 108.7486953735352 89.49091339111328 107.2959976196289 86.98624420166016 L 64.92025756835938 13.92461395263672 C 63.47252655029297 11.42854309082031 60.8855094909668 9.9383544921875 57.99999618530273 9.9383544921875 M 57.99999237060547 8.938362121582031 C 61.02561950683594 8.938362121582031 64.05125427246094 10.43320465087891 65.7852783203125 13.42289733886719 L 108.1610260009766 86.48452758789062 C 111.6410064697266 92.48451232910156 107.311897277832 100 100.3757400512695 100 L 15.62425231933594 100 C 8.688095092773438 100 4.358978271484375 92.48451232910156 7.838966369628906 86.48452758789062 L 50.21471405029297 13.42289733886719 C 51.94873046875 10.43320465087891 54.97436141967773 8.938362121582031 57.99999237060547 8.938362121582031 Z"/></g><g transform="translate(30 -53.822)"><path class="b" d="M41.794,88.423s-1.958-2.887-2.3-3.389-1.037-2.886-2.188-3.513a26.71,26.71,0,0,0-2.78-1.041,1.187,1.187,0,0,0-1.137-1.092,1.106,1.106,0,0,0-.863.431c-2.583-.838-5.319-1.675-5.819-1.812-.922-.251-4.953-1.632-6.335-1.632a96.469,96.469,0,0,1-9.677-1C8.847,75-2.327,77.255.437,92.187c0,1.883.231,13.929.231,14.306v.376H6.313c1.152,0,.692-.753.692-.753H9.192s.576-1.255,0-1.631A18.642,18.642,0,0,1,7.234,102.6s1.842-4.517,2.3-4.894a26.435,26.435,0,0,0,2.074-3.263h5.529s-1.152,6.526-1.5,7.78-.461,3.765.116,4.392,3.456,0,4.493,0,1.037-1,.461-1.631-.922-2.258.346-4.015c0,0,2.764,5.019,3.34,5.646a2.79,2.79,0,0,0,2.419.879h4.493c.922,0,1.613-1.506.576-2.008a23.12,23.12,0,0,1-3.111-2.259s-2.188-5.773-2.188-6.651,1.037-5.9,1.037-5.9,5.754-.717,6.336-.627c1.612.251,4.262-.5,6.22.25C41.289,90.731,42.025,89.3,41.794,88.423Z"/></g><text class="c" transform="translate(60 71)"><tspan x="-26" y="0">熊出没の</tspan><tspan x="-32.5" y="20">可能性あり</tspan></text><path class="d" d="M12.52,30.767a5.7,5.7,0,1,1-5.7-5.7A5.7,5.7,0,0,1,12.52,30.767ZM1.785,1.795l.969,19.372A1.709,1.709,0,0,0,4.46,22.791H9.185a1.709,1.709,0,0,0,1.707-1.624l.969-19.372A1.709,1.709,0,0,0,10.154,0H3.492A1.709,1.709,0,0,0,1.785,1.795Z" transform="translate(80.634 15.7) rotate(9)"/></svg>