<?xml version="1.0" encoding="utf-8"?>
<!-- Generator: Adobe Illustrator 27.2.0, SVG Export Plug-In . SVG Version: 6.00 Build 0)  -->
<svg version="1.1" id="_x32_" xmlns="http://www.w3.org/2000/svg" xmlns:xlink="http://www.w3.org/1999/xlink" x="0px" y="0px"
	 viewBox="0 0 512 512" style="enable-background:new 0 0 512 512;" xml:space="preserve">
<style type="text/css">
	.st0{fill:#B4B200;}
</style>
<g>
	<path class="st0" d="M149.2,103.5c16,0,29-13,29-29V29c0-16-13-29-29-29s-29,13-29,29v45.6C120.2,90.6,133.2,103.5,149.2,103.5z"/>
	<path class="st0" d="M362.8,103.5c16,0,29-13,29-29V29c0-16-13-29-29-29s-29,13-29,29v45.6C333.8,90.6,346.8,103.5,362.8,103.5z"/>
	<path class="st0" d="M435.2,41.3h-17.9v33.3c0,30-24.4,54.4-54.4,54.4s-54.4-24.4-54.4-54.4V41.3H203.6v33.3
		c0,30-24.4,54.4-54.4,54.4s-54.4-24.4-54.4-54.4V41.3h-18C38.3,41.3,7,72.5,7,111.1v331.2c0,38.5,31.2,69.8,69.8,69.8h358.3
		c38.5,0,69.8-31.2,69.8-69.8V111.1C504.9,72.5,473.7,41.3,435.2,41.3z M450,430c0,17.8-14.5,32.3-32.3,32.3H94.3
		C76.5,462.3,62,447.8,62,430V170.9h388V430L450,430z"/>
</g>
</svg>
