<?xml version="1.0" encoding="utf-8"?>
<!-- Generator: Adobe Illustrator 27.2.0, SVG Export Plug-In . SVG Version: 6.00 Build 0)  -->
<svg version="1.1" id="_x32_" xmlns="http://www.w3.org/2000/svg" xmlns:xlink="http://www.w3.org/1999/xlink" x="0px" y="0px"
	 viewBox="0 0 512 512" style="enable-background:new 0 0 512 512;" xml:space="preserve">
<style type="text/css">
	.st0{fill:#CE8EE7;}
</style>
<g>
	<path class="st0" d="M256,0C114.8,0,0,114.8,0,256c0,141.2,114.8,256,256,256s256-114.8,256-256C512,114.8,397.2,0,256,0z M256,451
		c-107.5,0-195-87.5-195-195c0-107.5,87.5-195,195-195s195,87.5,195,195C451,363.6,363.5,451,256,451z"/>
	<path class="st0" d="M258.4,115.8c-12.8,0-23.2,10.4-23.2,23.2v105l-74,74c-9.1,9.1-9.1,23.7,0,32.8c9.1,9.1,23.7,9.1,32.8,0
		l87.6-87.6v-23.8V139C281.6,126.1,271.2,115.8,258.4,115.8z"/>
</g>
</svg>
