<?xml version="1.0" encoding="utf-8"?>
<!-- Generator: Adobe Illustrator 27.2.0, SVG Export Plug-In . SVG Version: 6.00 Build 0)  -->
<svg version="1.1" id="_x32_" xmlns="http://www.w3.org/2000/svg" xmlns:xlink="http://www.w3.org/1999/xlink" x="0px" y="0px"
	 viewBox="0 0 347.8 512" style="enable-background:new 0 0 347.8 512;" xml:space="preserve">
<style type="text/css">
	.st0{fill:#CE8EE7;}
</style>
<g>
	<path class="st0" d="M173.9,0C77.9,0,0,77.9,0,173.9c0,100.7,80,163.7,123.3,238.7c41.4,71.8,41.4,99.4,50.6,99.4
		s9.2-27.6,50.6-99.4c43.3-75,123.3-138,123.3-238.7C347.8,77.9,269.9,0,173.9,0z M173.9,240.4c-36.7,0-66.5-29.8-66.5-66.5
		c0-36.8,29.8-66.5,66.5-66.5s66.5,29.8,66.5,66.5C240.4,210.6,210.6,240.4,173.9,240.4z"/>
</g>
</svg>
