<svg xmlns="http://www.w3.org/2000/svg" width="95" height="95" viewBox="0 0 95 95"><defs><style>.a{fill:#f2f16e;}.b{fill:#706f6f;font-size:13px;font-family:KiwiMaru-Regular, Kiwi Maru;}.c{fill:#7b8395;}</style></defs><g transform="translate(-231 -2774)"><circle class="a" cx="47.5" cy="47.5" r="47.5" transform="translate(231 2774)"/><text class="b" transform="translate(278 2800)"><tspan x="-19.5" y="0">お</tspan><tspan y="0">食事</tspan><tspan x="-26" y="20">スポット</tspan></text></g><path class="c" d="M9.319,1.928c-3.195,0-5.784,3.021-5.784,6.748a6.621,6.621,0,0,0,4.45,6.567L7.027,30.852a1.8,1.8,0,0,0,1.81,1.924H9.8a1.8,1.8,0,0,0,1.81-1.924l-.958-15.609A6.621,6.621,0,0,0,15.1,8.676c0-3.727-2.59-6.748-5.784-6.748Zm19.441,0-1.607,9.64H25.948l-.8-9.64h-.8l-.8,9.64H22.333l-1.607-9.64h-.8V14.46a.964.964,0,0,0,.964.964H23.4l-.947,15.428a1.8,1.8,0,0,0,1.81,1.924h.964a1.8,1.8,0,0,0,1.81-1.924l-.947-15.428H28.6a.964.964,0,0,0,.964-.964V1.928Z" transform="translate(30.451 53.648)"/></svg>