<svg xmlns="http://www.w3.org/2000/svg" width="95" height="95" viewBox="0 0 95 95"><defs><style>.a{fill:#7b8395;}.b{fill:#f8f7ed;}.c{fill:#fff;font-size:13px;font-family:KiwiMaru-Regular, Kiwi Maru;}.d{fill:#e6e403;}</style></defs><g transform="translate(-231 -2774)"><circle class="a" cx="47.5" cy="47.5" r="47.5" transform="translate(231 2774)"/><path class="b" d="M3.1,2.25A3.035,3.035,0,0,0,0,5.211V26.929A3.035,3.035,0,0,0,3.1,29.89H29.991a3.035,3.035,0,0,0,3.1-2.961V5.211a3.035,3.035,0,0,0-3.1-2.961Zm0,1.974H9.954a.38.38,0,0,1,.388.37V5.828a.38.38,0,0,1-.388.37h-7.5a.38.38,0,0,1-.388-.37V5.211A1.014,1.014,0,0,1,3.1,4.224Zm27.534,5.923H2.456a.38.38,0,0,1-.388-.37V7.556a.38.38,0,0,1,.388-.37h8.92l1.952-2.795a.39.39,0,0,1,.323-.167h16.34a1.014,1.014,0,0,1,1.034.987V9.777A.38.38,0,0,1,30.637,10.147ZM16.547,26.435a7.592,7.592,0,0,1-7.756-7.4,7.592,7.592,0,0,1,7.756-7.4,7.592,7.592,0,0,1,7.756,7.4A7.592,7.592,0,0,1,16.547,26.435Zm0-12.833a5.571,5.571,0,0,0-5.688,5.429,5.571,5.571,0,0,0,5.688,5.429,5.571,5.571,0,0,0,5.688-5.429A5.571,5.571,0,0,0,16.547,13.6Zm-3.1,6.416a1.014,1.014,0,0,1-1.034-.987,4.05,4.05,0,0,1,4.137-3.949.988.988,0,1,1,0,1.974,2.029,2.029,0,0,0-2.068,1.974A1.014,1.014,0,0,1,13.444,20.019Z" transform="translate(261.954 2826.795)"/><text class="c" transform="translate(281 2799)"><tspan x="-19.5" y="0">フォト</tspan><tspan x="-26" y="20">スポット</tspan></text></g><path class="d" d="M15.742,11.154,11.209,8.538l4.534-2.616a.534.534,0,0,0,.2-.729L14.87,3.345a.534.534,0,0,0-.729-.2L9.607,5.765V.534A.534.534,0,0,0,9.073,0H6.937A.534.534,0,0,0,6.4.534V5.765L1.869,3.15a.534.534,0,0,0-.729.2L.072,5.193a.534.534,0,0,0,.2.729L4.8,8.538.267,11.154a.534.534,0,0,0-.2.729L1.14,13.732a.534.534,0,0,0,.729.2L6.4,11.312v5.231a.534.534,0,0,0,.534.534H9.073a.534.534,0,0,0,.534-.534V11.311l4.534,2.616a.534.534,0,0,0,.729-.2l1.068-1.849A.533.533,0,0,0,15.742,11.154Z" transform="translate(51.875 57.463)"/></svg>