<svg xmlns="http://www.w3.org/2000/svg" width="95" height="95" viewBox="0 0 95 95"><defs><style>.a{fill:#ecdcf0;}.b{fill:#393723;font-size:13px;font-family:KiwiMaru-Regular, Kiwi Maru;}.c{fill:#7b8395;}</style></defs><circle class="a" cx="47.5" cy="47.5" r="47.5"/><text class="b" transform="translate(22 66)"><tspan x="0" y="0">お</tspan><tspan y="0">買</tspan><tspan y="0">い</tspan><tspan y="0">物</tspan><tspan x="0" y="18">スポット</tspan></text><path class="c" d="M24.75,11.25V9a9,9,0,0,0-18,0v2.25H0V30.375A5.625,5.625,0,0,0,5.625,36h20.25A5.625,5.625,0,0,0,31.5,30.375V11.25ZM11.25,9a4.5,4.5,0,0,1,9,0v2.25h-9ZM22.5,17.438a1.688,1.688,0,1,1,1.688-1.687A1.687,1.687,0,0,1,22.5,17.438Zm-13.5,0a1.688,1.688,0,1,1,1.688-1.687A1.687,1.687,0,0,1,9,17.438Z" transform="translate(38.75 14.454)"/><path class="c" d="M6.444,19.416a2.827,2.827,0,0,0,1.98-.9A2.82,2.82,0,0,0,9.24,16.5a2.912,2.912,0,0,0,2.784,2.916A2.912,2.912,0,0,0,9.24,22.332a2.771,2.771,0,0,0-.816-2.016A2.827,2.827,0,0,0,6.444,19.416Zm2.8-8.64a5.515,5.515,0,0,0,3.852-1.764,5.493,5.493,0,0,0,1.584-3.936A5.493,5.493,0,0,0,16.26,9.012a5.569,5.569,0,0,0,3.864,1.764,5.562,5.562,0,0,0-2.748.852A5.767,5.767,0,0,0,15.4,13.7a5.643,5.643,0,0,0-.72,2.8,5.521,5.521,0,0,0-1.584-3.948A5.479,5.479,0,0,0,9.24,10.776ZM13.224,23.7a4.286,4.286,0,0,0,4.092-4.284A4.287,4.287,0,0,0,21.4,23.7a4.287,4.287,0,0,0-4.08,4.284,4.133,4.133,0,0,0-1.188-2.964A4.2,4.2,0,0,0,13.224,23.7ZM21.4,18.012a4.266,4.266,0,0,0,4.068-4.3A4.286,4.286,0,0,0,29.556,18a4.286,4.286,0,0,0-4.092,4.284A4.244,4.244,0,0,0,21.4,18.012Z" transform="translate(12 4.47)"/></svg>