<?xml version="1.0" encoding="UTF-8"?><svg id="_レイヤー_1" xmlns="http://www.w3.org/2000/svg" viewBox="0 0 756 389"><defs><style>.cls-1{fill:#ce8ee7;}</style></defs><path class="cls-1" d="m379.24,0c-16.34,0-32.2,5.54-44.99,15.73L27.21,260.33c-17.19,13.7-27.21,34.48-27.21,56.47h0c0,39.87,32.32,72.2,72.2,72.2h674.87c4.93,0,8.94-4,8.94-8.94V0h-376.76Zm130.76,111.25c0-12.29,9.96-22.25,22.25-22.25h39.5c12.29,0,22.25,9.96,22.25,22.25v39.5c0,12.29-9.96,22.25-22.25,22.25h-39.5c-12.29,0-22.25-9.96-22.25-22.25v-39.5Zm-95,0c0-12.29,9.96-22.25,22.25-22.25h11.5c12.29,0,22.25,9.96,22.25,22.25v39.5c0,12.29-9.96,22.25-22.25,22.25h-11.5c-12.29,0-22.25-9.96-22.25-22.25v-39.5Zm-65-54.25h24.02c11.99,0,17.89,14.59,9.27,22.92l-78.77,76.16c-11.56,11.17-27,17.42-43.08,17.42h-59.94l148.5-116.5Zm369,207H90l30-20h599v20Zm1-113.25c0,12.29-9.96,22.25-22.25,22.25h-39.5c-12.29,0-22.25-9.96-22.25-22.25v-39.5c0-12.29,9.96-22.25,22.25-22.25h39.5c12.29,0,22.25,9.96,22.25,22.25v39.5Z"/></svg>