<?xml version="1.0" encoding="utf-8"?>
<!-- Generator: Adobe Illustrator 27.2.0, SVG Export Plug-In . SVG Version: 6.00 Build 0)  -->
<svg version="1.1" id="レイヤー_1" xmlns="http://www.w3.org/2000/svg" xmlns:xlink="http://www.w3.org/1999/xlink" x="0px"
	 y="0px" viewBox="0 0 70 70" style="enable-background:new 0 0 70 70;" xml:space="preserve">
<style type="text/css">
	.st0{fill:url(#SVGID_1_);}
	.st1{fill:none;stroke:#FFFFFF;}
	.st2{enable-background:new    ;}
	.st3{fill:#6A5E4E;}
	.st4{fill:none;stroke:#6A5E4E;stroke-width:2;}
	.st5{fill:#FFFFFF;}
</style>
<g>
	
		<linearGradient id="SVGID_1_" gradientUnits="userSpaceOnUse" x1="35" y1="69.89" x2="35" y2="-0.11" gradientTransform="matrix(1 0 0 -1 0 69.89)">
		<stop  offset="0" style="stop-color:#E6E403"/>
		<stop  offset="0.1328" style="stop-color:#E7E234"/>
		<stop  offset="0.3026" style="stop-color:#E9E06D"/>
		<stop  offset="0.4676" style="stop-color:#EADF9C"/>
		<stop  offset="0.6237" style="stop-color:#EBDEC0"/>
		<stop  offset="0.7687" style="stop-color:#EBDDDB"/>
		<stop  offset="0.8983" style="stop-color:#ECDCEA"/>
		<stop  offset="1" style="stop-color:#ECDCF0"/>
	</linearGradient>
	<circle class="st0" cx="35" cy="35" r="35"/>
	<circle class="st1" cx="35" cy="35" r="34.5"/>
</g>
<g class="st2">
	<path class="st3" d="M28.3,18c0,0.2,0,0.4-0.2,0.5s-0.3,0.2-0.6,0.2s-0.4-0.1-0.6-0.2c-0.1-0.2-0.2-0.3-0.2-0.5l0.1-1.2
		c0-0.1,0-0.1-0.1-0.1h-2.3c-0.1,0-0.1,0-0.1,0.1v9c0,0.1,0,0.1,0.1,0.1c0.1,0,0.3,0,0.4,0c0.1,0,0.2,0,0.3,0c0.2,0,0.4,0,0.5,0.2
		c0.1,0.1,0.2,0.3,0.2,0.5c0,0.2-0.1,0.4-0.2,0.5c-0.1,0.1-0.3,0.2-0.5,0.2c-0.3,0-0.6-0.1-0.7-0.1c-0.2,0-0.3,0-0.4,0
		c-0.1,0-0.2,0-0.4,0c-0.1,0-0.3,0-0.4,0c-0.1,0-0.3,0-0.4,0c-0.2,0-0.4,0-0.7,0.1c-0.2,0-0.4-0.1-0.5-0.2c-0.2-0.1-0.2-0.3-0.2-0.5
		c0-0.2,0.1-0.4,0.2-0.5c0.2-0.1,0.3-0.2,0.5-0.2c0.1,0,0.2,0,0.3,0c0.1,0,0.2,0,0.4,0h0c0.1,0,0.1,0,0.1-0.1v-9
		c0-0.1,0-0.1-0.1-0.1h-2.4c-0.1,0-0.1,0-0.1,0.1l0.1,1.2c0,0.2,0,0.4-0.2,0.5s-0.3,0.2-0.6,0.2s-0.4-0.1-0.6-0.2
		c-0.1-0.2-0.2-0.3-0.2-0.5c0-0.2,0-0.5,0.1-0.8c0-0.3,0-0.6,0-0.9c0-0.3,0.1-0.5,0.3-0.8c0.2-0.2,0.5-0.3,0.7-0.3h7.1
		c0.3,0,0.5,0.1,0.7,0.3c0.2,0.2,0.3,0.5,0.3,0.8c0,0.3,0,0.6,0.1,0.9C28.3,17.5,28.3,17.7,28.3,18z"/>
	<path class="st3" d="M35.1,15.1c0.8,0,1.6,0.2,2.3,0.5c0.7,0.3,1.3,0.8,1.9,1.3c0.5,0.6,1,1.2,1.3,1.9c0.3,0.7,0.5,1.5,0.5,2.4
		c0,0.8-0.2,1.6-0.5,2.4c-0.3,0.7-0.7,1.4-1.3,1.9c-0.5,0.6-1.2,1-1.9,1.3c-0.7,0.3-1.5,0.5-2.3,0.5s-1.6-0.2-2.3-0.5
		s-1.3-0.8-1.9-1.3c-0.5-0.6-1-1.2-1.3-1.9c-0.3-0.7-0.5-1.5-0.5-2.4c0-0.8,0.2-1.6,0.5-2.4c0.3-0.7,0.7-1.4,1.3-1.9
		c0.5-0.6,1.2-1,1.9-1.3C33.5,15.3,34.3,15.1,35.1,15.1z M35.1,25.8c0.8,0,1.6-0.2,2.2-0.6c0.7-0.4,1.2-0.9,1.5-1.6
		c0.4-0.7,0.6-1.5,0.6-2.4c0-0.9-0.2-1.7-0.6-2.4s-0.9-1.2-1.6-1.6c-0.7-0.4-1.4-0.6-2.2-0.6c-0.8,0-1.6,0.2-2.2,0.6
		c-0.7,0.4-1.2,1-1.6,1.6c-0.4,0.7-0.6,1.5-0.6,2.4s0.2,1.7,0.6,2.4c0.4,0.7,0.9,1.3,1.6,1.7C33.5,25.6,34.2,25.8,35.1,25.8z"/>
	<path class="st3" d="M47.8,15.3c1.3,0,2.4,0.3,3.2,1c0.8,0.6,1.2,1.5,1.2,2.6s-0.4,2-1.2,2.6c-0.8,0.6-1.9,1-3.3,1h-2.2
		c-0.1,0-0.1,0-0.1,0.1v3.2c0,0.1,0,0.1,0.1,0.1c0.1,0,0.3,0,0.4,0c0.1,0,0.3,0,0.4,0c0.2,0,0.4,0,0.5,0.2c0.2,0.1,0.2,0.3,0.2,0.5
		c0,0.2-0.1,0.4-0.2,0.5c-0.2,0.1-0.3,0.2-0.5,0.2c-0.3,0-0.6,0-0.8-0.1c-0.2,0-0.5,0-0.7,0c-0.2,0-0.4,0-0.6,0
		c-0.2,0-0.5,0-0.8,0.1c-0.2,0-0.4,0-0.5-0.2c-0.2-0.1-0.2-0.3-0.2-0.5c0-0.2,0.1-0.4,0.2-0.5c0.1-0.1,0.3-0.2,0.5-0.2
		c0.1,0,0.2,0,0.2,0s0.2,0,0.3,0h0c0.1,0,0.1,0,0.1-0.1v-9.1c0-0.1,0-0.1-0.1-0.1c-0.1,0-0.2,0-0.2,0c-0.1,0-0.2,0-0.2,0
		c-0.2,0-0.4-0.1-0.5-0.2c-0.1-0.1-0.2-0.3-0.2-0.5c0-0.2,0.1-0.4,0.2-0.6c0.2-0.1,0.4-0.2,0.6-0.2c0.2,0,0.4,0.1,0.7,0.1
		c0.2,0,0.5,0,0.7,0H47.8z M45.4,20.9c0,0.1,0,0.1,0.1,0.1h2.3c1.9,0,2.9-0.7,2.9-2.2c0-1.5-1-2.2-3-2.2h-2.2c-0.1,0-0.1,0-0.1,0.1
		V20.9z"/>
</g>
<path class="st4" d="M53.8,49.6c8.7-6.2,6.8-21.6,6.8-21.6"/>
<path class="st3" d="M60.8,21l4.7,8.6H56L60.8,21z"/>
<g>
	<path class="st5" d="M38.9,54.1c0.4,3.4,3.5,5.9,7,5.4c3.4-0.4,5.9-3.5,5.4-7c-0.4-3.4-3.5-5.9-7-5.4c-0.3,0-0.6,0.1-0.9,0.2
		L41,40.6L39.9,41l2.4,6.7C40.1,48.8,38.6,51.3,38.9,54.1z M40.6,53.9c-0.2-1.9,0.8-3.7,2.4-4.6l1.5,4.1l1.1-0.4l-1.5-4.1
		c0.2,0,0.3-0.1,0.5-0.1c2.5-0.3,4.8,1.5,5.1,3.9c0.3,2.5-1.5,4.8-3.9,5.1C43.2,58.1,40.9,56.3,40.6,53.9z"/>
	<path class="st5" d="M18.7,56.6c0.4,3.4,3.5,5.9,7,5.4c3.3-0.4,5.7-3.3,5.5-6.6l1.1-0.1l-0.1-1.1L31,54.3c-0.7-3-3.7-5.1-6.8-4.7
		C20.7,50,18.2,53.2,18.7,56.6z M20.4,56.4c-0.3-2.5,1.5-4.8,3.9-5.1c2.2-0.3,4.3,1.1,4.9,3.2L24.9,55l0.1,1.1l4.4-0.5
		c0.1,2.3-1.6,4.4-4,4.7C22.9,60.6,20.7,58.8,20.4,56.4z"/>
	<path class="st5" d="M29.6,48l5,9.6c0.2,0.6,0.9,0.9,1.6,0.7c0.6-0.2,0.9-0.9,0.7-1.6L35.5,53l3-4.8c0.7-1.1-0.1-2.4-1-3
		c-0.2-0.1-4.6-2.2-4.6-2.2l0.4-2.8l5.2,0.9c0.5,0.1,0.9-0.2,1.1-0.6c0.1-0.5-0.2-0.9-0.6-1.1l-7.4-2.7c-1.6-0.6-2.9,0.8-2.9,1.9
		l-0.3,4.7C28,45.2,28.9,46.9,29.6,48z M33.4,47c0,0,1.7,0.5,1.9,0.7c0.2,0.1,0.4,0.3,0.2,0.6l-1.1,2.2L33.4,47z"/>
	<path class="st5" d="M33.6,33.4c0-1.2-1.1-2.2-2.3-2.2s-2.2,1.1-2.2,2.3s1.1,2.2,2.3,2.2C32.7,35.7,33.7,34.7,33.6,33.4z"/>
</g>
</svg>
