<svg xmlns="http://www.w3.org/2000/svg" width="134" height="136" viewBox="0 0 134 136"><defs><style>.a{fill:#e6e403;}.b{fill:#7b8395;}.c{fill:#b4b200;}.d{fill:#6a5e4e;}</style></defs><g transform="translate(6 -1234)"><g transform="translate(44.002 33.679)"><path class="a" d="M10.821,31.6c2.423-8.822,14.934-8.822,17.357,0l7.695,28.017A9,9,0,0,1,27.195,71H11.805A9,9,0,0,1,3.126,59.616Z" transform="translate(9.998 1200.321)"/><rect class="b" width="4" height="27" transform="translate(26.998 1257.321)"/></g><g transform="translate(-15 58.465)"><path class="a" d="M12.105,30.03a11,11,0,0,1,20.79,0L39.947,50.4A11,11,0,0,1,29.552,65h-14.1A11,11,0,0,1,5.053,50.4Z" transform="translate(9 1209.535)"/><rect class="c" width="4" height="33" transform="translate(29 1255.535)"/></g><g transform="translate(60 56.953)"><path class="a" d="M17.219,35.387c4.043-11.65,20.519-11.65,24.563,0L53.009,67.738A13,13,0,0,1,40.728,85H18.272A13,13,0,0,1,5.991,67.738Z" transform="translate(9 1210.047)"/><rect class="d" width="4" height="51" transform="translate(36 1262.047)"/></g></g></svg>