<svg xmlns="http://www.w3.org/2000/svg" width="563.781" height="68.254" viewBox="0 0 563.781 68.254"><defs><style>.a{fill:#e6e403;}.b{fill:none;stroke:#f8f7ed;stroke-width:5px;}.c,.d{stroke:none;}.d{fill:#fff;}</style></defs><g transform="translate(-364.219 -3516.017)"><g class="a" transform="translate(389.651 3516.017)"><path class="c" d="M 537.8488159179688 67.75440979003906 L 8.798030853271484 67.75440979003906 L -24.72602081298828 34.31587219238281 L 8.799674987792969 0.4999829828739166 L 537.8488159179688 0.4999829828739166 L 537.8488159179688 67.75440979003906 Z"/><path class="d" d="M 9.008087158203125 0.9999847412109375 L -24.01995849609375 34.31390380859375 L 9.004791259765625 67.25440979003906 L 537.3488159179688 67.25440979003906 L 537.3488159179688 0.9999847412109375 L 9.008087158203125 0.9999847412109375 M 8.591339111328125 -1.52587890625e-05 L 538.3488159179688 -1.52587890625e-05 L 538.3488159179688 68.25440979003906 L 8.591339111328125 68.25440979003906 L -25.4320068359375 34.31784057617188 L 8.591339111328125 -1.52587890625e-05 Z"/></g><path class="b" d="M506.333-6444.508l-10.509,10.279,10.509,9.721" transform="translate(10.421 9987.918)"/><path class="b" d="M506.333-6444.508l-10.509,10.279,10.509,9.721" transform="translate(-10.579 9987.918)"/></g></svg>