<svg xmlns="http://www.w3.org/2000/svg" width="94.061" height="85.967" viewBox="0 0 94.061 85.967"><defs><style>.a{fill:#f8f7ed;}.b{fill:#7b8395;}</style></defs><g transform="translate(-557.517 -2595.776)"><path class="a" d="M29.611,7.9C-1,7.9-12.333,31.8-12.333,50.037S-5.572,93.87,32.458,93.87c11.229,0,30.848-5.309,37.027-23.861,1.949-5.85,6.8-5.008,12.243-5.333-3.8-2.226-10.161-4.829-10.165-16.882-.005-.108-.013-.486-.013-.872C71.551,28.486,60.217,7.9,29.611,7.9Z" transform="translate(569.85 2587.873)"/><path class="b" d="M761.112,2572.726c-2.061,6.391-7.609,11.427-7.859,17.211-.174,4,2.034,8.622,7.859,8.706,6.086.087,9.1-3.9,8.654-8.706C769.247,2584.278,763.781,2579.232,761.112,2572.726Z" transform="matrix(-0.719, 0.695, -0.695, -0.719, 2950.734, 3958.009)"/><path class="b" d="M764.909,2572.726c-3.056,9.474-11.281,16.941-11.651,25.515-.259,5.934,3.015,12.783,11.651,12.906,9.023.13,13.486-5.785,12.83-12.906C776.969,2589.853,768.866,2582.372,764.909,2572.726Z" transform="translate(3097.127 1619.091) rotate(84)"/></g></svg>