<!--?xml version="1.0" encoding="utf-8"?-->
<!-- Generator: Adobe Illustrator 18.1.1, SVG Export Plug-In . SVG Version: 6.00 Build 0)  -->

<svg version="1.1" id="_x32_" xmlns="http://www.w3.org/2000/svg" xmlns:xlink="http://www.w3.org/1999/xlink" x="0px" y="0px" viewBox="0 0 512 512" style="width: 256px; height: 256px; opacity: 1;" xml:space="preserve">
<style type="text/css">
	.st0{fill:#4B4B4B;}
</style>
<g>
	<path class="st0" d="M127.576,298.397l23.806-108.109l-16.98-3.736L110.63,294.5c-4.415-0.62-8.889-1.044-13.473-1.044
		C43.578,293.456,0,337.034,0,390.613c0,53.57,43.578,97.148,97.157,97.148c53.57,0,97.157-43.578,97.157-97.148
		C194.314,347.662,166.28,311.199,127.576,298.397z M97.157,461.146c-38.892,0-70.524-31.642-70.524-70.533
		c0-38.9,31.632-70.542,70.524-70.542c2.623,0,5.195,0.17,7.742,0.45l-14.688,66.703l16.98,3.736l14.61-66.356
		c26.76,10.026,45.896,35.784,45.896,66.008C167.698,429.504,136.048,461.146,97.157,461.146z" style="fill: rgb(255, 255, 255);"></path>
	<path class="st0" d="M414.852,293.456c-49.623,0-90.594,37.406-96.384,85.492h-18.363v17.387h17.879
		c2.989,50.905,45.225,91.426,96.868,91.426c53.57,0,97.148-43.578,97.148-97.148C512,337.034,468.422,293.456,414.852,293.456z
		 M414.852,461.146c-36.964,0-67.324-28.594-70.252-64.811h68.52v-17.387h-67.765c5.586-33.356,34.578-58.877,69.497-58.877
		c38.892,0,70.533,31.642,70.533,70.542C485.385,429.504,453.744,461.146,414.852,461.146z" style="fill: rgb(255, 255, 255);"></path>
	<path class="st0" d="M338.826,203.549l-14.084-72.358c-2.174-16.3-24.638-35.504-47.814-23.907l-109.739,56.287
		c-7.064,2.691-10.595,10.595-7.887,17.65c2.692,7.072,10.596,10.612,17.642,7.922l78.242-23.177l11.028,42.338
		c0,0-63.81,41.048-66.441,42.992c-13.142,9.746-22.71,31.446-9.934,47.593l55.744,68.342l-11.962,61.067
		c-2.623,9.942,3.303,20.13,13.236,22.753c9.933,2.624,20.121-3.303,22.752-13.244l58.019-158.104
		C336.11,260.465,346.433,233.23,338.826,203.549z M255.609,325.819l-21.096-31.277c-2.777-3.472-1.002-6.673,2.487-9.424
		c3.481-2.767,28.602-14.458,28.602-14.458L255.609,325.819z" style="fill: rgb(255, 255, 255);"></path>
	<path class="st0" d="M274.295,93.089c18.983-1.808,32.906-18.652,31.09-37.618c-1.791-18.975-18.643-32.89-37.626-31.072
		c-18.966,1.8-32.88,18.643-31.072,37.626C238.486,80.974,255.321,94.905,274.295,93.089z" style="fill: rgb(255, 255, 255);"></path>
</g>
</svg>
