<?xml version="1.0" encoding="utf-8"?>
<!-- Generator: Adobe Illustrator 27.5.0, SVG Export Plug-In . SVG Version: 6.00 Build 0)  -->
<svg version="1.1" id="レイヤー_1" xmlns="http://www.w3.org/2000/svg" xmlns:xlink="http://www.w3.org/1999/xlink" x="0px"
	 y="0px" viewBox="0 0 512 753.3" style="enable-background:new 0 0 512 753.3;" xml:space="preserve">
<style type="text/css">
	.st0{display:none;fill:#13A200;stroke:#000000;stroke-miterlimit:10;}
	.st1{enable-background:new    ;}
	.st2{fill:#FFFFFF;}
	.st3{fill:none;stroke:#FFFFFF;stroke-width:7.0866;stroke-miterlimit:10;}
</style>
<rect class="st0" width="512" height="753.3"/>
<g id="レイヤー_2_00000043437761880811888460000004141806102946713777_">
	<g class="st1">
		<path class="st2" d="M195.2,115.5v47c-4.9,2.8-10,5-15.6,6.6c-5.5,1.6-11.4,2.5-17.6,2.5c-9,0-17.4-1.7-25.3-5.1
			c-7.9-3.4-14.8-8-20.7-13.9c-5.9-5.9-10.5-12.8-13.9-20.7c-3.4-7.9-5.1-16.3-5.1-25.3c0-9,1.7-17.5,5.1-25.4
			c3.4-8,8-14.9,13.9-20.8c5.9-5.9,12.8-10.6,20.7-14c7.9-3.5,16.3-5.2,25.3-5.2c6.2,0,12.1,0.8,17.6,2.4c5.5,1.6,10.8,3.8,15.8,6.7
			L187,62.5c-3.8-2.2-7.7-3.9-11.8-5.1c-4.1-1.2-8.5-1.8-13.1-1.8c-6.9,0-13.4,1.3-19.4,4c-6,2.7-11.3,6.3-15.8,11
			c-4.6,4.7-8.1,10.1-10.7,16.3c-2.6,6.2-3.9,12.8-3.9,19.7c0,6.9,1.3,13.5,3.9,19.7c2.6,6.2,6.2,11.6,10.7,16.1
			c4.6,4.6,9.8,8.2,15.8,10.8c6,2.7,12.5,4,19.4,4c6.3,0,12.3-1.1,18-3.3v-24h-18.8v-14.4H195.2z"/>
		<path class="st2" d="M226.2,106.2c0-8.9,1.7-17.3,5.1-25.2c3.4-8,8-14.9,13.9-20.9c5.9-5.9,12.8-10.7,20.7-14.1
			c7.9-3.5,16.3-5.2,25.3-5.2c8.9,0,17.3,1.7,25.2,5.2c8,3.5,14.9,8.2,20.9,14.1c5.9,6,10.7,12.9,14.1,20.9c3.5,8,5.2,16.4,5.2,25.2
			c0,9-1.7,17.4-5.2,25.3c-3.5,7.9-8.2,14.8-14.1,20.7c-6,5.9-12.9,10.5-20.9,13.9c-8,3.4-16.4,5.1-25.2,5.1c-9,0-17.4-1.7-25.3-5.1
			c-7.9-3.4-14.8-8-20.7-13.9c-5.9-5.9-10.5-12.8-13.9-20.7C227.9,123.6,226.2,115.2,226.2,106.2z M241.3,106.1
			c0,7,1.3,13.6,3.9,19.7c2.6,6.1,6.2,11.4,10.7,15.9c4.6,4.5,9.9,8.1,15.9,10.8c6.1,2.7,12.6,4,19.5,4c6.9,0,13.4-1.3,19.5-4
			c6.1-2.7,11.4-6.2,15.9-10.8c4.6-4.5,8.1-9.8,10.7-15.9c2.6-6.1,3.9-12.7,3.9-19.7c0-7-1.3-13.6-3.9-19.7
			c-2.6-6.1-6.2-11.4-10.7-16c-4.6-4.6-9.9-8.2-15.9-10.9c-6.1-2.7-12.6-4-19.5-4c-6.9,0-13.4,1.3-19.5,4
			c-6.1,2.7-11.4,6.3-15.9,10.9c-4.6,4.6-8.1,9.9-10.7,16C242.6,92.6,241.3,99.1,241.3,106.1z"/>
		<path class="st2" d="M399.4,169.8c-2.4,0-4.6-0.9-6.6-2.7c-1.9-1.8-2.9-4.1-2.9-6.9c0-2.8,1-5.1,2.9-6.8c1.9-1.8,4.1-2.6,6.6-2.6
			c2.3,0,4.4,0.9,6.4,2.6c1.9,1.8,2.9,4,2.9,6.8c0,2.8-1,5.1-2.9,6.9C403.8,168.9,401.7,169.8,399.4,169.8z M391.8,33.2h15.1v106.4
			h-15.1V33.2z"/>
	</g>
	<line class="st3" x1="507.3" y1="79.7" x2="436.7" y2="194.8"/>
	<line class="st3" x1="3.5" y1="79.7" x2="74.2" y2="194.8"/>
</g>
<g id="_x32_">
	<g>
		<path class="st2" d="M317.6,632c0,53.5,43.6,97.1,97.2,97.1S512,685.6,512,632s-43.6-97.2-97.1-97.2c-4.6,0-9.1,0.4-13.5,1
			l-23.8-107.9l-17,3.7l23.8,108.1C345.7,552.5,317.7,589,317.6,632z M344.3,632c0-30.2,19.1-56,45.9-66l14.6,66.4l17-3.7L407.1,562
			c2.5-0.3,5.1-0.5,7.7-0.5c38.9,0,70.5,31.6,70.5,70.5c0,38.9-31.6,70.5-70.5,70.5C376,702.5,344.3,670.8,344.3,632z"/>
		<path class="st2" d="M0,632c0,53.5,43.5,97.1,97.1,97.1c51.7,0,93.9-40.5,96.9-91.4h17.9v-17.4h-18.4
			c-5.8-48.1-46.8-85.5-96.4-85.5C43.6,534.8,0,578.4,0,632z M26.7,631.9c0-38.9,31.6-70.5,70.5-70.5c34.9,0,63.9,25.5,69.5,58.9
			H98.9v17.4h68.5c-3,36.2-33.3,64.8-70.3,64.8C58.3,702.5,26.6,670.8,26.7,631.9z"/>
		<path class="st2" d="M184.5,521l58,158.1c2.7,9.9,12.9,15.8,22.8,13.2c9.9-2.7,15.8-12.9,13.2-22.8l-12-61.1l55.7-68.3
			c12.8-16.2,3.2-37.9-9.9-47.6c-2.6-2-66.4-43-66.4-43l11-42.3l78.2,23.2c7,2.7,14.9-0.8,17.6-7.9c2.7-7-0.8-14.9-7.9-17.6
			l-109.7-56.3c-23.2-11.6-45.6,7.6-47.8,23.9l-14.1,72.4C165.6,474.6,175.9,501.8,184.5,521z M246.4,512c0,0,25.1,11.7,28.6,14.5
			c3.5,2.7,5.3,5.9,2.5,9.4l-21.1,31.3L246.4,512z"/>
		<path class="st2" d="M275.3,303.3c1.8-19-12.1-35.8-31.1-37.6c-19-1.8-35.8,12.1-37.6,31.1c-1.8,18.9,12.1,35.8,31.1,37.6
			C256.7,336.2,273.5,322.3,275.3,303.3z"/>
	</g>
</g>
</svg>
