<svg xmlns="http://www.w3.org/2000/svg" width="518" height="201" viewBox="0 0 518 201"><defs><style>.a{fill:#7b8395;}.b{fill:#9b9b5f;}.c{fill:#e6e403;}.d{fill:#fff;}.e{fill:#6a5e4e;}.f{fill:#b4b200;}</style></defs><g transform="translate(-571 -1679)"><rect class="a" width="54" height="77" transform="translate(1026 1723)"/><path class="b" d="M0,0H54V51H0Z" transform="translate(953 1742)"/><g transform="translate(562 488.5)"><path class="c" d="M13.433,36.545c3.063-10.593,18.071-10.593,21.134,0l9.369,32.4A11,11,0,0,1,33.369,83H14.631A11,11,0,0,1,4.064,68.944Z" transform="translate(9 1190.5)"/><rect class="a" width="3" height="42" transform="translate(32 1252.5)"/></g><g transform="translate(-18 -27)"><rect class="a" width="125" height="124" transform="translate(704 1718)"/><rect class="d" width="14" height="15" transform="translate(733 1746)"/><rect class="d" width="15" height="15" transform="translate(752 1746)"/><rect class="d" width="14" height="14" transform="translate(733 1767)"/><rect class="d" width="15" height="14" transform="translate(752 1767)"/></g><g transform="translate(-2 -28)"><rect class="b" width="100" height="82" transform="translate(604 1769)"/><rect class="d" width="14" height="15" transform="translate(628 1791)"/><rect class="d" width="15" height="15" transform="translate(647 1791)"/><rect class="d" width="14" height="14" transform="translate(628 1812)"/><rect class="d" width="15" height="14" transform="translate(647 1812)"/></g><rect class="e" width="50" height="37" transform="translate(871 1765)"/><path class="e" d="M37.5,0,75,32H0Z" transform="translate(859 1736)"/><rect class="d" width="10" height="10" transform="translate(885 1768)"/><rect class="d" width="10" height="10" transform="translate(898 1768)"/><rect class="d" width="10" height="10" transform="translate(885 1781)"/><rect class="d" width="10" height="10" transform="translate(898 1781)"/><g transform="translate(772 520.953)"><path class="c" d="M17.219,35.387c4.043-11.65,20.519-11.65,24.563,0L53.009,67.738A13,13,0,0,1,40.728,85H18.272A13,13,0,0,1,5.991,67.738Z" transform="translate(9 1210.047)"/><rect class="f" width="4" height="51" transform="translate(36 1262.047)"/></g><g transform="translate(931 512.5)"><path class="c" d="M19.852,31.889a13,13,0,0,1,24.3,0L57.285,66.372A13,13,0,0,1,45.136,84H18.864A13,13,0,0,1,6.715,66.372Z" transform="translate(9 1210.5)"/><rect class="a" width="4" height="56" transform="translate(39 1266.5)"/></g><g transform="translate(981 496.434)"><path class="c" d="M37.263,34.114c4.118-11.481,20.355-11.481,24.473,0l31.026,86.5A13,13,0,0,1,80.526,138H18.474A13,13,0,0,1,6.237,120.611Z" transform="translate(9 1210.566)"/><rect class="e" width="7" height="70" transform="translate(55 1313.566)"/></g></g></svg>