<?xml version="1.0" encoding="utf-8"?>
<!-- Generator: Adobe Illustrator 27.2.0, SVG Export Plug-In . SVG Version: 6.00 Build 0)  -->
<svg version="1.1" id="レイヤー_1" xmlns="http://www.w3.org/2000/svg" xmlns:xlink="http://www.w3.org/1999/xlink" x="0px"
	 y="0px" viewBox="0 0 1080 811.3" style="enable-background:new 0 0 1080 811.3;" xml:space="preserve">
<style type="text/css">
	.st0{fill:url(#SVGID_1_);}
	.st1{fill:none;stroke:#FFFFFF;stroke-width:3;stroke-dasharray:5,8;}
	.st2{fill:#E6E403;}
	.st3{fill:#6A5E4E;}
	.st4{fill:#7B8395;}
</style>
<linearGradient id="SVGID_1_" gradientUnits="userSpaceOnUse" x1="240.2778" y1="680.8552" x2="240.2778" y2="679.8552" gradientTransform="matrix(1080 0 0 -760.6425 -258960 517938.125)">
	<stop  offset="0" style="stop-color:#ECDCF0"/>
	<stop  offset="0.236" style="stop-color:#F8F7ED"/>
	<stop  offset="0.798" style="stop-color:#F8F7ED;stop-opacity:4.700000e-02"/>
	<stop  offset="1" style="stop-color:#F8F7ED;stop-opacity:0"/>
</linearGradient>
<path class="st0" d="M1080,65C987.5,3.2,701.6,152.5,0,297.7v492.5c162.1,0,1080,21.2,1080,21.2V65z"/>
<path id="パス_38" class="st1" d="M1002,80.2C588.3,248.8,0,332.6,0,332.6"/>
<g transform="translate(-721 -976)">
	<g transform="translate(883 -199.047)">
		<path class="st2" d="M737.3,1221.9c4-11.7,20.5-11.7,24.6,0l11.2,32.4c2.4,6.8-1.2,14.2-8,16.5c-1.4,0.5-2.8,0.7-4.3,0.7h-22.5
			c-7.2,0-13-5.8-13-13c0-1.5,0.2-2.9,0.7-4.3L737.3,1221.9z"/>
		<rect x="747" y="1238.5" class="st3" width="4" height="51"/>
	</g>
	<g transform="translate(918 -234.5)">
		<path class="st2" d="M739.9,1218.9c2.6-6.7,10.1-10.1,16.8-7.5c3.5,1.3,6.2,4.1,7.5,7.5l13.1,34.5c2.6,6.7-0.8,14.2-7.5,16.8
			c-1.5,0.6-3,0.9-4.6,0.9h-26.3c-7.2,0-13-5.8-13-13c0-1.6,0.3-3.2,0.9-4.6L739.9,1218.9z"/>
		<rect x="750" y="1243" class="st4" width="4" height="56"/>
	</g>
	<g transform="translate(712 -152.5)">
		<path class="st2" d="M739.9,1218.9c2.6-6.7,10.1-10.1,16.8-7.5c3.5,1.3,6.2,4.1,7.5,7.5l13.1,34.5c2.6,6.7-0.8,14.2-7.5,16.8
			c-1.5,0.6-3,0.9-4.6,0.9h-26.3c-7.2,0-13-5.8-13-13c0-1.6,0.3-3.2,0.9-4.6L739.9,1218.9z"/>
		<rect x="750" y="1243" class="st4" width="4" height="56"/>
	</g>
	<g transform="translate(950 -234.566)">
		<path class="st2" d="M757.3,1221.2c4.1-11.5,20.4-11.5,24.5,0l31,86.5c2.4,6.8-1.1,14.2-7.9,16.6c-1.4,0.5-2.9,0.8-4.4,0.8h-62.1
			c-7.2,0-13-5.8-13-13c0-1.5,0.3-3,0.8-4.4L757.3,1221.2z"/>
		<rect x="766" y="1290.1" class="st3" width="7" height="70"/>
	</g>
	<g transform="translate(798.867 1011.525)">
		<path class="st3" d="M810.3,27.5c-16.4,2.6-33,3.3-49.6,3.3s-33.2-0.7-49.6-3.3l3.4,11.1c6.3,0.9,12.6,1.6,19,2.1l-0.6,15.8h-13.9
			v9.2h13.6l-1.6,40.8l9.8,0.4l1.6-41.2h36.8l1.6,41.2l9.8-0.4l-1.6-40.8h13.6v-9.2h-13.9L788,40.7c6.3-0.5,12.7-1.2,19-2.1
			L810.3,27.5z M755.8,56.5h-13.1l0.6-15.2c4.2,0.2,8.3,0.4,12.5,0.4L755.8,56.5L755.8,56.5z M765.6,56.5V41.8
			c4.2-0.1,8.3-0.2,12.5-0.4l0.6,15.2C778.7,56.5,765.6,56.5,765.6,56.5z"/>
	</g>
</g>
</svg>
