<svg xmlns="http://www.w3.org/2000/svg" width="221" height="117" viewBox="0 0 221 117"><defs><style>.a{fill:#e6e403;}.b{fill:#7b8395;}.c{fill:#b4b200;}.d{fill:#fff;}.e{fill:#6a5e4e;}</style></defs><g transform="translate(8 -1347)"><g transform="translate(-24 127.834)"><path class="a" d="M13.969,21.017a8,8,0,0,1,15.062,0L39.166,49.3A8,8,0,0,1,31.635,60H11.365A8,8,0,0,1,3.834,49.3Z" transform="translate(16 1231.166)"/><rect class="b" width="4" height="35" transform="translate(35 1274.166)"/></g><g transform="translate(99.056 115.72)"><path class="a" d="M14.461,21.247a8,8,0,0,1,15.079,0L40.212,51.325A8,8,0,0,1,32.673,62H11.327A8,8,0,0,1,3.788,51.325Z" transform="translate(15.944 1231.28)"/><rect class="c" width="5" height="36" transform="translate(34.944 1275.28)"/></g><g transform="translate(-687.5 -316.382)"><path class="b" d="M0,16.807,31.344,0h80.612L142,16.807V50.821H0Z" transform="translate(704 1718)"/><rect class="d" width="10" height="10" transform="translate(719 1747)"/><rect class="d" width="10" height="10" transform="translate(733 1747)"/><rect class="d" width="10" height="10" transform="translate(749 1747)"/><rect class="d" width="10" height="10" transform="translate(763 1747)"/></g><g transform="translate(137 136.354)"><path class="a" d="M21.269,33.954c4.128-11.459,20.334-11.459,24.461,0l15,41.64A13,13,0,0,1,48.5,93h-30A13,13,0,0,1,6.27,75.594Z" transform="translate(9 1210.647)"/><rect class="e" width="5" height="47" transform="translate(40 1280.647)"/></g></g></svg>