<?xml version="1.0" encoding="utf-8"?>
<!-- Generator: Adobe Illustrator 27.2.0, SVG Export Plug-In . SVG Version: 6.00 Build 0)  -->
<svg version="1.1" id="_レイヤー_2" xmlns="http://www.w3.org/2000/svg" xmlns:xlink="http://www.w3.org/1999/xlink" x="0px"
	 y="0px" viewBox="0 0 612.4 135.3" style="enable-background:new 0 0 612.4 135.3;" xml:space="preserve">
<style type="text/css">
	.st0{fill:#393723;}
</style>
<g id="S_C_R">
	<g>
		<path class="st0" d="M0,116.1V94h15V111c3.3,2.5,7.2,4.7,11.8,6.6c4.6,1.8,9.7,2.8,15.4,2.8c3.3,0,6.5-0.5,9.5-1.4
			s5.7-2.3,8.1-4.2c2.3-1.8,4.2-4.2,5.6-6.9s2.1-6,2.1-9.7c0-6.6-1.5-11.7-4.6-15.2c-3-3.5-6.8-6.3-11.4-8.3c-4.6-2-9.5-3.6-14.8-5
			c-5.3-1.4-10.3-3.3-14.9-5.7c-4.6-2.4-8.5-5.8-11.6-10.1c-3.1-4.3-4.7-10.4-4.8-18.2C5.2,31.3,5.8,27.2,7,23
			c1.3-4.2,3.3-8,6.3-11.4c2.9-3.4,6.8-6.2,11.6-8.4C29.7,1.1,35.6,0,42.6,0c2.3,0,4.8,0.1,7.4,0.4c2.7,0.3,5.4,0.8,8.4,1.5
			c2.9,0.8,5.9,1.9,9,3.4c3.1,1.5,6.2,3.6,9.2,6.1V30h-15V18.8c-2.4-1-5.2-1.9-8.4-2.7C50,15.4,46.5,15,42.7,15
			c-7.3,0-12.8,2.1-16.3,6.3c-3.5,4.2-5.3,9.1-5.3,14.8c0,3.8,0.9,6.9,2.7,9.2c1.8,2.3,4.1,4.3,7,5.9c2.9,1.6,6.2,3,10,4.1
			c3.7,1.1,7.5,2.4,11.4,3.7c3.9,1.3,7.7,2.9,11.4,4.8c3.7,1.8,7.1,4.2,10,7.2c2.9,3,5.2,6.7,7,11c1.8,4.4,2.7,9.8,2.7,16.2
			c0,5.7-1,10.8-3.1,15.4s-4.9,8.5-8.6,11.7c-3.6,3.2-7.8,5.7-12.6,7.4c-4.8,1.7-9.9,2.6-15.2,2.6c-4.8,0-9.5-0.5-14.1-1.6
			s-8.7-2.5-12.5-4.3c-3.8-1.8-7.2-3.8-10.2-6.1S1.7,118.6,0,116.1L0,116.1z"/>
		<path class="st0" d="M269.4,35.1V24.4c-5.6-2.6-11.4-3.9-17.4-3.9c-6.3,0-12.3,1.3-17.8,3.9s-10.4,6.1-14.5,10.6
			c-4.2,4.5-7.5,9.8-9.9,15.7c-2.4,6-3.6,12.3-3.6,19s1.2,13,3.6,19c2.4,6,5.7,11.2,9.9,15.6s9,7.9,14.5,10.5s11.4,3.9,17.8,3.9
			c8.2,0,15.9-2.2,22.9-6.5l7.5,11.6c-4.5,2.7-9.2,4.8-14.3,6.4s-10.4,2.4-16.1,2.4c-8.2,0-16-1.6-23.2-4.9s-13.6-7.8-19-13.4
			s-9.7-12.3-12.8-19.9c-3.1-7.6-4.7-15.8-4.7-24.4s1.6-16.8,4.7-24.5c3.1-7.7,7.4-14.4,12.8-20c5.4-5.7,11.7-10.2,19-13.5
			c7.2-3.3,15-5,23.2-5c5.7,0,11,0.8,16.1,2.3s9.9,3.7,14.4,6.5v19.7L269.4,35.1L269.4,35.1z"/>
		<path class="st0" d="M411.5,117.2h7.9V21.9h-7.9V8h36.9c4,0,8.4,0.6,13.3,1.9s9.4,3.2,13.6,5.9c4.2,2.7,7.7,6.1,10.5,10.4
			c2.8,4.2,4.2,9.3,4.2,15.3c0,8.8-2.2,16.1-6.6,22.1s-10.8,9.8-19.2,11.7l19.7,42h16.5v13.9h-25.7l-25.8-54.8h-14.9v40.9h20v13.9
			h-42.5L411.5,117.2L411.5,117.2z M434,62h15.3c5.1,0,9.4-0.7,12.7-2s6-3,8-5c2-2,3.4-4.2,4.2-6.7s1.2-4.8,1.2-7c0-2.6-0.7-5-2-7.3
			c-1.3-2.3-3.2-4.4-5.5-6.2s-5-3.2-8.3-4.3c-3.2-1-6.6-1.6-10.3-1.6h-15.5L434,62L434,62z"/>
	</g>
</g>
<path class="st0" d="M161,131c-2.9-2.9-5.8-5.8-8.7-8.6s-5.8-5.7-8.7-8.6l-17.1,17.1c-1.6-1.6-3.3-3.3-5.1-5c-1.8-1.7-3.5-3.4-5.1-5
	l17.2-17.2l-17.4-17.4l10.4-10.4l17.4,17.4L161.2,76c1.6,1.6,3.3,3.3,5,5.1c1.7,1.8,3.4,3.5,5,5.1l-17,17c2.9,2.9,5.8,5.8,8.6,8.7
	c2.8,2.9,5.7,5.8,8.6,8.7L161,131L161,131z"/>
<path class="st0" d="M365,131c-2.9-2.9-5.8-5.8-8.7-8.6c-2.9-2.8-5.8-5.7-8.7-8.6l-17,17.1c-1.6-1.6-3.3-3.3-5.1-5
	c-1.8-1.7-3.5-3.4-5.1-5l17.2-17.2l-17.4-17.4l10.4-10.4l17.4,17.4L365.2,76c1.6,1.6,3.3,3.3,5,5.1s3.4,3.5,5,5.1l-17,17
	c2.9,2.9,5.8,5.8,8.6,8.7c2.8,2.9,5.7,5.8,8.6,8.7L365,131L365,131z"/>
<g id="iwa">
	<g>
		<path class="st0" d="M99.5,59h3.6v-7.2c-0.1-0.8-0.4-1.5-0.9-2.2c-0.5-0.6-1.4-0.9-2.6-1c-0.8,0-1.6,0.1-2.3,0.4
			c-0.7,0.3-1.4,0.7-1.9,1.2s-1,1.1-1.3,1.8c-0.3,0.7-0.5,1.4-0.5,2.2v4.8h2.9v3.7H86.2v-3.7h3.5V31.6h-3.5V28h7.3v19.7l-0.1,2.1
			c0.7-1.5,1.7-2.7,3-3.5c1.3-0.8,2.8-1.3,4.6-1.4c1.8,0,3.2,0.5,4.3,1.4c1.1,1,1.6,2.2,1.7,3.7v8.9h2.9v3.7H99.5L99.5,59L99.5,59z"
			/>
		<path class="st0" d="M113,59h3.2v-10H113v-3.7h7.1v13.7h3.2v3.7H113L113,59L113,59z M115.8,38.6c0-0.7,0.2-1.3,0.7-1.8
			s1.1-0.7,1.7-0.7c0.6,0,1.1,0.2,1.6,0.7c0.5,0.5,0.7,1,0.7,1.8s-0.2,1.3-0.7,1.7c-0.5,0.5-1,0.7-1.6,0.7c-0.6,0-1.2-0.2-1.7-0.7
			C116.1,39.9,115.8,39.3,115.8,38.6z"/>
		<path class="st0" d="M151.7,45.3h9.9v3.7h-3.5c-1.2,2.5-2.5,5-3.7,7.4s-2.5,4.9-3.7,7.3l-6.3-12.4l-6.3,12.4
			c-1.3-2.5-2.5-4.9-3.7-7.4c-1.2-2.5-2.5-4.9-3.7-7.4h-4.1v-3.7h9.6v3.7h-1.6c0.7,1.3,1.3,2.7,2,4c0.6,1.3,1.2,2.7,1.7,4.1
			c0.3-1,0.8-2.1,1.2-3.1c0.5-1,1-2,1.4-3c0.1-0.3,0.3-0.7,0.5-1c0.2-0.3,0.3-0.7,0.5-1h-2.3v-3.7h10.2v3.7H147c0.7,1.3,1.3,2.7,2,4
			c0.7,1.3,1.2,2.7,1.7,4.1c0.5-1.4,1-2.8,1.6-4.1s1.3-2.7,2-4h-2.6L151.7,45.3L151.7,45.3z"/>
		<path class="st0" d="M164.8,54c0-1.2,0.2-2.3,0.7-3.5c0.5-1.1,1.1-2.1,2-2.9c0.8-0.8,1.8-1.5,3-2c1.1-0.5,2.4-0.7,3.6-0.7
			c0.8,0,1.6,0.1,2.3,0.4c0.7,0.2,1.3,0.5,1.9,0.8c0.5,0.3,0.9,0.6,1.2,0.8c0.3,0.3,0.5,0.5,0.5,0.5c0-0.3,0-0.7,0.1-1.1
			c0.1-0.4,0.1-0.7,0.1-1.1h3.2v13.7h3.5v3.7H180v-1.8c0,0.1-0.2,0.3-0.5,0.5s-0.7,0.5-1.2,0.8c-0.5,0.3-1.1,0.5-1.8,0.7
			c-0.7,0.2-1.5,0.3-2.4,0.3c-1.3,0-2.5-0.2-3.6-0.7c-1.1-0.5-2.1-1.1-3-2c-0.8-0.8-1.5-1.8-2-2.9C165.1,56.3,164.9,55.2,164.8,54
			L164.8,54z M168.7,53.9c0,1.5,0.5,2.8,1.5,3.8c1,1,2.3,1.5,3.9,1.5c1.6,0,2.9-0.5,3.9-1.5c1-1,1.5-2.3,1.5-3.8s-0.5-2.8-1.5-3.8
			c-1-1-2.3-1.5-3.9-1.5c-1.6,0-2.9,0.5-3.9,1.5C169.2,51.1,168.7,52.4,168.7,53.9z"/>
	</g>
</g>
<g id="ycling">
	<g>
		<path class="st0" d="M286.2,70.5h4.2c0.6-1.3,1.3-2.7,2-4s1.3-2.6,2-3.9c-1.2-2.3-2.3-4.6-3.4-6.8c-1.1-2.2-2.3-4.5-3.4-6.8h-3.9
			v-3.7h10.2v3.7h-2.5c0.9,1.7,1.8,3.4,2.7,5.1c0.9,1.7,1.6,3.4,2.2,5.2c0.6-1.7,1.3-3.4,2.2-5.2c0.9-1.7,1.8-3.4,2.7-5.1h-2.9v-3.7
			h10.6v3.7H305c-1.8,3.6-3.6,7.2-5.4,10.8c-1.8,3.6-3.6,7.2-5.4,10.8h2.3v3.7h-10.2C286.2,74.1,286.2,70.5,286.2,70.5z"/>
		<path class="st0" d="M327.1,61c-0.8,0.6-1.7,1.1-2.7,1.5c-1,0.3-2,0.5-3.1,0.5c-1.3,0-2.5-0.2-3.6-0.7s-2.1-1.1-2.9-2
			c-0.8-0.8-1.5-1.8-2-2.9c-0.5-1.1-0.7-2.3-0.7-3.5s0.2-2.4,0.7-3.5s1.1-2.1,2-2.9s1.8-1.5,2.9-1.9s2.3-0.7,3.6-0.7
			c1.1,0,2.2,0.2,3.2,0.5s1.9,0.8,2.7,1.5v5.4h-3.4v-3.1c-0.8-0.3-1.6-0.5-2.5-0.5c-1.6,0-2.9,0.5-3.9,1.5s-1.5,2.3-1.5,3.8
			s0.5,2.8,1.5,3.8c1,1,2.3,1.5,3.9,1.5c1.4,0,2.5-0.4,3.5-1.2L327.1,61L327.1,61z"/>
		<path class="st0" d="M330.4,59h3.5V31.6h-3V28h6.9v31h2.9v3.7h-10.2L330.4,59L330.4,59z"/>
		<path class="st0" d="M343.9,59h3.2v-10h-3.2v-3.7h7.1v13.7h3.2v3.7h-10.2L343.9,59L343.9,59z M346.7,38.6c0-0.7,0.2-1.3,0.7-1.8
			s1-0.7,1.7-0.7s1.1,0.2,1.6,0.7s0.7,1,0.7,1.8s-0.2,1.3-0.7,1.7c-0.5,0.5-1,0.7-1.6,0.7c-0.6,0-1.2-0.2-1.7-0.7
			C346.9,39.9,346.7,39.3,346.7,38.6z"/>
		<path class="st0" d="M370.6,59h3.6v-7.2c-0.1-0.8-0.4-1.5-0.9-2.2c-0.5-0.6-1.4-0.9-2.6-1c-0.8,0-1.6,0.1-2.3,0.4
			c-0.7,0.3-1.4,0.7-1.9,1.2c-0.5,0.5-1,1.1-1.3,1.8s-0.5,1.4-0.5,2.2v4.8h2.9v3.7h-10.2v-3.7h3.5v-10h-3v-3.7h6.4v0.4
			c0.1,0.7,0.1,1.4,0.2,2c0,0.6,0.1,1.3,0.2,2c0.6-1.5,1.6-2.7,3-3.5c1.4-0.9,2.9-1.3,4.5-1.3c1.8,0,3.2,0.5,4.3,1.4
			c1,1,1.6,2.2,1.7,3.7v8.9h2.9v3.7h-10.2L370.6,59L370.6,59z"/>
		<path class="st0" d="M399.5,45.3h6.7v3.7h-3.5v16.4c0,1.2-0.2,2.4-0.7,3.4c-0.5,1.1-1.1,2-2,2.8s-1.8,1.4-2.9,1.9
			s-2.3,0.7-3.6,0.7c-1.4,0-2.7-0.3-4-0.9c-1.3-0.6-2.4-1.2-3.3-1.9l2.5-3.1c0.6,0.5,1.3,0.9,2.1,1.3s1.7,0.6,2.6,0.6
			c0.8,0,1.5-0.1,2.2-0.4s1.2-0.7,1.7-1.1c0.5-0.5,0.9-1.1,1.1-1.7c0.3-0.7,0.4-1.4,0.4-2.2v-3.1c0.1-0.1,0.1-0.2,0.2-0.4
			s0.1-0.3,0.2-0.4c-0.1,0.2-0.3,0.3-0.6,0.6s-0.7,0.5-1.2,0.7c-0.5,0.2-1.1,0.4-1.7,0.6s-1.4,0.2-2.2,0.2c-1.3,0-2.5-0.2-3.6-0.7
			c-1.1-0.5-2.1-1.1-3-1.9c-0.8-0.8-1.5-1.8-2-2.9c-0.5-1.1-0.7-2.2-0.7-3.5s0.2-2.3,0.7-3.5s1.1-2.1,2-2.9s1.8-1.5,3-2
			c1.1-0.5,2.4-0.7,3.6-0.7c0.8,0,1.6,0.1,2.3,0.4s1.3,0.5,1.9,0.8c0.5,0.3,0.9,0.6,1.2,0.8c0.3,0.3,0.5,0.5,0.5,0.5
			c0-0.3,0-0.7,0.1-1.1C399.4,46,399.4,45.6,399.5,45.3L399.5,45.3z M388,53.9c0,1.5,0.5,2.8,1.5,3.8s2.3,1.5,3.9,1.5
			s2.9-0.5,3.9-1.5s1.5-2.3,1.5-3.8s-0.5-2.8-1.5-3.8c-1-1-2.3-1.5-3.9-1.5s-2.9,0.5-3.9,1.5C388.5,51.1,388,52.4,388,53.9z"/>
	</g>
</g>
<g id="efresh">
	<g>
		<path class="st0" d="M516.7,55c-2.1,0.8-4.2,1.6-6.3,2.4c-2.1,0.8-4.2,1.6-6.3,2.4c0.5,0.7,1.1,1.2,1.8,1.6
			c0.8,0.4,1.6,0.6,2.6,0.6c1.4,0,2.6-0.5,3.5-1.5l2.4,2.9c-0.8,0.8-1.7,1.4-2.6,1.9c-1,0.4-2.1,0.7-3.2,0.7c-1.3,0-2.5-0.2-3.6-0.8
			s-2.1-1.2-2.9-2.1s-1.5-1.9-2-3c-0.5-1.2-0.7-2.4-0.7-3.7s0.2-2.5,0.7-3.7c0.5-1.2,1.1-2.2,2-3s1.8-1.5,2.9-2s2.3-0.8,3.6-0.8
			c1,0,1.9,0.2,2.8,0.6c0.9,0.4,1.7,1,2.4,1.7c0.7,0.7,1.3,1.6,1.8,2.5C516,52.8,516.4,53.9,516.7,55L516.7,55z M508.6,50.9
			c-1.6,0-2.8,0.5-3.8,1.5c-1,1-1.5,2.2-1.6,3.7c1.5-0.5,2.9-1.1,4.3-1.7c1.4-0.6,2.9-1.1,4.3-1.7c-0.4-0.5-0.9-1-1.5-1.3
			C509.8,51.1,509.2,50.9,508.6,50.9L508.6,50.9z"/>
		<path class="st0" d="M520.1,61.8h2.8V51.3h-2.8v-3.9h2.8v-6.9c0-1.8,0.3-3.4,0.8-4.8c0.6-1.4,1.3-2.6,2.3-3.5c1-1,2.2-1.7,3.5-2.2
			c1.4-0.5,2.8-0.8,4.4-0.9V33c-2.1,0.1-3.8,0.8-5.2,2.1s-2,3.1-2,5.5v6.7h5.4v3.9h-5.4v10.4h3.7v3.8h-10.3L520.1,61.8L520.1,61.8z"
			/>
		<path class="st0" d="M535.6,61.8h3.5V51.2h-3v-3.8h6.4v0.4c0.1,0.8,0.1,1.5,0.2,2.1s0.1,1.3,0.2,2.1c0.4-0.8,0.8-1.5,1.4-2.2
			c0.6-0.6,1.2-1.2,1.8-1.6s1.2-0.8,1.8-1c0.6-0.2,1.1-0.3,1.6-0.3l-0.3,3.9c-1.9,0-3.4,0.5-4.5,1.7s-1.7,2.5-1.7,4.2v5h2.9v3.8
			h-10.2L535.6,61.8L535.6,61.8z"/>
		<path class="st0" d="M570.1,55c-2.1,0.8-4.2,1.6-6.3,2.4c-2.1,0.8-4.2,1.6-6.3,2.4c0.5,0.7,1.1,1.2,1.8,1.6
			c0.8,0.4,1.6,0.6,2.6,0.6c1.4,0,2.6-0.5,3.5-1.5l2.4,2.9c-0.8,0.8-1.7,1.4-2.6,1.9c-1,0.4-2.1,0.7-3.2,0.7c-1.3,0-2.5-0.2-3.6-0.8
			s-2.1-1.2-2.9-2.1s-1.5-1.9-2-3c-0.5-1.2-0.7-2.4-0.7-3.7s0.2-2.5,0.7-3.7c0.5-1.2,1.1-2.2,2-3s1.8-1.5,2.9-2s2.3-0.8,3.6-0.8
			c1,0,1.9,0.2,2.8,0.6c0.9,0.4,1.7,1,2.4,1.7c0.7,0.7,1.3,1.6,1.8,2.5C569.4,52.8,569.8,53.9,570.1,55L570.1,55z M562,50.9
			c-1.6,0-2.8,0.5-3.8,1.5c-1,1-1.5,2.2-1.6,3.7c1.5-0.5,2.9-1.1,4.3-1.7c1.4-0.6,2.9-1.1,4.3-1.7c-0.4-0.5-0.9-1-1.5-1.3
			C563.2,51.1,562.6,50.9,562,50.9L562,50.9z"/>
		<path class="st0" d="M577.5,59.8v1.9c0.4,0.2,0.7,0.3,1.1,0.3c0.4,0,0.8,0.1,1.3,0.1c0,0,0.2,0,0.3,0c0.2,0,0.4-0.1,0.7-0.2
			c0.2-0.1,0.5-0.3,0.7-0.5c0.2-0.2,0.3-0.6,0.3-1c0-0.6-0.1-1-0.5-1.3c-0.3-0.3-0.8-0.6-1.3-0.8c-0.5-0.2-1.1-0.4-1.8-0.6
			c-0.7-0.2-1.3-0.5-1.8-0.9c-0.6-0.4-1-0.9-1.4-1.6c-0.4-0.7-0.6-1.6-0.6-2.7c0-1,0.2-1.8,0.5-2.5s0.8-1.2,1.4-1.7
			c0.5-0.4,1.2-0.8,1.8-1c0.7-0.2,1.2-0.3,1.8-0.3c0.3,0,0.7,0,1.1,0.1c0.5,0.1,0.9,0.2,1.4,0.3c0.5,0.2,0.9,0.4,1.4,0.6
			c0.5,0.3,0.8,0.6,1.2,1v4.2h-3.4v-2.1c-0.5-0.2-0.9-0.2-1.4-0.2c-0.7,0-1.2,0.2-1.5,0.5c-0.3,0.3-0.4,0.7-0.4,1.2
			c0.1,0.4,0.3,0.7,0.7,1c0.4,0.2,0.9,0.5,1.4,0.7c0.5,0.2,1.1,0.5,1.7,0.8c0.6,0.3,1.2,0.7,1.7,1.1c0.5,0.4,1,1,1.3,1.7
			c0.3,0.7,0.5,1.5,0.5,2.5c0,0.5-0.1,1-0.2,1.7c-0.2,0.7-0.5,1.3-0.9,1.9c-0.4,0.6-1,1.1-1.8,1.5c-0.8,0.4-1.8,0.6-3,0.6
			c-1.1,0-2.2-0.2-3.3-0.5s-1.9-0.8-2.5-1.5v-4.2H577.5L577.5,59.8z"/>
		<path class="st0" d="M602.1,61.8h3.6v-7.5c-0.1-0.9-0.4-1.6-0.9-2.3c-0.5-0.6-1.4-1-2.6-1c-0.8,0-1.6,0.2-2.3,0.4
			c-0.7,0.3-1.4,0.7-1.9,1.2c-0.5,0.5-1,1.1-1.3,1.8s-0.5,1.5-0.5,2.3v5h2.9v3.8h-10.2v-3.8h3.5V33.1h-3.5v-3.8h7.3v20.7l-0.1,2.2
			c0.7-1.6,1.7-2.8,3-3.7c1.3-0.9,2.8-1.3,4.6-1.4c1.8,0,3.2,0.5,4.3,1.5c1,1,1.6,2.3,1.7,3.9v9.4h2.9v3.8h-10.2L602.1,61.8
			L602.1,61.8z"/>
	</g>
</g>
</svg>
