<?xml version="1.0" encoding="UTF-8"?>
<svg id="_レイヤー_1" data-name="レイヤー 1" xmlns="http://www.w3.org/2000/svg" viewBox="0 0 612.38 135.28">
  <defs>
    <style>
      .cls-1 {
        fill: #393723;
      }

      .cls-2 {
        isolation: isolate;
      }
    </style>
  </defs>
  <g id="S_C_R" data-name="S C R" class="cls-2">
    <g class="cls-2">
      <path class="cls-1" d="m0,116.09v-22.04h15.01v16.91c3.29,2.54,7.22,4.72,11.78,6.55,4.56,1.84,9.69,2.75,15.39,2.75,3.29,0,6.46-.47,9.5-1.42s5.73-2.34,8.08-4.18c2.34-1.83,4.21-4.15,5.6-6.93,1.39-2.78,2.09-6.02,2.09-9.69,0-6.58-1.52-11.65-4.56-15.2-3.04-3.54-6.84-6.3-11.4-8.27-4.56-1.96-9.5-3.64-14.82-5.04-5.32-1.39-10.29-3.29-14.92-5.7-4.63-2.4-8.49-5.76-11.59-10.07-3.1-4.3-4.72-10.38-4.84-18.24-.13-4.18.44-8.36,1.71-12.54,1.26-4.18,3.35-7.98,6.27-11.4,2.91-3.42,6.77-6.2,11.59-8.36,4.81-2.15,10.7-3.23,17.67-3.23,2.28,0,4.75.13,7.41.38,2.66.26,5.44.76,8.36,1.52,2.91.76,5.92,1.9,9.03,3.42,3.1,1.52,6.17,3.55,9.21,6.08v18.62h-15.01v-11.21c-2.41-1.01-5.2-1.9-8.36-2.66-3.17-.76-6.65-1.14-10.45-1.14-7.35,0-12.8,2.09-16.34,6.27-3.55,4.18-5.32,9.12-5.32,14.82,0,3.8.88,6.87,2.66,9.22,1.77,2.35,4.11,4.31,7.03,5.89,2.91,1.59,6.24,2.95,9.98,4.08,3.73,1.14,7.53,2.38,11.4,3.71,3.86,1.33,7.66,2.92,11.4,4.75,3.73,1.84,7.06,4.25,9.98,7.22,2.91,2.98,5.25,6.65,7.03,11.02,1.77,4.37,2.66,9.78,2.66,16.25,0,5.7-1.04,10.83-3.13,15.39-2.09,4.56-4.94,8.46-8.55,11.69s-7.82,5.7-12.63,7.41c-4.82,1.71-9.88,2.56-15.2,2.56-4.82,0-9.5-.54-14.06-1.62s-8.74-2.5-12.54-4.27c-3.8-1.77-7.19-3.8-10.17-6.08-2.98-2.28-5.29-4.68-6.93-7.22Z"/>
      <path class="cls-1" d="m252.03,133.46c-8.35,0-16.29-1.69-23.62-5.01-7.32-3.32-13.8-7.91-19.26-13.67-5.46-5.75-9.83-12.56-12.97-20.26-3.15-7.7-4.75-16.04-4.75-24.81s1.6-17.14,4.75-24.89c3.15-7.75,7.51-14.6,12.97-20.35,5.46-5.75,11.94-10.38,19.26-13.75,7.33-3.38,15.28-5.1,23.63-5.1,5.74,0,11.26.78,16.4,2.33,5.12,1.54,10.06,3.77,14.68,6.61l.48.29v21.24h-15.19v-11.08c-5.24-2.33-10.74-3.51-16.36-3.51-6.16,0-12,1.27-17.36,3.77-5.36,2.51-10.15,6.01-14.22,10.41-4.07,4.4-7.32,9.59-9.66,15.42-2.33,5.82-3.52,12.09-3.52,18.61s1.18,12.78,3.52,18.61c2.33,5.83,5.58,10.95,9.65,15.24,4.07,4.29,8.86,7.73,14.22,10.24,5.35,2.5,11.19,3.77,17.36,3.77,8.01,0,15.53-2.14,22.35-6.35l.83-.52,8.61,13.29-.88.53c-4.5,2.72-9.37,4.91-14.5,6.51-5.14,1.6-10.66,2.42-16.41,2.42Z"/>
      <path class="cls-1" d="m269.39,35.09v-10.72c-5.57-2.58-11.35-3.87-17.36-3.87-6.34,0-12.27,1.29-17.78,3.87-5.51,2.58-10.35,6.12-14.53,10.63-4.17,4.51-7.46,9.75-9.85,15.73-2.4,5.98-3.59,12.3-3.59,18.98s1.19,13.01,3.59,18.98c2.39,5.98,5.68,11.16,9.85,15.55,4.17,4.39,9.02,7.88,14.53,10.46,5.51,2.58,11.44,3.87,17.78,3.87,8.24,0,15.86-2.17,22.87-6.5l7.51,11.6c-4.45,2.7-9.21,4.83-14.28,6.41-5.07,1.58-10.44,2.37-16.11,2.37-8.24,0-15.97-1.64-23.21-4.92-7.24-3.28-13.55-7.76-18.95-13.44-5.4-5.68-9.66-12.33-12.77-19.95-3.12-7.61-4.67-15.76-4.67-24.43s1.56-16.84,4.67-24.52c3.12-7.67,7.37-14.35,12.77-20.04,5.4-5.68,11.71-10.19,18.95-13.53,7.23-3.34,14.97-5.01,23.21-5.01,5.68,0,11.05.76,16.11,2.28,5.06,1.52,9.88,3.69,14.44,6.5v19.68h-13.19Z"/>
      <path class="cls-1" d="m411.45,117.17h7.91V21.91h-7.91v-13.88h36.91c3.98,0,8.41.62,13.27,1.85,4.86,1.23,9.4,3.19,13.62,5.89,4.22,2.7,7.73,6.15,10.55,10.37,2.81,4.22,4.22,9.31,4.22,15.29,0,8.79-2.2,16.14-6.59,22.06-4.39,5.92-10.81,9.81-19.25,11.69l19.68,42h16.52v13.88h-25.66l-25.84-54.83h-14.94v40.95h20.04v13.88h-42.53v-13.88Zm22.5-55.19h15.29c5.15,0,9.4-.67,12.74-2.01,3.34-1.34,6-3,8-4.99,1.99-1.98,3.4-4.2,4.22-6.65.82-2.45,1.23-4.78,1.23-7,0-2.56-.67-5.01-2.02-7.35-1.35-2.33-3.16-4.4-5.45-6.21-2.29-1.81-5.04-3.24-8.26-4.29-3.22-1.05-6.65-1.58-10.28-1.58h-15.47v40.07Z"/>
    </g>
  </g>
  <path class="cls-1" d="m161,130.99c-2.93-2.93-5.83-5.8-8.7-8.61-2.87-2.81-5.77-5.68-8.7-8.61l-17.05,17.05c-1.64-1.64-3.34-3.31-5.1-5.01-1.76-1.7-3.46-3.37-5.1-5.01l17.22-17.22-17.4-17.4,10.37-10.37,17.4,17.4,17.22-17.22c1.64,1.64,3.31,3.34,5.01,5.1,1.7,1.76,3.37,3.46,5.01,5.1l-17.05,17.05c2.93,2.93,5.8,5.83,8.61,8.7,2.81,2.87,5.68,5.77,8.61,8.7l-10.37,10.37Z"/>
  <path class="cls-1" d="m365,130.99c-2.93-2.93-5.83-5.8-8.7-8.61-2.87-2.81-5.77-5.68-8.7-8.61l-17.05,17.05c-1.64-1.64-3.34-3.31-5.1-5.01-1.76-1.7-3.46-3.37-5.1-5.01l17.22-17.22-17.4-17.4,10.37-10.37,17.4,17.4,17.22-17.22c1.64,1.64,3.31,3.34,5.01,5.1,1.7,1.76,3.37,3.46,5.01,5.1l-17.05,17.05c2.93,2.93,5.8,5.83,8.61,8.7,2.81,2.87,5.68,5.77,8.61,8.7l-10.37,10.37Z"/>
  <g id="iwa" class="cls-2">
    <g class="cls-2">
      <path class="cls-1" d="m99.53,58.95h3.56v-7.19c-.06-.83-.36-1.55-.9-2.16-.54-.6-1.39-.94-2.56-1-.8,0-1.56.14-2.29.42-.72.28-1.36.66-1.92,1.16s-1,1.08-1.34,1.76c-.34.68-.51,1.42-.51,2.23v4.78h2.91v3.65h-10.25v-3.65h3.51v-27.34h-3.51v-3.65h7.34v19.67l-.14,2.08c.68-1.51,1.66-2.67,2.96-3.49,1.29-.82,2.82-1.27,4.57-1.36,1.82,0,3.25.48,4.29,1.43,1.05.95,1.6,2.2,1.66,3.74v8.91h2.86v3.65h-10.25v-3.65Z"/>
      <path class="cls-1" d="m113.02,58.95h3.23v-10.02h-3.23v-3.65h7.07v13.67h3.19v3.65h-10.25v-3.65Zm2.82-20.37c0-.71.25-1.29.74-1.75.49-.46,1.05-.69,1.66-.69.58,0,1.12.23,1.62.69.49.46.74,1.05.74,1.75s-.25,1.29-.74,1.73c-.49.45-1.03.67-1.62.67-.62,0-1.17-.22-1.66-.67-.49-.45-.74-1.02-.74-1.73Z"/>
      <path class="cls-1" d="m151.72,45.28h9.93v3.65h-3.53c-1.23,2.49-2.47,4.96-3.72,7.39-1.25,2.43-2.49,4.88-3.72,7.34l-6.28-12.42-6.28,12.42c-1.26-2.46-2.51-4.92-3.74-7.37-1.23-2.45-2.48-4.9-3.74-7.37h-4.09v-3.65h9.56v3.65h-1.64c.68,1.35,1.34,2.7,1.99,4.04s1.2,2.7,1.66,4.09c.34-1.05.75-2.07,1.22-3.07.48-1,.96-2.01,1.45-3.02.15-.34.32-.68.49-1.02.17-.34.33-.68.48-1.02h-2.33v-3.65h10.25v3.65h-2.66c.68,1.35,1.34,2.7,1.99,4.04s1.2,2.7,1.66,4.09c.46-1.39,1-2.75,1.62-4.09s1.28-2.69,1.98-4.04h-2.56v-3.65Z"/>
      <path class="cls-1" d="m164.83,53.97c0-1.2.24-2.35.72-3.46.48-1.11,1.13-2.08,1.96-2.91s1.82-1.49,2.96-1.99c1.14-.49,2.36-.74,3.65-.74.83,0,1.6.12,2.31.37.71.25,1.32.52,1.85.81.52.29.94.58,1.25.85.31.28.46.46.46.55,0-.34.03-.69.09-1.06.06-.37.09-.74.09-1.11h3.19v13.67h3.51v3.65h-6.88v-1.85c-.03.09-.18.26-.46.51-.28.25-.67.5-1.18.76-.51.26-1.12.49-1.82.69-.71.2-1.51.3-2.4.3-1.29,0-2.51-.24-3.65-.72-1.14-.48-2.12-1.13-2.96-1.96s-1.49-1.79-1.96-2.89c-.48-1.09-.72-2.25-.72-3.49Zm3.83-.05c0,1.51.5,2.78,1.51,3.81,1,1.03,2.31,1.55,3.92,1.55s2.91-.52,3.92-1.55c1-1.03,1.51-2.3,1.51-3.81s-.5-2.81-1.51-3.81c-1-1-2.31-1.5-3.92-1.5s-2.91.5-3.92,1.5c-1.01,1-1.51,2.27-1.51,3.81Z"/>
    </g>
  </g>
  <g id="ycling" class="cls-2">
    <g class="cls-2">
      <path class="cls-1" d="m286.17,70.5h4.16c.65-1.32,1.3-2.65,1.96-3.97.66-1.32,1.33-2.63,2.01-3.93-1.17-2.31-2.32-4.59-3.44-6.83-1.12-2.25-2.27-4.53-3.44-6.83h-3.88v-3.65h10.25v3.65h-2.45c.89,1.69,1.79,3.39,2.68,5.1.89,1.71,1.63,3.43,2.22,5.15.58-1.72,1.32-3.44,2.19-5.15.88-1.71,1.76-3.41,2.66-5.1h-2.86v-3.65h10.58v3.65h-3.79c-1.82,3.63-3.62,7.23-5.43,10.78-1.8,3.56-3.61,7.15-5.43,10.78h2.26v3.65h-10.25v-3.65Z"/>
      <path class="cls-1" d="m327.04,61.03c-.8.62-1.69,1.1-2.66,1.46-.97.35-2.01.53-3.12.53-1.29,0-2.5-.24-3.62-.72s-2.1-1.13-2.93-1.96c-.83-.83-1.49-1.79-1.96-2.89-.48-1.09-.72-2.27-.72-3.53s.24-2.4.72-3.51c.48-1.11,1.13-2.07,1.96-2.89.83-.82,1.81-1.46,2.93-1.94,1.12-.48,2.33-.72,3.62-.72,1.14,0,2.2.18,3.19.53.99.35,1.88.84,2.68,1.46v5.36h-3.42v-3.09c-.77-.34-1.59-.51-2.45-.51-1.6,0-2.9.5-3.9,1.5-1,1-1.5,2.27-1.5,3.81s.5,2.78,1.5,3.81c1,1.03,2.3,1.55,3.9,1.55,1.35,0,2.51-.38,3.46-1.15l2.31,2.91Z"/>
      <path class="cls-1" d="m330.37,58.95h3.51v-27.34h-3.05v-3.65h6.88v30.99h2.91v3.65h-10.25v-3.65Z"/>
      <path class="cls-1" d="m343.85,58.95h3.23v-10.02h-3.23v-3.65h7.07v13.67h3.19v3.65h-10.25v-3.65Zm2.82-20.37c0-.71.25-1.29.74-1.75.49-.46,1.05-.69,1.66-.69s1.12.23,1.62.69.74,1.05.74,1.75-.25,1.29-.74,1.73c-.49.45-1.03.67-1.62.67-.62,0-1.17-.22-1.66-.67-.49-.45-.74-1.02-.74-1.73Z"/>
      <path class="cls-1" d="m370.64,58.95h3.56v-7.19c-.06-.83-.36-1.55-.9-2.16-.54-.6-1.39-.94-2.56-1-.8,0-1.56.14-2.29.42-.72.28-1.36.67-1.92,1.17-.55.5-1,1.09-1.34,1.77-.34.68-.51,1.43-.51,2.23v4.76h2.91v3.65h-10.25v-3.65h3.51v-10.02h-3.05v-3.65h6.42v.42c.06.74.12,1.41.16,2.01.05.6.1,1.27.16,2.01.62-1.48,1.61-2.66,2.98-3.53,1.37-.88,2.89-1.32,4.55-1.32,1.82,0,3.25.48,4.29,1.43,1.05.95,1.6,2.2,1.66,3.74v8.91h2.86v3.65h-10.25v-3.65Z"/>
      <path class="cls-1" d="m399.46,45.28h6.7v3.65h-3.51v16.44c0,1.23-.24,2.38-.72,3.44-.48,1.06-1.13,1.99-1.96,2.77s-1.8,1.41-2.91,1.87-2.31.69-3.6.69c-1.39,0-2.72-.3-4.02-.9-1.29-.6-2.4-1.22-3.33-1.87l2.54-3.14c.62.46,1.33.9,2.15,1.32.82.42,1.67.62,2.56.62.8,0,1.53-.14,2.19-.42.66-.28,1.24-.65,1.73-1.13.49-.48.87-1.05,1.13-1.71.26-.66.39-1.38.39-2.15v-3.09c.06-.12.12-.25.18-.39.06-.14.12-.28.18-.44-.09.15-.29.35-.6.58s-.71.46-1.2.69c-.49.23-1.07.43-1.73.6-.66.17-1.41.25-2.24.25-1.29,0-2.51-.24-3.65-.72-1.14-.48-2.12-1.12-2.96-1.94-.83-.82-1.49-1.77-1.96-2.86-.48-1.09-.72-2.25-.72-3.49s.24-2.35.72-3.46,1.13-2.08,1.96-2.91c.83-.83,1.82-1.49,2.96-1.99,1.14-.49,2.36-.74,3.65-.74.83,0,1.6.12,2.31.37.71.25,1.32.52,1.85.81.52.29.94.58,1.25.85.31.28.46.46.46.55,0-.34.03-.69.09-1.06.06-.37.09-.74.09-1.11Zm-11.5,8.61c0,1.5.5,2.77,1.51,3.79s2.31,1.54,3.92,1.54,2.91-.51,3.92-1.54,1.51-2.29,1.51-3.79-.5-2.8-1.51-3.79c-1-1-2.31-1.49-3.92-1.49s-2.91.5-3.92,1.49c-1,1-1.51,2.26-1.51,3.79Z"/>
    </g>
  </g>
  <g id="efresh" class="cls-2">
    <g class="cls-2">
      <path class="cls-1" d="m516.69,55.03c-2.09.81-4.18,1.62-6.26,2.42-2.08.81-4.17,1.62-6.26,2.42.46.68,1.07,1.22,1.82,1.62.75.4,1.61.61,2.56.61,1.42,0,2.59-.52,3.51-1.55l2.36,2.91c-.77.81-1.65,1.44-2.63,1.89-.99.45-2.06.68-3.23.68-1.29,0-2.5-.25-3.62-.75-1.12-.5-2.1-1.19-2.93-2.06-.83-.87-1.49-1.88-1.96-3.03-.48-1.15-.72-2.38-.72-3.71s.24-2.52.72-3.69c.48-1.16,1.13-2.17,1.96-3.03.83-.86,1.81-1.54,2.93-2.04,1.12-.5,2.33-.75,3.62-.75.95,0,1.87.2,2.75.61.88.4,1.66.96,2.36,1.67.69.71,1.3,1.56,1.82,2.55.52.99.92,2.06,1.2,3.22Zm-8.13-4.12c-1.57,0-2.85.49-3.83,1.48-.99.99-1.51,2.22-1.57,3.71,1.45-.55,2.89-1.11,4.32-1.67,1.43-.57,2.87-1.12,4.32-1.67-.43-.55-.92-.99-1.46-1.33-.54-.34-1.13-.51-1.78-.51Z"/>
      <path class="cls-1" d="m520.1,61.77h2.82v-10.43h-2.82v-3.93h2.77v-6.89c0-1.81.28-3.41.85-4.8.57-1.39,1.35-2.56,2.33-3.52.98-.95,2.16-1.68,3.53-2.18,1.37-.5,2.84-.78,4.41-.85v3.83c-2.11.13-3.85.84-5.21,2.13s-2.04,3.14-2.04,5.53v6.74h5.4v3.93h-5.4v10.43h3.65v3.83h-10.3v-3.83Z"/>
      <path class="cls-1" d="m535.62,61.77h3.51v-10.52h-3.05v-3.83h6.42v.44c.06.78.12,1.48.16,2.11s.1,1.33.16,2.11c.37-.81.84-1.53,1.41-2.16.57-.63,1.17-1.16,1.8-1.6.63-.44,1.25-.77,1.85-.99.6-.23,1.13-.34,1.59-.34l-.28,3.93c-1.88,0-3.39.55-4.53,1.66-1.14,1.11-1.71,2.51-1.71,4.21v4.99h2.91v3.83h-10.25v-3.83Z"/>
      <path class="cls-1" d="m570.07,55.03c-2.09.81-4.18,1.62-6.26,2.42-2.08.81-4.17,1.62-6.26,2.42.46.68,1.07,1.22,1.82,1.62.75.4,1.61.61,2.56.61,1.42,0,2.59-.52,3.51-1.55l2.36,2.91c-.77.81-1.65,1.44-2.63,1.89-.99.45-2.06.68-3.23.68-1.29,0-2.5-.25-3.62-.75-1.12-.5-2.1-1.19-2.93-2.06-.83-.87-1.49-1.88-1.96-3.03-.48-1.15-.72-2.38-.72-3.71s.24-2.52.72-3.69c.48-1.16,1.13-2.17,1.96-3.03.83-.86,1.81-1.54,2.93-2.04,1.12-.5,2.33-.75,3.62-.75.95,0,1.87.2,2.75.61.88.4,1.66.96,2.36,1.67.69.71,1.3,1.56,1.82,2.55.52.99.92,2.06,1.2,3.22Zm-8.13-4.12c-1.57,0-2.85.49-3.83,1.48-.99.99-1.51,2.22-1.57,3.71,1.45-.55,2.89-1.11,4.32-1.67,1.43-.57,2.87-1.12,4.32-1.67-.43-.55-.92-.99-1.46-1.33-.54-.34-1.13-.51-1.78-.51Z"/>
      <path class="cls-1" d="m577.46,59.78v1.89c.37.16.74.27,1.1.31.36.05.8.07,1.33.07.03,0,.15,0,.35-.02.2-.02.43-.08.68-.19.25-.11.47-.28.68-.51.2-.23.32-.57.35-1.02.03-.58-.12-1.03-.46-1.33-.34-.31-.78-.57-1.33-.78-.54-.21-1.14-.42-1.79-.63-.65-.21-1.26-.5-1.84-.87-.57-.37-1.04-.9-1.42-1.58-.37-.68-.56-1.58-.56-2.72,0-1,.18-1.84.55-2.52.37-.68.83-1.24,1.39-1.67.55-.44,1.15-.75,1.8-.95.65-.19,1.23-.29,1.75-.29.31,0,.69.03,1.13.1.45.07.9.18,1.36.34.46.16.92.37,1.36.63.45.26.84.58,1.18.97v4.22h-3.42v-2.09c-.47-.16-.94-.24-1.41-.24-.69,0-1.19.15-1.5.46-.31.31-.44.72-.38,1.24.06.39.29.7.7.95.4.24.87.48,1.42.7.54.23,1.12.48,1.74.78.62.29,1.19.65,1.72,1.09.53.44.96.99,1.3,1.65.34.66.51,1.5.51,2.5,0,.45-.09,1-.25,1.65-.17.65-.47,1.28-.9,1.89-.43.61-1.03,1.13-1.8,1.55-.77.42-1.77.63-3,.63-1.14,0-2.23-.15-3.28-.46s-1.88-.82-2.49-1.53v-4.22h3.42Z"/>
      <path class="cls-1" d="m602.12,61.77h3.56v-7.55c-.06-.88-.36-1.63-.9-2.26-.54-.63-1.39-.98-2.56-1.05-.8,0-1.56.15-2.29.44-.72.29-1.36.7-1.92,1.22-.55.52-1,1.14-1.34,1.85-.34.71-.51,1.49-.51,2.34v5.02h2.91v3.83h-10.25v-3.83h3.51v-28.71h-3.51v-3.83h7.34v20.66l-.14,2.18c.68-1.58,1.66-2.8,2.96-3.66,1.29-.86,2.82-1.33,4.57-1.43,1.82,0,3.25.5,4.29,1.5,1.05,1,1.6,2.31,1.66,3.93v9.36h2.86v3.83h-10.25v-3.83Z"/>
    </g>
  </g>
</svg>