<?xml version="1.0" encoding="utf-8"?>
<!-- Generator: Adobe Illustrator 27.2.0, SVG Export Plug-In . SVG Version: 6.00 Build 0)  -->
<svg version="1.1" id="レイヤー_1" xmlns="http://www.w3.org/2000/svg" xmlns:xlink="http://www.w3.org/1999/xlink" x="0px"
	 y="0px" viewBox="0 0 552.8 995.5" style="enable-background:new 0 0 552.8 995.5;" xml:space="preserve">
<style type="text/css">
	.st0{display:none;}
	.st1{display:inline;}
	.st2{display:inline;fill:none;}
	.st3{fill:#E5E8EE;}
	.st4{fill:none;stroke:#7B8395;stroke-width:5.6693;stroke-miterlimit:10;stroke-dasharray:14.1732,11.3386;}
	.st5{fill:none;stroke:#FFFFFF;stroke-width:5.6693;stroke-miterlimit:10;}
	.st6{fill:none;stroke:#E2C4EA;stroke-width:5.6693;stroke-miterlimit:10;stroke-dasharray:14.1732,11.3386;}
	.st7{fill:none;stroke:#FF7D44;stroke-width:5.6693;stroke-miterlimit:10;}
	.st8{fill:#D3D8E3;stroke:#7B8395;stroke-miterlimit:10;}
	.st9{fill:#ECDCF0;stroke:#7B8395;}
	.st10{fill:none;stroke:#7B8395;stroke-dasharray:7,5;}
	.st11{fill:#FFFFFF;}
	.st12{fill:#E18CF6;}
	.st13{fill:#E18CF6;stroke:#7B8395;stroke-width:2.8346;stroke-miterlimit:10;}
	.st14{fill:none;stroke:#FF7D44;stroke-width:2.8346;stroke-miterlimit:10;}
	.st15{fill:#F6921E;stroke:#7B8395;stroke-width:2.8346;}
	.st16{fill:#FF7D44;stroke:#FFFFFF;stroke-miterlimit:10;}
	.st17{fill:none;stroke:#000000;stroke-miterlimit:10;}
	.st18{fill:#E4F303;}
	.st19{font-family:'HiraKakuProN-W6-83pv-RKSJ-H';}
	.st20{font-size:35.4025px;}
	.st21{letter-spacing:3;}
	.st22{fill:none;stroke:#FF00FF;stroke-width:1.4173;}
</style>
<g id="レイヤー_1_00000165208182172825786960000007421713314363060659_" class="st0">
	
		<image style="display:inline;overflow:visible;enable-background:new    ;" width="1500" height="1446" xlink:href="../../../スクリーンショット 2023-01-24 10.54.38.png"  transform="matrix(0.5 0 0 0.5 -1079 95.8745)">
	</image>
	<g id="sIZlUz_00000005957422320907033660000007805061877306363835_" class="st1">
	</g>
	<g id="Nb32Ii_00000062887265304976238500000011918436714683193498_" class="st1">
	</g>
	<line class="st2" x1="66.1" y1="815" x2="126.7" y2="815"/>
	<g id="vl6Q5l_00000170985052980806348580000000556630201873992864_" class="st1">
	</g>
</g>
<g id="レイヤー_2_00000007389070117829677960000007949479738054877607_">
	<rect y="790.9" class="st3" width="165" height="207"/>
	<line class="st4" x1="18.9" y1="911" x2="134" y2="911"/>
	<g>
		<line class="st5" x1="18" y1="848" x2="129.4" y2="848"/>
		<line class="st6" x1="18" y1="848" x2="133.1" y2="848"/>
	</g>
	<line class="st7" x1="16.1" y1="974" x2="131.3" y2="974"/>
	<polyline class="st8" points="266,325.4 238.8,290.6 51.4,290.6 65.1,335 2,448.3 47.1,464 54.5,614.4 22.6,717.3 226.5,784.4 
		259.6,762.7 	"/>
	<polygon class="st8" points="465.2,259.9 263.3,322.4 245,480.1 202.4,586.7 256.5,759.7 395.9,821.4 503.3,708.6 552.8,518.9 	"/>
	<g id="グループ_57" transform="translate(-207.783 -3387.498)">
		<g id="紫波地形" transform="translate(208.532 3388)">
			<path id="パス_5" class="st9" d="M382.4,530.4c-7.5-1.1-93.1,5.2-93.1,5.2l12.9,20.7l85.6,21.6l7.4-39.1L382.4,530.4z"/>
			<line id="線_5" class="st10" x1="364.3" y1="533.1" x2="364.3" y2="570.3"/>
			<line id="線_6" class="st10" x1="332.7" y1="535.2" x2="332.7" y2="562.4"/>
		</g>
	</g>
	<polyline class="st8" points="192.2,917.9 219.5,842.4 192.5,773.4 256.5,760.7 395.9,822.4 425.5,760.4 454.5,760.4 459.5,793.4 
		413.5,850.4 461.5,880.5 441.5,909.4 360.5,920.4 343.5,955.4 	"/>
	<polygon class="st8" points="51.4,290.6 54.5,239.4 122.6,207.6 163.5,80.4 199.5,86.4 227.5,178.4 282.5,139.4 327.5,170.4 
		357.5,79.4 275.7,95.9 304.5,1.4 390.5,26.4 434.5,213.4 465.2,260.9 263.3,323.4 238.5,291.4 	"/>
	<g>
		<path d="M17.7,880.3h8.5c0.2,0,0.4,0.1,0.5,0.2c0.1,0.1,0.2,0.3,0.2,0.5s-0.1,0.4-0.2,0.5c-0.1,0.1-0.3,0.2-0.5,0.2h-3.7
			c-0.1,0-0.1,0-0.1,0.1c-0.1,0.8-0.4,1.6-0.6,2.4c0,0.1,0,0.1,0.1,0.1h3.4c0.3,0,0.6,0.1,0.8,0.3s0.3,0.5,0.2,0.8
			c-0.2,1.4-0.7,2.8-1.2,4c-0.6,1.3-1.3,2.4-2.1,3.4s-1.7,1.9-2.6,2.7s-1.8,1.3-2.7,1.7c-0.1,0-0.2,0.1-0.3,0.1
			c-0.2,0-0.4-0.1-0.5-0.2c-0.2-0.2-0.2-0.3-0.2-0.6c0-0.4,0.2-0.7,0.5-0.8c1-0.5,1.9-1.1,2.7-1.8s1.5-1.5,2.1-2.3
			c0-0.1,0-0.1,0-0.2c-0.2-0.4-0.5-0.8-0.8-1.2s-0.6-0.7-0.9-1c-0.2-0.2-0.2-0.3-0.2-0.5s0.1-0.4,0.2-0.5c0.2-0.2,0.4-0.2,0.6-0.2
			c0.2,0,0.4,0.1,0.5,0.2c0.6,0.5,1.1,1.1,1.5,1.8c0.1,0.1,0.1,0.1,0.2,0c0.4-0.7,0.7-1.3,1-2s0.5-1.3,0.6-2c0-0.1,0-0.1-0.1-0.1
			h-3.3c-0.1,0-0.1,0-0.1,0.1c-0.4,0.8-0.8,1.6-1.3,2.3s-1,1.4-1.5,1.9c-0.2,0.2-0.3,0.2-0.5,0.2c-0.3,0-0.5-0.1-0.7-0.3
			c-0.1-0.2-0.2-0.3-0.2-0.5c0-0.3,0.1-0.5,0.3-0.7c0.9-0.8,1.6-1.8,2.2-3c0.6-1.2,1.1-2.5,1.4-4l0,0c0-0.1,0-0.1-0.1-0.1h-2.9
			c-0.2,0-0.4-0.1-0.5-0.2c-0.1-0.1-0.2-0.3-0.2-0.5s0.1-0.4,0.2-0.5C17.4,880.3,17.6,880.3,17.7,880.3z M28.2,881.9
			c0.2,0,0.4,0.1,0.6,0.2c0.2,0.2,0.2,0.3,0.2,0.6v10.6c0,0.2-0.1,0.4-0.2,0.6c-0.2,0.2-0.3,0.2-0.6,0.2c-0.2,0-0.4-0.1-0.6-0.2
			c-0.2-0.2-0.2-0.3-0.2-0.6v-10.6c0-0.2,0.1-0.4,0.2-0.6C27.8,882,28,881.9,28.2,881.9z M32.8,879.4c0.2,0,0.4,0.1,0.6,0.2
			c0.2,0.2,0.2,0.4,0.2,0.6v15c0,0.8-0.2,1.3-0.7,1.7c-0.5,0.3-1.2,0.5-2.1,0.5c-0.1,0-0.3,0-0.4,0c-0.1,0-0.3,0-0.4,0
			c-0.2,0-0.4-0.1-0.5-0.3s-0.2-0.3-0.2-0.5c0-0.3,0.1-0.5,0.3-0.6c0.2-0.2,0.4-0.2,0.6-0.2c0.2,0,0.3,0,0.4,0c0.1,0,0.3,0,0.4,0
			c0.4,0,0.7,0,0.8-0.1c0.2-0.1,0.2-0.2,0.2-0.4v-15c0-0.2,0.1-0.4,0.2-0.6S32.6,879.4,32.8,879.4z"/>
		<path d="M49,893.3C49,893.4,49,893.4,49,893.3l7.2,0.1c0.2,0,0.4,0.1,0.5,0.2s0.2,0.3,0.2,0.5s-0.1,0.4-0.2,0.5
			c-0.2,0.2-0.3,0.2-0.5,0.2h-7.1c-0.1,0-0.1,0-0.1,0.1v1.6c0,0.2-0.1,0.4-0.2,0.6c-0.2,0.2-0.3,0.2-0.6,0.2c-0.2,0-0.4-0.1-0.6-0.2
			c-0.2-0.2-0.2-0.3-0.2-0.6v-1.6c0-0.1,0-0.1-0.1-0.1h-7c-0.2,0-0.4-0.1-0.5-0.2c-0.1-0.2-0.2-0.3-0.2-0.5s0.1-0.4,0.2-0.5
			c0.1-0.2,0.3-0.2,0.5-0.2h7c0.1,0,0.1,0,0.1-0.1v-1.2c0-0.1,0-0.1-0.1-0.1h-3.9c-0.4,0-0.6-0.1-0.9-0.4c-0.2-0.2-0.4-0.5-0.4-0.9
			v-5.4c0-0.3,0.1-0.6,0.4-0.9c0.2-0.2,0.5-0.4,0.9-0.4h3.9c0.1,0,0.1,0,0.1-0.1v-1.2c0-0.1,0-0.1-0.1-0.1h-6.6
			c-0.2,0-0.4-0.1-0.5-0.2c-0.2-0.2-0.2-0.3-0.2-0.5s0.1-0.4,0.2-0.6c0.2-0.1,0.3-0.2,0.5-0.2h6.6c0.1,0,0.1,0,0.1-0.1v-0.8
			c0-0.2,0.1-0.4,0.2-0.6c0.2-0.2,0.3-0.2,0.6-0.2c0.2,0,0.4,0.1,0.6,0.2s0.2,0.3,0.2,0.6v0.8c0,0.1,0,0.1,0.1,0.1h6.6
			c0.2,0,0.4,0.1,0.5,0.2c0.2,0.1,0.2,0.3,0.2,0.6c0,0.2-0.1,0.4-0.2,0.5c-0.2,0.2-0.3,0.2-0.5,0.2h-6.6c-0.1,0-0.1,0-0.1,0.1v1.2
			c0,0.1,0,0.1,0.1,0.1H53c0.4,0,0.6,0.1,0.9,0.4c0.2,0.2,0.4,0.5,0.4,0.9v5.4c0,0.3-0.1,0.6-0.4,0.9S53.4,892,53,892h-3.9
			c-0.1,0-0.1,0-0.1,0.1V893.3z M47.3,887.3C47.4,887.3,47.4,887.3,47.3,887.3l0.1-1.5c0-0.1,0-0.1-0.1-0.1h-3.5
			c-0.1,0-0.1,0-0.1,0.1v1.4c0,0.1,0,0.1,0.1,0.1H47.3z M47.5,888.9C47.5,888.8,47.5,888.8,47.5,888.9l-3.6-0.1
			c-0.1,0-0.1,0-0.1,0.1v1.4c0,0.1,0,0.1,0.1,0.1h3.5c0.1,0,0.1,0,0.1-0.1V888.9z M49,887.2C49,887.3,49,887.3,49,887.2l3.6,0.1
			c0.1,0,0.1,0,0.1-0.1v-1.4c0-0.1,0-0.1-0.1-0.1h-3.5c-0.1,0-0.1,0-0.1,0.1V887.2z M49.1,888.8C49,888.8,49,888.8,49.1,888.8
			l-0.1,1.5c0,0.1,0,0.1,0.1,0.1h3.5c0.1,0,0.1,0,0.1-0.1v-1.4c0-0.1,0-0.1-0.1-0.1H49.1z"/>
	</g>
	<g>
		<path d="M27.3,946C27.3,946.1,27.3,946.1,27.3,946l7,0.1c0.2,0,0.4,0.1,0.6,0.2s0.2,0.3,0.2,0.5s-0.1,0.4-0.2,0.5
			s-0.3,0.2-0.6,0.2H18.7c-0.2,0-0.4-0.1-0.6-0.2s-0.2-0.3-0.2-0.5s0.1-0.4,0.2-0.5s0.3-0.2,0.6-0.2h6.9c0.1,0,0.1,0,0.1-0.1v-0.7
			c0-0.2,0.1-0.4,0.2-0.6s0.3-0.2,0.6-0.2c0.2,0,0.4,0.1,0.6,0.2c0.2,0.2,0.2,0.3,0.2,0.6V946z M19.8,954.2h13.4
			c0.3,0,0.6,0.1,0.9,0.4s0.4,0.5,0.4,0.9v5.2c0,0.7-0.3,1.3-0.8,1.6s-1.3,0.5-2.3,0.5c-0.2,0-0.4-0.1-0.6-0.3s-0.2-0.4-0.2-0.6
			c0-0.2,0.1-0.4,0.3-0.6s0.4-0.2,0.6-0.2c0.6,0,1,0,1.2-0.1s0.3-0.2,0.3-0.4v-4.9c0-0.1,0-0.1-0.1-0.1H20.4c-0.1,0-0.1,0-0.1,0.1
			v6.1c0,0.2-0.1,0.4-0.2,0.6c-0.2,0.2-0.3,0.2-0.6,0.2s-0.4-0.1-0.6-0.2c-0.2-0.2-0.2-0.3-0.2-0.6v-6.5c0-0.3,0.1-0.6,0.4-0.9
			C19.1,954.3,19.4,954.2,19.8,954.2z M29.9,953.1H23c-0.4,0-0.6-0.1-0.9-0.4c-0.2-0.2-0.4-0.5-0.4-0.9V950c0-0.3,0.1-0.6,0.4-0.9
			c0.2-0.2,0.5-0.4,0.9-0.4h6.9c0.3,0,0.6,0.1,0.9,0.4c0.2,0.2,0.4,0.5,0.4,0.9v1.8c0,0.3-0.1,0.6-0.4,0.9
			C30.6,953,30.3,953.1,29.9,953.1z M24,956.8h4.9c0.3,0,0.6,0.1,0.9,0.4c0.2,0.2,0.4,0.5,0.4,0.9v1.8c0,0.3-0.1,0.6-0.4,0.9
			c-0.2,0.2-0.5,0.4-0.9,0.4H24c-0.4,0-0.6-0.1-0.9-0.4s-0.4-0.5-0.4-0.9v-1.8c0-0.3,0.1-0.6,0.4-0.9S23.7,956.8,24,956.8z
			 M29.7,950.3C29.7,950.2,29.7,950.2,29.7,950.3l-6.2-0.1c-0.1,0-0.1,0-0.1,0.1v1.2c0,0.1,0,0.1,0.1,0.1h6.1c0.1,0,0.1,0,0.1-0.1
			V950.3z M24.3,959.5C24.3,959.6,24.3,959.6,24.3,959.5l4.2,0.1c0.1,0,0.1,0,0.1-0.1v-1.1c0-0.1,0-0.1-0.1-0.1h-4.1
			c-0.1,0-0.1,0-0.1,0.1V959.5z"/>
		<path d="M49.4,960.8h7.7c0.2,0,0.4,0.1,0.6,0.2c0.2,0.2,0.2,0.3,0.2,0.6c0,0.2-0.1,0.4-0.2,0.5c-0.2,0.2-0.3,0.2-0.6,0.2h-7.7
			c-1.2,0-2.3-0.1-3.2-0.4c-1-0.3-1.8-0.8-2.5-1.5c-0.1-0.1-0.1-0.1-0.2,0c-0.3,0.4-0.7,0.8-1.1,1.2c-0.4,0.4-1,0.7-1.6,0.9
			c-0.1,0-0.2,0.1-0.3,0.1c-0.2,0-0.4-0.1-0.5-0.2s-0.2-0.3-0.2-0.5c0-0.4,0.2-0.6,0.5-0.8c0.6-0.3,1.1-0.7,1.5-1.1
			c0.4-0.4,0.7-0.8,0.9-1.2v-0.1v-4.5c0-0.1,0-0.1-0.1-0.1H41c-0.2,0-0.4-0.1-0.6-0.2c-0.1-0.2-0.2-0.3-0.2-0.5s0.1-0.4,0.2-0.6
			c0.1-0.1,0.3-0.2,0.6-0.2h2.1c0.4,0,0.7,0.1,0.9,0.4s0.4,0.5,0.4,0.9v4.9v0.1c0.6,0.9,1.3,1.4,2.1,1.7
			C47.3,960.7,48.3,960.8,49.4,960.8z M40.7,947.5c-0.2,0-0.4-0.2-0.5-0.3c-0.1-0.2-0.1-0.4-0.1-0.6c0.1-0.2,0.2-0.4,0.3-0.5
			s0.3-0.2,0.5-0.2c0.1,0,0.1,0,0.2,0c0.4,0.1,0.9,0.2,1.4,0.4s1,0.3,1.5,0.5c0.2,0.1,0.3,0.2,0.4,0.3s0.1,0.3,0.1,0.5
			s-0.1,0.4-0.2,0.6c-0.1,0.1-0.3,0.2-0.5,0.2h-0.1h-0.1c-0.4-0.2-0.9-0.3-1.4-0.5C41.7,947.7,41.2,947.6,40.7,947.5z M57.4,957.5
			c0.4,0.1,0.6,0.4,0.6,0.8c0,0.2-0.1,0.4-0.2,0.5c-0.1,0.1-0.3,0.2-0.5,0.2c-0.1,0-0.1,0-0.2,0c-0.5-0.2-1-0.4-1.6-0.7
			s-1.1-0.6-1.7-1s-1.1-0.8-1.6-1.3h-0.1c0,0-0.1,0-0.1,0.1v3c0,0.2-0.1,0.4-0.2,0.5c-0.2,0.1-0.3,0.2-0.5,0.2s-0.4-0.1-0.5-0.2
			c-0.2-0.1-0.2-0.3-0.2-0.5v-3c0-0.1,0-0.1-0.1-0.1s-0.1,0-0.1,0c-0.5,0.6-1.2,1.1-2,1.6s-1.6,0.9-2.5,1.3c-0.1,0-0.2,0-0.2,0
			c-0.2,0-0.3-0.1-0.5-0.2c-0.1-0.1-0.2-0.3-0.2-0.5c0-0.4,0.2-0.6,0.5-0.8c0.7-0.3,1.4-0.7,2.2-1.2c0.7-0.5,1.3-1,1.8-1.5
			c0.1-0.1,0-0.1-0.1-0.1h-1.9c-0.4,0-0.6-0.1-0.9-0.4c-0.2-0.2-0.4-0.5-0.4-0.9v-2.7c0-0.3,0.1-0.6,0.4-0.9
			c0.2-0.2,0.5-0.4,0.9-0.4h2.9c0.1,0,0.1,0,0.1-0.1V948c0-0.1,0-0.1-0.1-0.1h-4.7c-0.2,0-0.4-0.1-0.5-0.2c-0.1-0.1-0.2-0.3-0.2-0.5
			s0.1-0.4,0.2-0.5c0.1-0.1,0.3-0.2,0.5-0.2h4.7c0.1,0,0.1,0,0.1-0.1v-0.9c0-0.2,0.1-0.4,0.2-0.5s0.3-0.2,0.5-0.2s0.4,0.1,0.5,0.2
			c0.2,0.2,0.2,0.3,0.2,0.5v0.9c0,0.1,0,0.1,0.1,0.1h4.9c0.2,0,0.4,0.1,0.5,0.2c0.2,0.1,0.2,0.3,0.2,0.5s-0.1,0.4-0.2,0.5
			c-0.2,0.1-0.3,0.2-0.5,0.2H52c-0.1,0-0.1,0-0.1,0.1v1.2c0,0.1,0,0.1,0.1,0.1h2.9c0.3,0,0.6,0.1,0.9,0.4s0.4,0.5,0.4,0.9v2.7
			c0,0.4-0.1,0.6-0.4,0.9c-0.2,0.2-0.5,0.4-0.9,0.4H53c-0.1,0-0.1,0-0.1,0v0.1c0.5,0.5,1.1,1,1.9,1.5
			C55.9,956.9,56.6,957.3,57.4,957.5z M50.6,951C50.6,950.9,50.6,950.9,50.6,951l-2.6-0.1c-0.1,0-0.1,0-0.1,0.1v2.1
			c0,0.1,0,0.1,0.1,0.1h2.5c0.1,0,0.1,0,0.1-0.1V951z M54.8,953.3C54.9,953.3,54.9,953.3,54.8,953.3l0.1-2.2c0-0.1,0-0.1-0.1-0.1
			h-2.5c-0.1,0-0.1,0-0.1,0.1v2.1c0,0.1,0,0.1,0.1,0.1H54.8z"/>
		<path d="M72,961h7.7c0.2,0,0.4,0.1,0.6,0.2c0.2,0.2,0.2,0.3,0.2,0.6s-0.1,0.4-0.2,0.6c-0.2,0.2-0.3,0.2-0.6,0.2H72
			c-1.2,0-2.3-0.2-3.3-0.5c-1-0.4-1.9-0.9-2.6-1.8c-0.1-0.1-0.1-0.1-0.2,0c-0.3,0.4-0.7,0.8-1.1,1.2c-0.4,0.4-0.8,0.8-1.2,1
			c-0.1,0.1-0.2,0.1-0.4,0.1c-0.3,0-0.5-0.1-0.6-0.4c-0.1-0.1-0.1-0.2-0.1-0.4c0-0.3,0.1-0.5,0.4-0.8c0.4-0.3,0.8-0.7,1.2-1.1
			s0.8-0.9,1.1-1.4c0-0.1,0-0.1,0-0.1v-4.5c0-0.1,0-0.1-0.1-0.1h-1.6c-0.2,0-0.4-0.1-0.6-0.2c-0.1-0.1-0.2-0.3-0.2-0.6
			c0-0.2,0.1-0.4,0.2-0.5c0.1-0.2,0.3-0.2,0.6-0.2h2c0.3,0,0.6,0.1,0.9,0.4c0.2,0.2,0.4,0.5,0.4,0.9v4.9v0.1
			c0.6,0.9,1.3,1.5,2.1,1.9C69.8,960.8,70.8,961,72,961z M63.4,947.1c-0.2,0-0.3-0.1-0.5-0.3c-0.1-0.1-0.2-0.3-0.2-0.5
			s0.1-0.4,0.2-0.6c0.2-0.1,0.3-0.2,0.5-0.2c0.1,0,0.1,0,0.2,0c0.4,0.1,0.9,0.2,1.4,0.4c0.5,0.1,1,0.3,1.5,0.5
			c0.2,0.1,0.3,0.2,0.4,0.3c0.1,0.1,0.1,0.3,0.1,0.5c0,0.1,0,0.1,0,0.1v0.1c0,0.2-0.1,0.3-0.3,0.4s-0.3,0.1-0.4,0.1
			c-0.1,0-0.2,0-0.3,0c-0.4-0.2-0.9-0.3-1.4-0.5C64.3,947.3,63.8,947.2,63.4,947.1z M73.1,948.5C73.2,948.4,73.1,948.4,73.1,948.5
			l-4.8-0.1c-0.2,0-0.4-0.1-0.5-0.2c-0.1-0.1-0.2-0.3-0.2-0.5s0.1-0.4,0.2-0.5c0.1-0.1,0.3-0.2,0.5-0.2h3.3l0,0
			c-0.3-0.5-0.6-0.9-1-1.2c-0.1-0.1-0.2-0.3-0.2-0.5s0.1-0.3,0.2-0.4c0.2-0.1,0.3-0.2,0.6-0.2c0.2,0,0.4,0.1,0.5,0.2
			c0.4,0.4,0.8,0.9,1.1,1.4c0.1,0.1,0.1,0.2,0.1,0.3s0,0.2,0,0.3s0,0.1,0.1,0.1h1.6c0.1,0,0.1,0,0.1-0.1c0.3-0.3,0.5-0.6,0.8-1
			s0.5-0.7,0.6-1c0.2-0.3,0.4-0.4,0.8-0.4c0.2,0,0.4,0.1,0.5,0.2c0.1,0.1,0.2,0.3,0.2,0.5c0,0.1,0,0.2-0.1,0.3
			c-0.1,0.2-0.2,0.4-0.4,0.6c-0.1,0.2-0.3,0.4-0.4,0.6c-0.1,0.1,0,0.1,0.1,0.1h2.8c0.2,0,0.4,0.1,0.5,0.2c0.1,0.1,0.2,0.3,0.2,0.5
			s-0.1,0.4-0.2,0.5c-0.1,0.1-0.3,0.2-0.5,0.2h-4.7c-0.1,0-0.1,0-0.1,0.1c-0.1,0.4-0.3,0.8-0.5,1.3c0,0.1,0,0.1,0.1,0.1h3.1
			c0.3,0,0.6,0.1,0.9,0.4s0.4,0.5,0.4,0.9v6.9c0,0.4-0.1,0.6-0.4,0.9c-0.2,0.2-0.5,0.4-0.9,0.4h-6.9c-0.3,0-0.6-0.1-0.9-0.4
			c-0.2-0.2-0.4-0.5-0.4-0.9V951c0-0.3,0.1-0.6,0.4-0.9s0.5-0.4,0.9-0.4h1.6c0.1,0,0.1,0,0.1,0c0.2-0.2,0.3-0.3,0.5-0.6
			C72.9,949.1,73,948.8,73.1,948.5z M70.8,952.4C70.8,952.5,70.8,952.5,70.8,952.4l6.2,0.1c0.1,0,0.1,0,0.1-0.1v-0.8
			c0-0.1,0-0.1-0.1-0.1h-6c-0.1,0-0.1,0-0.1,0.1v0.8H70.8z M77.1,954.1C77.1,954,77.1,954,77.1,954.1L71,954c-0.1,0-0.1,0-0.1,0.1
			v0.8c0,0.1,0,0.1,0.1,0.1h6.1c0.1,0,0.1,0,0.1-0.1L77.1,954.1L77.1,954.1z M71,956.5C70.9,956.5,70.9,956.5,71,956.5l-0.1,1.1
			c0,0.1,0,0.1,0.1,0.1h6.1c0.1,0,0.1,0,0.1-0.1v-1c0-0.1,0-0.1-0.1-0.1H71z"/>
		<path d="M92,958.1c0.1-0.1,0.3-0.1,0.4-0.1c0.3,0,0.5,0.1,0.6,0.4c0.1,0.1,0.1,0.2,0.1,0.4c0,0.1,0,0.3-0.1,0.4
			c-0.1,0.1-0.2,0.2-0.3,0.3c-0.6,0.4-1.3,0.7-2.1,1s-1.6,0.6-2.4,0.8c-0.8,0.2-1.5,0.4-2.1,0.6c0,0-0.1,0-0.2,0
			c-0.2,0-0.4-0.1-0.5-0.2c-0.2-0.2-0.2-0.3-0.2-0.6c0-0.2,0.1-0.3,0.2-0.5s0.3-0.2,0.5-0.3c0.1,0,0.2-0.1,0.3-0.1s0.2,0,0.3-0.1
			c0.1,0,0.1-0.1,0.1-0.1v-6.5c0-0.2,0.1-0.4,0.2-0.5c0.1-0.1,0.3-0.2,0.5-0.2s0.4,0.1,0.5,0.2s0.2,0.3,0.2,0.5v6
			c0,0.1,0,0.1,0.1,0.1s0.3-0.1,0.4-0.1s0.3-0.1,0.4-0.1c0.1,0,0.1-0.1,0.1-0.1v-7.9c0-0.1,0-0.1-0.1-0.1h-1.5
			c-0.3,0-0.6-0.1-0.9-0.4c-0.2-0.2-0.4-0.5-0.4-0.9v-3.7c0-0.3,0.1-0.6,0.4-0.9c0.2-0.2,0.5-0.4,0.9-0.4h3.7c0.3,0,0.6,0.1,0.9,0.4
			c0.2,0.2,0.4,0.5,0.4,0.9v3.7c0,0.4-0.1,0.6-0.4,0.9c-0.2,0.2-0.5,0.4-0.9,0.4h-0.5c-0.1,0-0.1,0-0.1,0.1v1.5c0,0.1,0,0.1,0.1,0.1
			h1.2c0.2,0,0.4,0.1,0.5,0.2s0.2,0.3,0.2,0.5s-0.1,0.3-0.2,0.5c-0.1,0.1-0.3,0.2-0.5,0.2h-1.2c-0.1,0-0.1,0-0.1,0.1v4.1
			c0,0.1,0.1,0.1,0.2,0.1c0.3-0.1,0.5-0.2,0.8-0.4S91.8,958.2,92,958.1z M90.8,946.7C90.8,946.6,90.8,946.6,90.8,946.7l-3.1-0.1
			c-0.1,0-0.1,0-0.1,0.1v3.1c0,0.1,0,0.1,0.1,0.1h3c0.1,0,0.1,0,0.1-0.1V946.7z M102.7,954.4c0.4,0.2,0.6,0.4,0.6,0.8
			c0,0.2-0.1,0.4-0.2,0.6c-0.2,0.1-0.3,0.2-0.5,0.2c-0.1,0-0.1,0-0.1,0h-0.1c-1.7-0.6-3.2-1.6-4.4-2.8c-0.1-0.1-0.1-0.1-0.2,0
			c-0.7,0.6-1.4,1.2-2.2,1.6c-0.8,0.5-1.5,0.9-2.2,1.2c-0.1,0-0.2,0.1-0.3,0.1c-0.2,0-0.3-0.1-0.5-0.2s-0.2-0.3-0.2-0.6
			s0.2-0.6,0.5-0.8c0.7-0.3,1.4-0.7,2.1-1.1s1.3-0.9,1.9-1.4c0.1-0.1,0.1-0.1,0-0.2c-0.5-0.7-1-1.5-1.4-2.4c0-0.1-0.1-0.1-0.2,0
			c-0.3,0.3-0.6,0.5-0.9,0.8c-0.3,0.2-0.6,0.5-1,0.7c-0.1,0.1-0.2,0.1-0.3,0.1c-0.3,0-0.5-0.1-0.6-0.4c0-0.1-0.1-0.2-0.1-0.3
			c0-0.3,0.1-0.6,0.4-0.8c0.8-0.5,1.5-1.2,2.1-1.9s1.1-1.5,1.5-2.4c0.1-0.3,0.4-0.5,0.7-0.5c0.2,0,0.4,0.1,0.6,0.3s0.2,0.4,0.2,0.6
			c0,0.1,0,0.2-0.1,0.3c-0.1,0.2-0.1,0.3-0.2,0.5c-0.1,0.2-0.2,0.3-0.3,0.5c0,0.1,0,0.1,0.1,0.1h3.3c0.2,0,0.4,0.1,0.6,0.3
			s0.3,0.4,0.3,0.6c0,0.1,0,0.2-0.1,0.3c-0.3,0.8-0.7,1.5-1.1,2.1c-0.4,0.7-0.9,1.3-1.4,1.8c-0.1,0.1-0.1,0.1,0,0.1
			c0.5,0.5,1,1,1.7,1.4C101.2,953.8,101.9,954.1,102.7,954.4z M95,955.5h5.2c0.3,0,0.6,0.1,0.9,0.4c0.2,0.2,0.4,0.5,0.4,0.9v4.5
			c0,0.3-0.1,0.6-0.4,0.9c-0.2,0.2-0.5,0.4-0.9,0.4H95c-0.4,0-0.6-0.1-0.9-0.4c-0.2-0.2-0.4-0.5-0.4-0.9v-4.5c0-0.4,0.1-0.6,0.4-0.9
			C94.4,955.6,94.7,955.5,95,955.5z M95.4,960.9C95.4,961,95.4,961,95.4,960.9l4.4,0.1c0.1,0,0.1,0,0.1-0.1v-3.8
			c0-0.1,0-0.1-0.1-0.1h-4.3c-0.1,0-0.1,0-0.1,0.1V960.9z M99.4,948.5C99.5,948.4,99.4,948.4,99.4,948.5l-2.9-0.1l0,0l0,0
			c0.2,0.4,0.4,0.8,0.6,1.2c0.2,0.4,0.4,0.7,0.6,1.1c0.1,0.1,0.1,0.1,0.2,0C98.5,950,99,949.3,99.4,948.5z"/>
	</g>
	<g>
		<rect x="413.8" y="607.5" class="st11" width="90.1" height="50.5"/>
	</g>
</g>
<g id="新幹線_x30FB_電車">
	<g id="新幹線">
		<polyline class="st5" points="224,189.9 402,221.9 381,298.9 358,501.9 369,621.9 352,700.9 350.4,830.1 306.1,967 		"/>
		<polyline class="st5" points="77,506.9 165,548.9 220,501.9 358,501.9 		"/>
		<polyline class="st6" points="224.5,190.4 402.5,222.4 381.5,299.4 358.5,502.4 369,621.9 352,700.9 350.9,830.6 306.6,967.5 		
			"/>
		<polyline class="st6" points="77.5,507.4 165.5,549.4 220.5,502.4 358.5,502.4 		"/>
	</g>
	<polyline class="st4" points="240.9,180.3 285,158.9 402,221.9 358.5,502.4 347,700.9 351,829.9 323.8,967 	"/>
	<circle class="st12" cx="224.5" cy="190.4" r="8.5"/>
	<circle class="st12" cx="401.5" cy="221.4" r="8.5"/>
	<circle class="st13" cx="358.5" cy="502.4" r="8.5"/>
	<circle class="st12" cx="77.5" cy="507.4" r="8.5"/>
	<circle class="st12" cx="317.5" cy="936.4" r="8.5"/>
</g>
<g id="高速道路">
	<polyline class="st7" points="240.9,196.7 219,218 219,291.3 333.4,414.2 333.4,794.8 282.5,959.4 	"/>
	<polyline class="st14" points="417.5,224.4 417.5,275.4 296.9,375 	"/>
	<polyline class="st14" points="102.5,507.4 180.5,603.4 333.9,603.8 	"/>
	<circle class="st15" cx="333.5" cy="549.4" r="8.5"/>
	<rect x="328.9" y="481.8" class="st16" width="10.1" height="10.2"/>
	<rect x="412.9" y="216.8" class="st16" width="10.1" height="10.2"/>
	<rect x="240.9" y="186.8" class="st16" width="10.1" height="10.2"/>
	<rect x="97.9" y="501.8" class="st16" width="10.1" height="10.2"/>
	<rect x="286.9" y="925.8" class="st16" width="10.1" height="10.2"/>
</g>
<g id="文字">
	<g>
		<path d="M393.2,493c0,0.1,0,0.1,0.1,0.1h1.4c0.3,0,0.5,0.1,0.6,0.3s0.3,0.4,0.3,0.6s-0.1,0.4-0.3,0.6s-0.4,0.3-0.6,0.3h-18.5
			c-0.3,0-0.5-0.1-0.6-0.3s-0.3-0.4-0.3-0.6c0-0.3,0.1-0.5,0.3-0.6s0.4-0.3,0.6-0.3h1.4c0.1,0,0.1,0,0.1-0.1v-4c0-0.4,0.1-0.8,0.4-1
			c0.3-0.3,0.6-0.4,1-0.4h12.6c0.4,0,0.7,0.1,1,0.4s0.4,0.6,0.4,1L393.2,493L393.2,493z M395.8,484.7c0.1,0.2,0.2,0.4,0.2,0.6
			c0,0.3-0.1,0.6-0.4,0.7c-0.4,0.3-0.9,0.6-1.4,0.8c-0.5,0.2-1,0.3-1.4,0.3c-0.6,0-1.2-0.2-1.8-0.5s-1.1-0.9-1.6-1.5
			c-0.1-0.1-0.1-0.1-0.2,0c-1.4,0.8-2.9,1.4-4.5,1.8c-0.3,0-0.5,0-0.7-0.2s-0.3-0.4-0.3-0.7c0-0.2,0.1-0.4,0.2-0.6
			c0.1-0.2,0.3-0.3,0.5-0.3c0.7-0.2,1.4-0.4,2.1-0.7c0.6-0.3,1.2-0.5,1.8-0.8c0.1,0,0.1-0.1,0-0.2c-0.5-0.8-0.9-1.7-1.3-2.5
			c-0.4-0.9-0.7-1.8-0.9-2.6c0-0.1-0.1-0.1-0.1-0.1h-7c-0.1,0-0.1,0-0.1,0.1v1.7c0,0.1,0,0.1,0.1,0.1h4.6c0.4,0,0.7,0.1,1,0.4
			s0.4,0.6,0.3,1c-0.1,1.1-0.4,1.9-0.6,2.6c-0.3,0.6-0.7,1.1-1.2,1.3c-0.6,0.2-1.1,0.4-1.8,0.4c-0.2,0-0.3,0-0.5,0s-0.3,0-0.5-0.1
			c-0.2,0-0.3-0.1-0.5-0.3c-0.1-0.2-0.2-0.3-0.2-0.5c0-0.3,0.1-0.6,0.4-0.7s0.5-0.2,0.8-0.2c0.1,0,0.2,0,0.3,0s0.2,0,0.3,0
			c0.3,0,0.6-0.1,0.8-0.2s0.4-0.3,0.5-0.5c0-0.1,0.1-0.3,0.2-0.5s0.2-0.6,0.2-1l0,0c0-0.1,0-0.1-0.1-0.1h-4c-0.1,0-0.1,0-0.1,0.1
			c-0.1,0.7-0.2,1.6-0.4,2.5s-0.5,1.8-0.9,2.6c-0.2,0.4-0.5,0.6-0.9,0.6c-0.1,0-0.1,0-0.2,0c-0.1,0-0.1,0-0.2,0
			c-0.3-0.1-0.5-0.3-0.5-0.7c0-0.1,0-0.2,0.1-0.4c0.4-0.9,0.8-1.9,1-3s0.3-2.1,0.3-3v-2.5c0-0.4,0.1-0.7,0.4-1
			c0.3-0.3,0.6-0.4,1-0.4h7.1c0.1,0,0.2,0,0.1-0.1c0-0.2,0-0.4-0.1-0.5c0-0.2,0-0.4,0-0.5c0-0.2,0.1-0.4,0.3-0.6s0.4-0.2,0.6-0.2
			c0.2,0,0.4,0.1,0.6,0.3s0.3,0.4,0.3,0.6s0,0.4,0.1,0.5c0,0.2,0,0.4,0.1,0.5c0,0.1,0.1,0.1,0.2,0.1h6.6c0.3,0,0.5,0.1,0.6,0.3
			c0.2,0.2,0.3,0.4,0.3,0.6c0,0.3-0.1,0.5-0.3,0.6c-0.2,0.2-0.4,0.3-0.6,0.3h-6.2c-0.1,0-0.2,0.1-0.1,0.2c0.2,0.8,0.5,1.6,0.8,2.3
			c0.3,0.7,0.7,1.3,1,1.9c0.1,0.1,0.1,0.1,0.2,0c0.6-0.4,1.1-0.9,1.5-1.4s0.9-1,1.2-1.5c0.2-0.3,0.4-0.4,0.7-0.4
			c0.1,0,0.3,0,0.5,0.1c0.3,0.2,0.4,0.4,0.4,0.8c0,0.2,0,0.3-0.1,0.5c-0.4,0.6-0.8,1.2-1.4,1.8c-0.6,0.6-1.2,1.1-1.9,1.7
			c-0.1,0.1-0.1,0.2,0,0.2c0.4,0.4,0.7,0.7,1,0.9c0.3,0.2,0.6,0.3,0.8,0.3s0.5-0.1,0.9-0.2c0.3-0.1,0.7-0.4,1.1-0.7
			c0.2-0.1,0.4-0.2,0.6-0.2C395.4,484.4,395.7,484.5,395.8,484.7z M382.5,489.4c0-0.1,0-0.1-0.1-0.1h-2.8c-0.1,0-0.1,0-0.1,0.1v3.6
			c0,0.1,0,0.1,0.1,0.1h2.8c0.1,0,0.1,0,0.1-0.1V489.4z M384.3,493c0,0.1,0,0.1,0.1,0.1h1.9c0.1,0,0.1,0,0.1-0.1v-3.6
			c0-0.1,0-0.1-0.1-0.1h-1.9c-0.1,0-0.1,0-0.1,0.1V493z M388.7,475.8c-0.2,0-0.3-0.1-0.4-0.2c-0.1-0.1-0.2-0.3-0.2-0.5
			s0.1-0.4,0.2-0.6c0.2-0.1,0.3-0.2,0.5-0.2c0.7,0.1,1.4,0.2,2,0.3c0.6,0.1,1.2,0.2,1.7,0.3c0.1,0,0.3,0.1,0.4,0.2
			c0.1,0.1,0.1,0.3,0.1,0.4c0,0.3-0.1,0.5-0.3,0.6s-0.4,0.2-0.6,0.1c-0.4-0.1-1-0.2-1.6-0.3C390,475.9,389.4,475.8,388.7,475.8z
			 M388.3,493c0,0.1,0,0.1,0.1,0.1h2.8c0.1,0,0.1,0,0.1-0.1v-3.6c0-0.1,0-0.1-0.1-0.1h-2.8c-0.1,0-0.1,0-0.1,0.1V493z"/>
		<path d="M403.5,475h15.7c0.4,0,0.7,0.1,1,0.4s0.4,0.6,0.4,1v15.9c0,0.7-0.2,1.3-0.5,1.7c-0.3,0.4-0.8,0.7-1.4,0.9
			c-0.6,0.2-1.2,0.2-1.9,0.2c-0.3,0-0.5-0.1-0.6-0.3c-0.2-0.2-0.3-0.4-0.3-0.6c0-0.3,0.1-0.5,0.3-0.7s0.4-0.3,0.7-0.2
			c0.1,0,0.2,0,0.4,0c0.1,0,0.2,0,0.3,0c0.4,0,0.7-0.1,0.9-0.2s0.3-0.4,0.3-0.8v-15.4c0-0.1,0-0.1-0.1-0.1H404c-0.1,0-0.1,0-0.1,0.1
			v17.2c0,0.2-0.1,0.4-0.3,0.6s-0.4,0.3-0.6,0.3s-0.5-0.1-0.6-0.3c-0.2-0.2-0.3-0.4-0.3-0.6v-17.7c0-0.4,0.1-0.7,0.4-1
			C402.7,475.1,403.1,475,403.5,475z M416,486.3v4.6c0,0.4-0.1,0.7-0.4,1s-0.6,0.4-1,0.4h-6.7c-0.4,0-0.7-0.1-1-0.4s-0.4-0.6-0.4-1
			v-4.6c0-0.2,0.1-0.4,0.3-0.6s0.4-0.3,0.6-0.3c0.2,0,0.4,0.1,0.6,0.3s0.3,0.4,0.3,0.6v4.2c0,0.1,0,0.1,0.1,0.1h1.9
			c0.1,0,0.1,0,0.1-0.1v-6.3c0-0.1,0-0.1-0.1-0.1h-4.4c-0.2,0-0.4-0.1-0.6-0.3c-0.2-0.2-0.2-0.4-0.2-0.6s0.1-0.4,0.2-0.6
			c0.2-0.2,0.4-0.3,0.6-0.3h5.4c0.1,0,0.1,0,0.2-0.1c0.6-0.6,1-1.2,1.4-1.8c0.4-0.7,0.7-1.3,0.9-1.9c0.1-0.4,0.4-0.5,0.8-0.5h0.1
			h0.1c0.4,0.2,0.6,0.4,0.6,0.8v0.1v0.1c-0.2,0.5-0.4,1-0.7,1.5s-0.6,1-0.9,1.5c-0.1,0.1,0,0.2,0.1,0.2h2.8c0.2,0,0.4,0.1,0.6,0.3
			s0.3,0.4,0.3,0.6s-0.1,0.4-0.3,0.6s-0.4,0.3-0.6,0.3h-4.4c-0.1,0-0.1,0-0.1,0.1v6.3c0,0.1,0,0.1,0.1,0.1h1.9c0.1,0,0.1,0,0.1-0.1
			v-4.2c0-0.2,0.1-0.4,0.3-0.6c0.2-0.2,0.4-0.3,0.6-0.3s0.4,0.1,0.6,0.3S416,486.1,416,486.3z M409.4,482.3c-0.3,0-0.6-0.2-0.8-0.5
			c-0.2-0.4-0.4-0.8-0.7-1.3c-0.3-0.4-0.5-0.8-0.8-1.2c-0.1-0.2-0.2-0.4-0.2-0.5c0-0.3,0.1-0.5,0.4-0.7c0.1-0.1,0.3-0.1,0.5-0.1
			s0.3,0,0.5,0.1s0.3,0.2,0.4,0.3c0.2,0.4,0.5,0.8,0.8,1.2c0.3,0.5,0.5,0.9,0.7,1.3c0,0.1,0.1,0.2,0.1,0.3c0,0.2-0.1,0.4-0.2,0.6
			C409.9,482.2,409.6,482.3,409.4,482.3z"/>
	</g>
	<g>
		<path d="M380.5,201.4c-0.1,0.1-0.3,0.2-0.5,0.2c-0.3,0-0.5-0.1-0.7-0.4c-0.1-0.2-0.1-0.4-0.1-0.5c0-0.3,0.1-0.6,0.4-0.8
			c1.8-1.6,3.1-3.3,4-5.2s1.5-3.9,1.7-6c0-0.3,0.1-0.5,0.3-0.6c0.2-0.2,0.4-0.3,0.7-0.3s0.5,0.1,0.6,0.3c0.2,0.2,0.2,0.4,0.2,0.6
			c-0.2,1.9-0.6,3.6-1.2,5.3s-1.4,3.1-2.4,4.4C382.6,199.5,381.6,200.6,380.5,201.4z M398.3,201.5c-1.2-0.9-2.2-1.9-3.1-3.2
			c-0.9-1.3-1.7-2.6-2.3-4.1s-1.1-3.1-1.5-4.7c-0.4-1.6-0.6-3.2-0.7-4.8c0-0.1,0-0.1-0.1-0.1h-5.5c-0.2,0-0.4-0.1-0.6-0.3
			c-0.2-0.2-0.3-0.4-0.3-0.6c0-0.3,0.1-0.5,0.3-0.6s0.4-0.3,0.6-0.3h6c0.4,0,0.8,0.1,1,0.4c0.3,0.3,0.4,0.6,0.4,1
			c0.1,1.9,0.4,3.8,0.9,5.7s1.2,3.7,2.2,5.4s2.2,3.2,3.7,4.5c0.3,0.2,0.4,0.5,0.4,0.9c0,0.2,0,0.3-0.1,0.5c-0.2,0.3-0.4,0.4-0.7,0.4
			C398.6,201.7,398.4,201.6,398.3,201.5z"/>
		<path d="M406.2,201.7c-0.1,0.1-0.3,0.2-0.5,0.2c-0.3,0-0.6-0.1-0.7-0.4c0-0.1-0.1-0.2-0.1-0.3s0-0.2,0-0.3c0-0.3,0.1-0.6,0.4-0.8
			c0.6-0.5,1.2-1.1,1.5-1.8c0.4-0.7,0.7-1.3,0.9-2s0.4-1.3,0.4-1.9c0.1-0.6,0.1-1.1,0.1-1.5v-5.1c0-0.4,0.1-0.7,0.4-1
			c0.3-0.3,0.6-0.4,1-0.4h11.7c0.4,0,0.7,0.1,1,0.4c0.3,0.3,0.4,0.6,0.4,1v5.1c0,0.4-0.1,0.7-0.4,1s-0.6,0.4-1,0.4H410
			c-0.1,0-0.1,0-0.2,0.1c-0.2,1.4-0.6,2.7-1.1,3.9C408.2,199.7,407.3,200.7,406.2,201.7z M424,184.1h-17.5c-0.3,0-0.5-0.1-0.6-0.3
			c-0.2-0.2-0.3-0.4-0.3-0.6c0-0.2,0.1-0.4,0.3-0.6c0.2-0.2,0.4-0.3,0.6-0.3H424c0.3,0,0.5,0.1,0.6,0.3s0.3,0.4,0.3,0.6
			c0,0.3-0.1,0.5-0.3,0.6C424.4,184.1,424.2,184.1,424,184.1z M410.1,188.3c-0.1,0-0.1,0-0.1,0.1v4.1c0,0.1,0,0.1,0.1,0.1h10.7
			c0.1,0,0.1,0,0.1-0.1v-4.1c0-0.1,0-0.1-0.1-0.1H410.1z"/>
	</g>
	<g>
		<path d="M178.3,209.6c0,0.1,0,0.1,0.1,0.1h7.9c0.2,0,0.4,0.1,0.6,0.3c0.2,0.2,0.3,0.4,0.3,0.6s-0.1,0.4-0.3,0.6
			c-0.2,0.2-0.4,0.3-0.6,0.3h-18c-0.2,0-0.4-0.1-0.6-0.3s-0.3-0.4-0.3-0.6s0.1-0.4,0.3-0.6c0.2-0.2,0.4-0.3,0.6-0.3h7.9
			c0.1,0,0.1,0,0.1-0.1v-0.9c0-0.1,0-0.1-0.1-0.1H171c-0.2,0-0.4-0.1-0.6-0.3s-0.3-0.4-0.3-0.6c0-0.2,0.1-0.4,0.3-0.6
			s0.4-0.3,0.6-0.3h5.2c0.1,0,0.1,0,0.1-0.1v-0.8c0-0.1,0-0.1-0.1-0.1H170c-0.2,0-0.4-0.1-0.6-0.3s-0.3-0.4-0.3-0.6s0.1-0.4,0.3-0.6
			c0.2-0.2,0.4-0.3,0.6-0.3h6.4c0.1,0,0.1,0,0.1-0.1v-0.7c0-0.3,0.1-0.5,0.3-0.6c0.2-0.2,0.4-0.3,0.6-0.3s0.5,0.1,0.6,0.3
			c0.2,0.2,0.3,0.4,0.3,0.6v0.7c0,0.1,0,0.1,0.1,0.1h6.4c0.2,0,0.4,0.1,0.6,0.3c0.2,0.2,0.3,0.4,0.3,0.6s-0.1,0.4-0.3,0.6
			c-0.2,0.2-0.4,0.3-0.6,0.3h-6.4c-0.1,0-0.1,0-0.1,0.1v0.9c0,0.1,0,0.1,0.1,0.1h5.2c0.2,0,0.4,0.1,0.6,0.3s0.3,0.4,0.3,0.6
			c0,0.2-0.1,0.4-0.3,0.6s-0.4,0.3-0.6,0.3h-5.2c-0.1,0-0.1,0-0.1,0.1L178.3,209.6L178.3,209.6z M172.7,212.5h9.6
			c0.4,0,0.7,0.1,1,0.4c0.3,0.3,0.4,0.6,0.4,1v7.1c0,0.7-0.2,1.2-0.7,1.5s-1.3,0.5-2.4,0.4c-0.2,0-0.4-0.1-0.6-0.3
			c-0.2-0.2-0.2-0.4-0.2-0.6c0-0.3,0.1-0.5,0.3-0.7s0.4-0.3,0.7-0.2c0.1,0,0.2,0,0.3,0s0.2,0,0.2,0c0.3,0,0.4,0,0.5-0.1
			c0.1,0,0.1-0.1,0.1-0.2v-0.9c0-0.1,0-0.1-0.1-0.1h-8.6c-0.1,0-0.1,0-0.1,0.1v2.3c0,0.2-0.1,0.4-0.3,0.6s-0.4,0.3-0.6,0.3
			s-0.4-0.1-0.6-0.3s-0.3-0.4-0.3-0.6v-8.3c0-0.4,0.1-0.7,0.4-1C171.9,212.7,172.3,212.5,172.7,212.5z M181.7,215.3
			c0.1,0,0.1,0,0.1-0.1v-0.7c0-0.1,0-0.1-0.1-0.1h-8.6c-0.1,0-0.1,0-0.1,0.1v0.7c0,0.1,0,0.1,0.1,0.1H181.7z M173.1,217
			c-0.1,0-0.1,0-0.1,0.1v0.7c0,0.1,0,0.1,0.1,0.1h8.6c0.1,0,0.1,0,0.1-0.1v-0.7c0-0.1,0-0.1-0.1-0.1H173.1z"/>
		<path d="M201.8,218.2c0.3,0.2,0.4,0.4,0.4,0.8c0,0.2,0,0.3-0.1,0.4c-0.2,0.3-0.4,0.4-0.7,0.4c-0.1,0-0.3,0-0.4-0.1
			c-0.4-0.2-0.7-0.5-1.1-0.8c-0.3-0.3-0.7-0.6-1-0.9c0,0-0.1-0.1-0.1,0l-0.1,0.1v4.2c0,0.2-0.1,0.4-0.3,0.6s-0.4,0.3-0.6,0.3
			c-0.2,0-0.4-0.1-0.6-0.3c-0.2-0.2-0.3-0.4-0.3-0.6v-3.5c0-0.1,0-0.1-0.1-0.1s-0.1,0-0.1,0.1c-0.4,0.6-0.9,1.1-1.5,1.6
			s-1.1,1-1.6,1.3c-0.1,0.1-0.2,0.1-0.4,0.1c-0.3,0-0.5-0.2-0.6-0.5c0-0.1-0.1-0.3-0.1-0.4c0-0.4,0.2-0.7,0.5-1
			c0.4-0.3,0.8-0.7,1.3-1.2c0.4-0.5,0.8-0.9,1.2-1.4s0.7-1,0.9-1.5c0.1-0.1,0-0.2-0.1-0.2H194c-0.2,0-0.4-0.1-0.6-0.2
			s-0.2-0.4-0.2-0.6c0-0.2,0.1-0.4,0.2-0.6c0.2-0.2,0.4-0.2,0.6-0.2h2.9c0.1,0,0.1,0,0.1-0.1v-1.3c0-0.2,0.1-0.4,0.3-0.6
			c0.2-0.2,0.4-0.3,0.6-0.3c0.2,0,0.4,0.1,0.6,0.3s0.3,0.4,0.3,0.6v1.3c0,0.1,0,0.1,0.1,0.1h2.9c0.2,0,0.4,0.1,0.6,0.2
			c0.2,0.2,0.3,0.4,0.3,0.6c0,0.2-0.1,0.4-0.3,0.6s-0.4,0.2-0.6,0.2h-2.3c-0.1,0-0.1,0-0.1,0.1v0.1c0.3,0.4,0.7,0.9,1.1,1.3
			C201,217.6,201.4,218,201.8,218.2z M194.1,211.7c0,0-0.1,0-0.2,0c-0.2,0-0.4-0.1-0.6-0.3c-0.2-0.2-0.3-0.4-0.3-0.6
			c0-0.2,0.1-0.4,0.2-0.6s0.3-0.3,0.5-0.3c0.7-0.2,1.5-0.5,2.4-0.8c0.9-0.4,1.8-0.8,2.7-1.2c0.9-0.5,1.7-1,2.3-1.5
			c0,0,0.1-0.1,0-0.1l-0.1-0.1h-6.3c-0.2,0-0.4-0.1-0.6-0.3c-0.2-0.2-0.3-0.4-0.3-0.6c0-0.2,0.1-0.4,0.3-0.6s0.4-0.3,0.6-0.3h7.4
			c0.1,0,0.1,0,0.1-0.1v-1.2c0-0.3,0.1-0.5,0.3-0.6s0.4-0.3,0.6-0.3c0.3,0,0.5,0.1,0.6,0.3s0.3,0.4,0.3,0.6v1.2c0,0.1,0,0.1,0.1,0.1
			h7.6c0.2,0,0.4,0.1,0.6,0.3s0.3,0.4,0.3,0.6c0,0.2-0.1,0.4-0.3,0.6c-0.2,0.2-0.4,0.3-0.6,0.3h-6.5c-0.1,0-0.1,0-0.1,0.1
			c0,0,0,0.1,0.1,0.1c0.6,0.4,1.3,0.9,2.2,1.3s1.8,0.9,2.7,1.2c0.9,0.4,1.8,0.6,2.6,0.8c0.2,0,0.4,0.2,0.5,0.3s0.2,0.3,0.2,0.6
			s-0.1,0.5-0.3,0.6s-0.4,0.3-0.6,0.3c-0.1,0-0.2,0-0.2,0c-1-0.2-2-0.5-3-0.9s-1.9-0.8-2.8-1.3c-0.9-0.5-1.7-1-2.3-1.5
			c-0.1-0.1-0.2-0.1-0.2,0.1v3.6c0,0.3-0.1,0.5-0.3,0.6c-0.2,0.2-0.4,0.3-0.6,0.3c-0.3,0-0.5-0.1-0.6-0.3c-0.2-0.2-0.3-0.4-0.3-0.6
			V208c0-0.1-0.1-0.2-0.2-0.1c-0.7,0.5-1.5,1.1-2.4,1.6s-1.9,0.9-2.8,1.3C195.9,211.2,194.9,211.5,194.1,211.7z M213.1,219.6
			c0.3,0.3,0.5,0.6,0.5,0.9c0,0.3-0.1,0.5-0.2,0.6c-0.2,0.2-0.3,0.2-0.5,0.2c-0.1,0-0.3,0-0.4-0.1c-0.5-0.4-1.1-0.8-1.5-1.3
			c-0.5-0.5-0.9-1-1.3-1.5c0-0.1-0.1-0.1-0.1-0.1l-0.1,0.1v3.8c0,0.2-0.1,0.4-0.3,0.6s-0.4,0.3-0.6,0.3c-0.2,0-0.4-0.1-0.6-0.3
			s-0.3-0.4-0.3-0.6v-3.8c0-0.1,0-0.1-0.1-0.1s-0.1,0-0.1,0.1c-0.6,0.7-1.2,1.4-1.9,2s-1.4,1.1-2.1,1.5c-0.1,0-0.1,0-0.2,0.1
			c0,0-0.1,0-0.2,0c-0.3,0-0.6-0.2-0.7-0.5c0-0.1-0.1-0.2-0.1-0.3c0-0.4,0.2-0.6,0.5-0.8c0.4-0.3,0.9-0.6,1.5-1s1.1-0.9,1.6-1.5
			s0.9-1.1,1.2-1.7v-0.1H207h-2.4c-0.2,0-0.4-0.1-0.6-0.2s-0.3-0.4-0.3-0.6c0-0.2,0.1-0.4,0.3-0.6c0.2-0.2,0.4-0.2,0.6-0.2h2.9
			c0.1,0,0.1,0,0.1-0.1v-1.3c0-0.2,0.1-0.4,0.3-0.6s0.4-0.3,0.6-0.3c0.2,0,0.4,0.1,0.6,0.3s0.3,0.4,0.3,0.6v1.3c0,0.1,0,0.1,0.1,0.1
			h2.9c0.2,0,0.4,0.1,0.6,0.2c0.2,0.2,0.2,0.4,0.2,0.6c0,0.2-0.1,0.4-0.2,0.6c-0.2,0.2-0.4,0.2-0.6,0.2H210c-0.1,0-0.1,0.1-0.1,0.2
			c0.4,0.7,0.9,1.3,1.5,2S212.6,219.2,213.1,219.6z"/>
	</g>
	<g>
		<path d="M73.1,488.3c-0.1-0.4-0.3-0.8-0.4-1.2c-0.2-0.4-0.3-0.7-0.5-1c0-0.1-0.1-0.1-0.1-0.1l-0.1,0.1v8.1c0,0.3-0.1,0.5-0.3,0.6
			s-0.4,0.3-0.6,0.3c-0.3,0-0.5-0.1-0.6-0.3s-0.3-0.4-0.3-0.6v-7.4c0-0.1,0-0.1-0.1-0.1s-0.1,0-0.1,0.1c-0.3,0.7-0.7,1.3-1.1,1.9
			c-0.4,0.6-0.8,1.2-1.3,1.8c-0.2,0.2-0.4,0.3-0.6,0.3c-0.2,0-0.4-0.1-0.6-0.3c-0.2-0.2-0.3-0.4-0.3-0.7s0.1-0.5,0.2-0.6
			c1.1-1.3,1.8-2.5,2.4-3.7s0.9-2.1,1.1-2.9c0-0.1,0-0.2-0.1-0.2h-2.5c-0.2,0-0.4-0.1-0.6-0.3c-0.2-0.2-0.3-0.4-0.3-0.6
			s0.1-0.4,0.3-0.6s0.4-0.3,0.6-0.3h2.9c0.1,0,0.1,0,0.1-0.1v-2.9c0-0.1-0.1-0.2-0.2-0.1c-0.4,0.1-0.8,0.1-1.1,0.2
			c-0.4,0.1-0.7,0.1-1.1,0.2c-0.3,0-0.5-0.1-0.7-0.2c-0.2-0.2-0.3-0.4-0.3-0.7c0-0.2,0.1-0.4,0.2-0.6c0.1-0.2,0.3-0.3,0.5-0.3
			c0.5-0.1,1.2-0.2,1.9-0.3c0.7-0.1,1.5-0.3,2.2-0.5s1.4-0.4,1.9-0.5h0.1h0.1c0.2,0,0.4,0.1,0.6,0.2c0.2,0.2,0.2,0.4,0.2,0.6
			c0,0.5-0.2,0.8-0.6,1c-0.3,0.1-0.6,0.2-0.9,0.3c-0.3,0.1-0.7,0.2-1.1,0.3c-0.1,0-0.1,0.1-0.1,0.1v3.4c0,0.1,0,0.1,0.1,0.1h2.5
			c0.3,0,0.5,0.1,0.6,0.3s0.3,0.4,0.3,0.6c0,0.3-0.1,0.5-0.3,0.6s-0.4,0.3-0.6,0.3h-2.5c-0.1,0-0.1,0-0.1,0.1v0.1
			c0,0.1,0,0.1,0.1,0.2c0.4,0.4,0.7,0.9,1,1.4s0.6,1.1,0.9,1.7c0.3,0.6,0.5,1.2,0.7,1.7v0.1v0.1c0,0.2-0.1,0.4-0.2,0.5
			c-0.1,0.2-0.3,0.3-0.4,0.4h-0.1h-0.1C73.6,488.8,73.3,488.6,73.1,488.3z M86.6,493.1c0.3,0.2,0.4,0.6,0.4,1c0,0.2,0,0.4-0.1,0.5
			c-0.1,0.3-0.4,0.5-0.7,0.5c-0.2,0-0.3,0-0.4-0.1c-0.8-0.6-1.5-1.3-2.1-2.2s-1.3-1.8-1.8-2.8s-1-2-1.4-3c0-0.1,0-0.1-0.1-0.1
			c0,0-0.1,0-0.1,0.1c-0.5,1.2-1,2.3-1.8,3.4s-1.4,2-2.2,2.7c-0.8,0.8-1.5,1.4-2.2,1.9c-0.1,0.1-0.3,0.1-0.4,0.1
			c-0.4,0-0.6-0.2-0.7-0.5c-0.1-0.1-0.1-0.3-0.1-0.4c0-0.4,0.2-0.7,0.5-0.9c1.1-0.8,2-1.7,2.8-2.7s1.4-1.9,1.9-3
			c0.5-1,0.9-2,1.1-2.9c0.2-0.9,0.3-1.8,0.3-2.6v-6.8c0-0.3,0.1-0.5,0.3-0.6s0.4-0.3,0.6-0.3c0.3,0,0.5,0.1,0.6,0.3s0.3,0.4,0.3,0.6
			v7.2c0,0.1,0,0.1,0,0.2c0.2,1.4,0.6,2.8,1.1,4.1c0.5,1.3,1.1,2.5,1.9,3.6C84.9,491.4,85.7,492.3,86.6,493.1z M74.9,478.6
			c-0.1-0.1-0.1-0.3-0.1-0.5c0-0.4,0.2-0.6,0.5-0.7c0.1-0.1,0.3-0.1,0.5-0.1c0.4,0,0.7,0.2,0.9,0.6c0.3,0.7,0.7,1.5,1,2.5
			c0.4,1,0.6,2,0.8,3.1c0,0.3,0,0.5-0.2,0.8c-0.2,0.2-0.4,0.3-0.7,0.3c-0.2,0-0.4-0.1-0.6-0.2c-0.2-0.2-0.3-0.3-0.3-0.6
			c-0.2-1-0.4-1.9-0.6-2.8C75.7,480.1,75.3,479.3,74.9,478.6z M83.1,484.6c-0.2-0.1-0.3-0.2-0.4-0.3c-0.1-0.1-0.1-0.3-0.1-0.4
			s0-0.3,0.1-0.4c0.4-0.7,0.7-1.5,1-2.5s0.5-1.9,0.7-2.8c0-0.2,0.2-0.4,0.4-0.6c0.2-0.1,0.4-0.2,0.6-0.1c0.3,0.1,0.5,0.2,0.6,0.4
			s0.2,0.4,0.2,0.7c-0.1,0.8-0.4,1.8-0.7,2.8s-0.7,1.9-1.1,2.7c-0.2,0.4-0.5,0.6-0.9,0.6c-0.1,0-0.1,0-0.2,0
			C83.3,484.6,83.2,484.6,83.1,484.6z"/>
		<path d="M94.8,475.6h14.9c0.4,0,0.7,0.1,1,0.4s0.4,0.6,0.4,1v16c0,0.4-0.1,0.7-0.4,1c-0.3,0.3-0.6,0.4-1,0.4H94.8
			c-0.4,0-0.7-0.1-1-0.4s-0.4-0.6-0.4-1v-16c0-0.4,0.1-0.7,0.4-1C94.1,475.7,94.4,475.6,94.8,475.6z M101.2,483.6
			c0.1,0,0.1,0,0.1-0.1v-6c0-0.1,0-0.1-0.1-0.1h-5.9c-0.1,0-0.1,0-0.1,0.1v6c0,0.1,0,0.1,0.1,0.1H101.2z M101.3,485.5
			c0-0.1,0-0.1-0.1-0.1h-5.9c-0.1,0-0.1,0-0.1,0.1v7c0,0.1,0,0.1,0.1,0.1h5.9c0.1,0,0.1,0,0.1-0.1V485.5z M103.1,483.5
			c0,0.1,0,0.1,0.1,0.1h5.9c0.1,0,0.1,0,0.1-0.1v-6c0-0.1,0-0.1-0.1-0.1h-5.9c-0.1,0-0.1,0-0.1,0.1V483.5z M103.3,485.4
			c-0.1,0-0.1,0-0.1,0.1v7c0,0.1,0,0.1,0.1,0.1h5.9c0.1,0,0.1,0,0.1-0.1v-7c0-0.1,0-0.1-0.1-0.1H103.3z"/>
	</g>
	<g>
		<path d="M349.6,893.2c0.3,0,0.5,0.1,0.7,0.3s0.3,0.4,0.3,0.6c0,0.1,0,0.2,0,0.2c-0.2,0.9-0.5,1.9-0.9,2.8
			c-0.3,0.9-0.7,1.8-1.1,2.7c0,0,0,0.1,0,0.2v13.2c0,0.2-0.1,0.4-0.3,0.6c-0.2,0.2-0.4,0.3-0.6,0.3s-0.5-0.1-0.6-0.3
			c-0.2-0.2-0.3-0.4-0.3-0.6V903c0-0.1,0-0.1-0.1-0.1h-0.1c-0.2,0.2-0.4,0.4-0.6,0.7c-0.2,0.2-0.4,0.4-0.6,0.6
			c-0.1,0.1-0.3,0.2-0.5,0.2c-0.3,0-0.5-0.1-0.7-0.4c-0.1-0.2-0.2-0.4-0.2-0.6c0-0.3,0.1-0.5,0.3-0.7c1.1-1.2,2.1-2.5,2.8-3.9
			c0.7-1.5,1.3-3.1,1.7-4.8c0-0.2,0.2-0.4,0.3-0.5C349.2,893.3,349.4,893.2,349.6,893.2z M362.8,899.1c0.3,0,0.5,0.1,0.6,0.3
			c0.2,0.2,0.3,0.4,0.3,0.6v12.4c0,0.4-0.1,0.7-0.4,1c-0.3,0.3-0.6,0.4-1,0.4h-10c-0.4,0-0.7-0.1-1-0.4c-0.3-0.3-0.4-0.6-0.4-1V900
			c0-0.3,0.1-0.5,0.3-0.6s0.4-0.3,0.6-0.3c0.3,0,0.5,0.1,0.6,0.3s0.3,0.4,0.3,0.6v12c0,0.1,0,0.1,0.1,0.1h3.4c0.1,0,0.1,0,0.1-0.1
			v-17.6c0-0.3,0.1-0.5,0.3-0.7s0.4-0.3,0.6-0.3c0.3,0,0.5,0.1,0.7,0.3s0.3,0.4,0.3,0.7V912c0,0.1,0,0.1,0.1,0.1h3.4
			c0.1,0,0.1,0,0.1-0.1v-12c0-0.3,0.1-0.5,0.3-0.6S362.5,899.1,362.8,899.1z"/>
		<path d="M388.9,903.3c0,0,0,0.1,0,0.2c0,0.1,0,0.1,0,0.2c0,0.3-0.1,0.5-0.3,0.7s-0.4,0.3-0.7,0.3c-0.4,0-0.7-0.2-0.9-0.6
			c-0.1-0.3-0.2-0.6-0.3-1c-0.1-0.3-0.3-0.6-0.4-0.9c0-0.1-0.1-0.1-0.2-0.1c-0.6,0.1-1.3,0.3-2.1,0.4s-1.7,0.2-2.7,0.4
			c-1,0.1-2,0.2-3,0.3s-2,0.1-2.9,0.2c-0.9,0.1-1.7,0.1-2.4,0.1c-0.4,0-0.7-0.1-0.9-0.4c-0.2-0.3-0.3-0.6-0.3-0.9
			c0-0.2,0.1-0.5,0.2-0.7c0.1-0.2,0.3-0.5,0.5-0.6c1.3-0.9,2.4-2,3.4-3.3s1.7-2.5,2.2-3.7c0.2-0.4,0.5-0.6,0.9-0.6
			c0.3,0,0.5,0.1,0.6,0.3c0.2,0.2,0.3,0.4,0.3,0.6v0.1v0.1c-0.4,0.8-0.8,1.7-1.4,2.6s-1.2,1.7-1.8,2.5c-0.7,0.8-1.3,1.4-2.1,2
			c0,0-0.1,0.1,0,0.1c0,0,0.1,0.1,0.1,0c0.8,0,1.7-0.1,2.7-0.2c1-0.1,1.9-0.1,2.9-0.2c1-0.1,1.9-0.2,2.7-0.3
			c0.9-0.1,1.6-0.3,2.2-0.4c0.1,0,0.1-0.1,0.1-0.2c-0.2-0.4-0.4-0.7-0.6-1.1c-0.2-0.3-0.4-0.6-0.6-0.9c-0.1-0.1-0.1-0.3-0.1-0.5
			c0-0.1,0-0.3,0.1-0.4c0.1-0.1,0.2-0.2,0.3-0.3c0.2-0.1,0.4-0.1,0.5-0.1c0.4,0,0.7,0.2,0.9,0.5c0.3,0.5,0.6,1.1,1,1.8
			s0.7,1.4,1,2.1C388.4,902.1,388.7,902.8,388.9,903.3z M375,905.2h10.6c0.4,0,0.7,0.1,1,0.4s0.4,0.6,0.4,1v5.8c0,0.4-0.1,0.7-0.4,1
			s-0.6,0.4-1,0.4H375c-0.4,0-0.7-0.1-1-0.4c-0.3-0.3-0.4-0.6-0.4-1v-5.8c0-0.4,0.1-0.7,0.4-1C374.2,905.3,374.6,905.2,375,905.2z
			 M375.3,912C375.3,912.1,375.3,912.1,375.3,912l9.7,0.1c0.1,0,0.1,0,0.1-0.1v-4.8c0-0.1,0-0.1-0.1-0.1h-9.6c-0.1,0-0.1,0-0.1,0.1
			V912z"/>
	</g>
	<g>
		<path d="M234.4,993C234.4,993.1,234.4,993.1,234.4,993l8.2,0.1c0.2,0,0.4,0.1,0.6,0.3c0.2,0.2,0.3,0.4,0.3,0.6
			c0,0.2-0.1,0.4-0.3,0.6c-0.2,0.2-0.4,0.3-0.6,0.3h-18.4c-0.2,0-0.4-0.1-0.6-0.3c-0.2-0.2-0.3-0.4-0.3-0.6c0-0.3,0.1-0.5,0.3-0.6
			c0.2-0.2,0.4-0.3,0.6-0.3h8.1c0.1,0,0.1,0,0.1-0.1v-3.2c0-0.1,0-0.1-0.1-0.1h-5.8c-0.2,0-0.4-0.1-0.6-0.3
			c-0.2-0.2-0.3-0.4-0.3-0.6c0-0.3,0.1-0.5,0.3-0.6c0.2-0.2,0.4-0.3,0.6-0.3h5.8c0.1,0,0.1,0,0.1-0.1v-1.9c0-0.3,0.1-0.5,0.3-0.6
			c0.2-0.2,0.4-0.3,0.6-0.3s0.5,0.1,0.6,0.3c0.2,0.2,0.3,0.4,0.3,0.6v1.9c0,0.1,0,0.1,0.1,0.1h5.8c0.2,0,0.4,0.1,0.6,0.3
			c0.2,0.2,0.3,0.4,0.3,0.6c0,0.2-0.1,0.4-0.3,0.6c-0.2,0.2-0.4,0.3-0.6,0.3h-5.8c-0.1,0-0.1,0-0.1,0.1v3.2H234.4z M231.4,977.6
			c0.1-0.1,0-0.2-0.1-0.2h-6.2c-0.3,0-0.5-0.1-0.6-0.3s-0.3-0.4-0.3-0.6c0-0.2,0.1-0.4,0.3-0.6c0.2-0.2,0.4-0.3,0.6-0.3h16.8
			c0.3,0,0.5,0.1,0.6,0.3c0.2,0.2,0.3,0.4,0.3,0.6c0,0.3-0.1,0.5-0.3,0.6s-0.4,0.3-0.6,0.3h-8.4c-0.1,0-0.2,0-0.2,0.1
			c-0.3,0.7-0.7,1.3-1.1,2c-0.5,0.7-0.9,1.3-1.5,1.9s-1,1.1-1.5,1.5c0,0-0.1,0.1,0,0.1c0,0,0.1,0.1,0.1,0c1-0.1,2.1-0.2,3.2-0.3
			c1.1-0.1,2.2-0.2,3.2-0.4s1.9-0.3,2.7-0.4c0.1,0,0.1-0.1,0.1-0.2c-0.2-0.2-0.3-0.5-0.5-0.7c-0.1-0.2-0.3-0.4-0.5-0.6
			c-0.1-0.2-0.2-0.4-0.2-0.6c0-0.1,0-0.3,0.1-0.4c0.1-0.1,0.2-0.2,0.3-0.3c0.2-0.1,0.4-0.2,0.6-0.2c0.3,0,0.6,0.1,0.8,0.4
			c0.5,0.7,1,1.5,1.5,2.3c0.5,0.9,0.9,1.7,1.2,2.4c0,0.1,0.1,0.2,0.1,0.4s0,0.3-0.1,0.5s-0.2,0.3-0.4,0.4c-0.1,0-0.1,0-0.2,0.1
			c-0.1,0-0.1,0-0.2,0c-0.4,0-0.6-0.2-0.8-0.6c-0.2-0.4-0.4-0.8-0.6-1.3c0-0.1-0.1-0.1-0.2-0.1c-0.7,0.2-1.6,0.3-2.6,0.5
			s-2.1,0.3-3.2,0.4c-1.1,0.1-2.3,0.2-3.4,0.3c-1.1,0.1-2.1,0.1-3.1,0.2c-0.4,0-0.6-0.1-0.8-0.3s-0.3-0.5-0.3-0.8
			c0-0.2,0.1-0.5,0.2-0.7c0.1-0.2,0.3-0.5,0.6-0.6c0.5-0.4,1.1-0.8,1.7-1.4s1.1-1.1,1.6-1.8S231.1,978.1,231.4,977.6z"/>
		<path d="M279.2,993c0.4,0.1,0.7,0.4,0.7,0.9c0,0.3-0.1,0.5-0.3,0.6c-0.2,0.2-0.4,0.3-0.6,0.3c-0.1,0-0.1,0-0.2,0
			c-0.9-0.3-1.8-0.7-2.9-1.2c-1-0.5-2-1.1-2.9-1.7c-0.9-0.6-1.8-1.3-2.5-1.9c-0.1-0.1-0.2,0-0.2,0.1v4.5c0,0.2-0.1,0.4-0.3,0.6
			c-0.2,0.2-0.4,0.3-0.6,0.3s-0.4-0.1-0.6-0.3s-0.3-0.4-0.3-0.6v-4.4c0-0.2-0.1-0.2-0.2-0.1c-0.6,0.5-1.2,1-2,1.5
			c-0.7,0.5-1.5,0.9-2.3,1.3c-0.8,0.4-1.5,0.8-2.2,1.1s-1.3,0.5-1.8,0.7c-0.1,0-0.2,0-0.2,0c-0.2,0-0.4-0.1-0.5-0.2
			c-0.2-0.2-0.2-0.4-0.2-0.6c0-0.2,0.1-0.4,0.2-0.5c0.1-0.2,0.3-0.3,0.5-0.3c0.8-0.3,1.7-0.6,2.6-1.1c0.9-0.4,1.7-0.9,2.5-1.4
			s1.5-1,2.1-1.6c0,0,0.1-0.1,0-0.1l-0.1-0.1h-3.6c-0.4,0-0.7-0.1-1-0.4c-0.3-0.3-0.4-0.6-0.4-1v-5.8c0-0.4,0.1-0.7,0.4-1
			c0.3-0.3,0.6-0.4,1-0.4h5.1c0.1,0,0.1,0,0.1-0.1v-1.4c0-0.1,0-0.1-0.1-0.1h-8.2c-0.2,0-0.4-0.1-0.6-0.3s-0.3-0.4-0.3-0.6
			s0.1-0.4,0.3-0.6s0.4-0.3,0.6-0.3h8.2c0.1,0,0.1,0,0.1-0.1v-1c0-0.2,0.1-0.4,0.3-0.6s0.4-0.3,0.6-0.3s0.4,0.1,0.6,0.3
			c0.2,0.2,0.3,0.4,0.3,0.6v1c0,0.1,0,0.1,0.1,0.1h8.2c0.2,0,0.4,0.1,0.6,0.3s0.3,0.4,0.3,0.6s-0.1,0.4-0.3,0.6s-0.4,0.3-0.6,0.3
			h-8.2c-0.1,0-0.1,0-0.1,0.1v1.4c0,0.1,0,0.1,0.1,0.1h5.2c0.4,0,0.7,0.1,1,0.4c0.3,0.3,0.4,0.6,0.4,1v5.8c0,0.4-0.1,0.7-0.4,1
			c-0.3,0.3-0.6,0.4-1,0.4h-3.4c-0.1,0-0.1,0-0.1,0v0.1c0.9,0.8,2,1.5,3.2,2.2S277.9,992.6,279.2,993z M268.5,983.7
			C268.6,983.7,268.6,983.7,268.5,983.7l0.1-1.5c0-0.1,0-0.1-0.1-0.1h-4.6c-0.1,0-0.1,0-0.1,0.1v1.4c0,0.1,0,0.1,0.1,0.1H268.5z
			 M268.6,985.5C268.6,985.4,268.6,985.4,268.6,985.5l-4.7-0.1c-0.1,0-0.1,0-0.1,0.1v1.4c0,0.1,0,0.1,0.1,0.1h4.6
			c0.1,0,0.1,0,0.1-0.1V985.5z M275.2,983.7C275.3,983.7,275.3,983.7,275.2,983.7l0.1-1.5c0-0.1,0-0.1-0.1-0.1h-4.7
			c-0.1,0-0.1,0-0.1,0.1v1.4c0,0.1,0,0.1,0.1,0.1H275.2z M270.5,985.4C270.4,985.4,270.4,985.4,270.5,985.4l-0.1,1.5
			c0,0.1,0,0.1,0.1,0.1h4.7c0.1,0,0.1,0,0.1-0.1v-1.4c0-0.1,0-0.1-0.1-0.1H270.5z"/>
		<path d="M291.3,988.6c0.3,0.2,0.5,0.4,0.5,0.8c0,0.1,0,0.3-0.1,0.4c-0.4,0.7-0.8,1.3-1.4,1.9c-0.6,0.6-1.2,1.2-1.8,1.7
			c-0.7,0.5-1.3,1-2,1.3c-0.1,0.1-0.3,0.1-0.4,0.1c-0.2,0-0.3-0.1-0.5-0.2c-0.2-0.1-0.3-0.2-0.4-0.4c0-0.1,0-0.1-0.1-0.2
			c0-0.1,0-0.1,0-0.2c0-0.4,0.2-0.7,0.6-0.9c0.8-0.5,1.7-1,2.4-1.8c0.8-0.7,1.4-1.5,1.9-2.3c0.2-0.3,0.5-0.5,0.9-0.5
			C291.1,988.5,291.2,988.5,291.3,988.6z M304.5,978.9H286c-0.3,0-0.5-0.1-0.6-0.3s-0.3-0.4-0.3-0.6c0-0.3,0.1-0.5,0.3-0.6
			s0.4-0.3,0.6-0.3h8.2c0.1,0,0.1,0,0.1-0.1v-1.5c0-0.3,0.1-0.5,0.3-0.6c0.2-0.2,0.4-0.3,0.6-0.3s0.5,0.1,0.6,0.3
			c0.2,0.2,0.3,0.4,0.3,0.6v1.5c0,0.1,0,0.1,0.1,0.1h8.2c0.3,0,0.5,0.1,0.6,0.3s0.3,0.4,0.3,0.6c0,0.2-0.1,0.4-0.3,0.6
			S304.8,978.9,304.5,978.9z M300.7,987.4h-4.3c-0.1,0-0.1,0-0.1,0.1v6.1c0,0.6-0.2,1.1-0.6,1.4c-0.4,0.3-1.1,0.4-2.1,0.4
			c-0.2,0-0.3,0-0.5,0s-0.4,0-0.6,0c-0.3,0-0.5-0.1-0.7-0.3s-0.3-0.4-0.3-0.7c0-0.2,0.1-0.4,0.3-0.6c0.2-0.2,0.4-0.2,0.6-0.2
			c0.3,0,0.6,0.1,0.8,0.1s0.4,0,0.6,0c0.4,0,0.6-0.1,0.6-0.3v-5.8c0-0.1,0-0.1-0.1-0.1H290c-0.4,0-0.7-0.1-1-0.4
			c-0.3-0.3-0.4-0.6-0.4-1v-3.7c0-0.4,0.1-0.7,0.4-1s0.6-0.4,1-0.4h10.7c0.4,0,0.7,0.1,1,0.4c0.3,0.3,0.4,0.6,0.4,1v3.7
			c0,0.4-0.1,0.7-0.4,1C301.4,987.2,301.1,987.4,300.7,987.4z M300.2,982.7C300.2,982.6,300.2,982.6,300.2,982.7l-9.7-0.1
			c-0.1,0-0.1,0-0.1,0.1v2.8c0,0.1,0,0.1,0.1,0.1h9.6c0.1,0,0.1,0,0.1-0.1V982.7z M305,993.1c0.2,0.1,0.3,0.2,0.4,0.3
			s0.1,0.3,0.1,0.5s0,0.3-0.1,0.4c-0.2,0.3-0.5,0.5-0.8,0.5c-0.2,0-0.3,0-0.4-0.1c-1.1-0.6-2.1-1.3-3-2.2s-1.6-1.8-2.2-2.7
			c-0.1-0.1-0.1-0.3-0.1-0.5c0-0.4,0.2-0.6,0.5-0.8c0.1-0.1,0.3-0.1,0.4-0.1c0.4,0,0.7,0.2,0.9,0.5c0.5,0.9,1.2,1.7,2,2.4
			C303.3,992.1,304.1,992.7,305,993.1z"/>
		<path d="M322,978C322,978.1,322,978.1,322,978l8,0.1c0.3,0,0.5,0.1,0.6,0.3c0.2,0.2,0.3,0.4,0.3,0.6c0,0.3-0.1,0.5-0.3,0.6
			c-0.2,0.2-0.4,0.3-0.6,0.3h-9.3c-0.1,0-0.1,0-0.1,0.1c-0.1,0.6-0.1,1.2-0.2,1.8c-0.1,0.6-0.2,1.1-0.3,1.7c0,0.1,0,0.2,0.1,0.2h7
			c0.4,0,0.7,0.1,1,0.4c0.3,0.3,0.4,0.6,0.4,1c0,0.8-0.1,1.6-0.1,2.6c-0.1,1-0.1,1.8-0.2,2.6c-0.1,1.1-0.3,2-0.6,2.7
			c-0.3,0.8-0.8,1.4-1.5,1.8c-0.7,0.4-1.7,0.6-2.9,0.6c-0.2,0-0.3,0-0.5,0s-0.4,0-0.6,0c-0.2,0-0.4-0.1-0.6-0.3s-0.2-0.4-0.2-0.6
			c0-0.3,0.1-0.6,0.3-0.7c0.2-0.2,0.5-0.2,0.8-0.2c0.4,0,0.7,0.1,1,0.1c0.8,0,1.5-0.2,1.9-0.5s0.7-0.7,0.8-1.3
			c0.1-0.5,0.2-1.2,0.3-1.8c0.1-0.7,0.1-1.4,0.2-2.2c0-0.8,0.1-1.5,0.1-2.2c0-0.1,0-0.1-0.1-0.1h-6.8c-0.1,0-0.1,0-0.1,0.1
			c-0.6,2-1.5,3.8-2.7,5.5s-2.9,3-4.9,3.9c-0.1,0-0.2,0.1-0.3,0.1c-0.2,0-0.4-0.1-0.6-0.3s-0.3-0.4-0.3-0.6c0-0.5,0.2-0.8,0.6-1
			c2.2-1.1,3.9-2.8,5.1-5s1.9-4.9,2.2-8.2c0-0.1,0-0.1-0.1-0.1h-6.6c-0.3,0-0.5-0.1-0.7-0.3s-0.3-0.4-0.3-0.6c0-0.3,0.1-0.5,0.3-0.6
			s0.4-0.3,0.7-0.3h7.9c0.1,0,0.1,0,0.1-0.1v-2.3c0-0.3,0.1-0.5,0.3-0.7s0.4-0.3,0.7-0.3s0.5,0.1,0.7,0.3s0.3,0.4,0.3,0.7v2.2H322z"
			/>
		<path d="M337.6,975.4h18.5c0.2,0,0.4,0.1,0.6,0.3s0.3,0.4,0.3,0.6c0,0.3-0.1,0.5-0.3,0.6s-0.4,0.3-0.6,0.3H348
			c-0.1,0-0.1,0-0.1,0.1c-0.1,0.4-0.3,0.9-0.6,1.5c-0.2,0.5-0.5,1-0.8,1.5c0,0.1,0,0.2,0.1,0.2h7.8c0.4,0,0.7,0.1,1,0.4
			c0.3,0.3,0.4,0.6,0.4,1v12c0,0.4-0.1,0.7-0.4,1c-0.3,0.3-0.6,0.4-1,0.4h-15.1c-0.4,0-0.7-0.1-1-0.4c-0.3-0.3-0.4-0.6-0.4-1v-12
			c0-0.4,0.1-0.7,0.4-1c0.3-0.3,0.6-0.4,1-0.4h4.8c0.1,0,0.1,0,0.2-0.1c0.4-0.4,0.7-0.9,1-1.4c0.3-0.6,0.5-1.1,0.7-1.6
			c0-0.1,0-0.2-0.1-0.2h-8.3c-0.2,0-0.4-0.1-0.6-0.3s-0.3-0.4-0.3-0.6c0-0.2,0.1-0.4,0.3-0.6S337.4,975.4,337.6,975.4z M343.4,982.3
			C343.4,982.2,343.4,982.2,343.4,982.3l-3.5-0.1c-0.1,0-0.1,0-0.1,0.1v11c0,0.1,0,0.1,0.1,0.1h3.4c0.1,0,0.1,0,0.1-0.1V982.3z
			 M345.1,984.5C345.1,984.6,345.1,984.6,345.1,984.5l3.5,0.1c0.1,0,0.1,0,0.1-0.1v-2.1c0-0.1,0-0.1-0.1-0.1h-3.4
			c-0.1,0-0.1,0-0.1,0.1V984.5z M345.1,988.5C345.1,988.6,345.1,988.6,345.1,988.5l3.5,0.1c0.1,0,0.1,0,0.1-0.1v-2.1
			c0-0.1,0-0.1-0.1-0.1h-3.4c-0.1,0-0.1,0-0.1,0.1V988.5z M348.7,990.5C348.7,990.4,348.7,990.4,348.7,990.5l-3.5-0.1
			c-0.1,0-0.1,0-0.1,0.1v2.9c0,0.1,0,0.1,0.1,0.1h3.4c0.1,0,0.1,0,0.1-0.1V990.5z M350.4,993.4C350.4,993.5,350.4,993.5,350.4,993.4
			l3.5,0.1c0.1,0,0.1,0,0.1-0.1v-11c0-0.1,0-0.1-0.1-0.1h-3.4c-0.1,0-0.1,0-0.1,0.1V993.4z"/>
	</g>
	<g>
		<path d="M426.1,630.8c-0.4,0-0.7-0.1-0.9-0.3s-0.4-0.6-0.4-0.9c0-0.3,0.1-0.5,0.3-0.7c0.2-0.2,0.4-0.3,0.7-0.4
			c0.2,0,0.5,0,0.7-0.1c0.2,0,0.5,0,0.7-0.1c0.1,0,0.2-0.1,0.2-0.2v-5.4c0-0.3,0.1-0.6,0.4-0.8c0.2-0.2,0.5-0.4,0.8-0.4
			s0.6,0.1,0.8,0.4c0.2,0.2,0.4,0.5,0.4,0.8v5.2c0,0.1,0.1,0.2,0.2,0.2l1.8-0.2c0.1,0,0.2-0.1,0.2-0.2v-8.3c0-0.3,0.1-0.6,0.4-0.8
			c0.2-0.2,0.5-0.4,0.9-0.4c0.3,0,0.6,0.1,0.8,0.4c0.2,0.2,0.4,0.5,0.4,0.8v2.2c0,0.1,0.1,0.2,0.2,0.2h4.4c0.3,0,0.6,0.1,0.8,0.3
			s0.3,0.5,0.3,0.8s-0.1,0.6-0.3,0.8s-0.5,0.3-0.8,0.3h-4.4c-0.1,0-0.2,0.1-0.2,0.2v3c0,0.2,0.1,0.2,0.2,0.2
			c0.7-0.1,1.3-0.2,1.9-0.3s1.2-0.2,1.7-0.3c0.4,0,0.7,0,1,0.3c0.3,0.2,0.5,0.5,0.5,0.9c0,0.3-0.1,0.6-0.3,0.8
			c-0.2,0.2-0.4,0.3-0.7,0.4c-1.2,0.2-2.6,0.5-4.1,0.7s-3,0.4-4.5,0.6S427.3,630.7,426.1,630.8z M433.7,640.8
			c0.4,0.2,0.5,0.5,0.5,0.9c0,0.2-0.1,0.5-0.3,0.7c-0.9,1-2,1.9-3.4,2.7c-1.4,0.7-2.7,1.3-4,1.7c-0.1,0-0.2,0.1-0.3,0.1
			c-0.3,0-0.6-0.1-0.8-0.4c-0.2-0.2-0.4-0.5-0.4-0.9c0-0.6,0.3-1,0.9-1.2c1.4-0.4,2.6-0.9,3.6-1.4s1.8-1.2,2.4-1.8
			c0.3-0.3,0.7-0.5,1.1-0.5C433.3,640.6,433.5,640.7,433.7,640.8z M447.2,639.3c-0.1-0.1-0.2-0.1-0.3-0.1c-1,0.1-2.1,0.3-3.3,0.4
			c-1.2,0.1-2.4,0.2-3.6,0.3c-0.1,0-0.2,0.1-0.2,0.2v6.2c0,0.3-0.1,0.6-0.4,0.9s-0.5,0.4-0.9,0.4c-0.3,0-0.6-0.1-0.9-0.4
			c-0.2-0.2-0.4-0.5-0.4-0.9v-6c0-0.1-0.1-0.2-0.2-0.2c-1.7,0.1-3.3,0.2-4.9,0.3s-3.1,0.1-4.4,0.1c-0.3,0-0.5-0.1-0.8-0.3
			c-0.2-0.2-0.3-0.5-0.3-0.8s0.1-0.6,0.3-0.9c0.2-0.2,0.5-0.4,0.8-0.5c1.2-0.2,2.4-0.6,3.8-1.1c0.1-0.1,0.2-0.2,0.1-0.3
			c-0.3-0.3-0.6-0.6-1-0.9c-0.3-0.3-0.7-0.6-1-0.9c-0.3-0.2-0.4-0.5-0.4-0.8c0-0.4,0.2-0.7,0.6-0.9c0.9-0.3,1.9-0.7,2.8-1.2
			s1.7-1,2.4-1.6c0.3-0.3,0.7-0.4,1.1-0.4c0.3,0,0.5,0.1,0.8,0.3s0.4,0.5,0.4,0.9c0,0.3-0.1,0.5-0.3,0.7c-0.6,0.5-1.3,1-2,1.5
			s-1.4,0.8-2.1,1.2c-0.2,0.1-0.2,0.2-0.1,0.3c0.4,0.4,0.8,0.7,1.1,1.2c0.1,0.1,0.2,0.1,0.3,0.1c1.3-0.6,2.6-1.3,3.8-2
			c1.2-0.8,2.2-1.6,3.1-2.4c0.3-0.3,0.7-0.4,1.1-0.4c0.3,0,0.6,0.1,0.8,0.2c0.3,0.2,0.5,0.6,0.5,1c0,0.3-0.1,0.5-0.3,0.7
			c-0.6,0.6-1.4,1.2-2.3,1.9c-0.9,0.6-1.7,1.2-2.6,1.7s-1.5,0.9-2.1,1.1c-0.2,0.1-0.2,0.2,0,0.2c1.5-0.1,2.9-0.2,4.3-0.3
			s2.8-0.2,4.1-0.4c0.2,0,0.2-0.1,0.1-0.3c-0.1-0.1-0.2-0.1-0.2-0.2c-0.1-0.1-0.1-0.2-0.2-0.2c-0.3-0.2-0.5-0.6-0.5-1
			s0.1-0.7,0.4-0.9s0.7-0.4,1.1-0.4c0.5,0,0.8,0.2,1.1,0.5c0.6,0.7,1.2,1.4,1.9,2.3c0.7,0.9,1.3,1.7,1.7,2.5
			c0.1,0.2,0.1,0.3,0.1,0.5c0,0.5-0.2,0.9-0.7,1.1c-0.2,0.1-0.3,0.1-0.5,0.1c-0.5,0-0.9-0.2-1.2-0.7c-0.1-0.2-0.2-0.4-0.3-0.6
			C447.5,639.7,447.4,639.5,447.2,639.3z M453,627.4c0.1,0.2,0.2,0.4,0.2,0.7c0,0.5-0.2,0.9-0.5,1.1c-0.6,0.3-1.3,0.6-2,0.8
			s-1.6,0.3-2.5,0.3H445c-1.2,0-2.2-0.3-3-0.9c-0.8-0.6-1.2-1.5-1.2-2.6v-7.5c0-0.3,0.1-0.6,0.4-0.8c0.2-0.2,0.5-0.4,0.8-0.4
			s0.6,0.1,0.8,0.4c0.2,0.2,0.4,0.5,0.4,0.8v3.3c0,0.2,0.1,0.2,0.2,0.2c1.1-0.2,2.3-0.5,3.6-0.8s2.4-0.8,3.5-1.3
			c0.1-0.1,0.3-0.1,0.4-0.1c0.3,0,0.5,0.1,0.7,0.3s0.3,0.5,0.3,0.8c0,0.2-0.1,0.5-0.2,0.7s-0.3,0.4-0.6,0.5c-1.2,0.5-2.5,1-3.9,1.4
			s-2.7,0.7-3.9,0.9c-0.1,0-0.2,0.1-0.2,0.2v1.3c0,0.4,0.1,0.7,0.3,0.9s0.5,0.3,1,0.4c0.5,0.1,1.2,0.1,2.1,0.1c1,0,1.8,0,2.4-0.1
			c0.6,0,1.1-0.1,1.5-0.3c0.4-0.1,0.8-0.3,1.1-0.5c0.2-0.1,0.4-0.2,0.6-0.2C452.5,626.9,452.8,627,453,627.4z M451.3,644.4
			c0.3,0.1,0.5,0.2,0.7,0.5c0.2,0.2,0.3,0.5,0.3,0.7c0,0.3-0.1,0.6-0.3,0.8s-0.5,0.3-0.8,0.3c-0.1,0-0.2,0-0.3-0.1
			c-1.5-0.5-3-1.1-4.3-1.9s-2.5-1.7-3.5-2.7c-0.2-0.2-0.3-0.4-0.3-0.7c0-0.4,0.1-0.7,0.4-0.9c0.2-0.2,0.5-0.3,0.8-0.3
			s0.6,0.1,0.9,0.3c1,0.9,2,1.6,3.2,2.3C449,643.6,450.2,644.1,451.3,644.4z"/>
		<path d="M465.8,630.9c-0.6-0.4-1.3-0.8-2-1.2c-0.8-0.4-1.5-0.8-2.3-1.1c-0.6-0.3-0.9-0.7-0.9-1.3c0-0.4,0.1-0.7,0.4-0.9
			s0.5-0.4,0.9-0.4c0.1,0,0.2,0,0.4,0.1c0.7,0.3,1.5,0.6,2.3,1s1.5,0.8,2.2,1.2c0.5,0.3,0.8,0.8,0.8,1.5c0,0.2,0,0.4-0.1,0.6
			c-0.2,0.4-0.5,0.6-1,0.6C466.2,631.1,466,631,465.8,630.9z M461.8,621.8c-0.3-0.1-0.5-0.2-0.7-0.5s-0.3-0.5-0.3-0.7
			c0-0.4,0.1-0.7,0.4-0.9c0.2-0.2,0.5-0.4,0.8-0.4c0.1,0,0.1,0,0.2,0s0.1,0,0.2,0.1c1.5,0.4,3,1,4.5,1.8c0.6,0.3,0.8,0.8,0.8,1.5
			c0,0.1,0,0.2,0,0.3s0,0.2-0.1,0.3c-0.1,0.5-0.5,0.7-1,0.7c-0.2,0-0.4-0.1-0.6-0.2c-0.6-0.4-1.3-0.7-2-1.1
			C463.4,622.3,462.6,622,461.8,621.8z M466.6,634c0.4,0,0.7,0.1,1,0.4c0.2,0.2,0.4,0.5,0.4,0.9c0,0.1,0,0.2,0,0.3
			c-0.4,1.9-1,3.8-1.7,5.8s-1.5,3.8-2.4,5.4c-0.3,0.6-0.8,0.9-1.5,0.9c-0.1,0-0.2,0-0.2,0c-0.1,0-0.1,0-0.2-0.1
			c-0.5-0.1-0.7-0.5-0.7-1c0-0.2,0-0.4,0.1-0.5c0.9-1.5,1.7-3.3,2.4-5.2s1.4-3.9,1.8-5.8c0.1-0.3,0.2-0.5,0.4-0.7
			S466.4,634,466.6,634z M488.9,644.9c0.3,0.1,0.5,0.2,0.7,0.5s0.3,0.5,0.3,0.8c0,0.1,0,0.2,0,0.3c-0.2,0.7-0.6,1-1.3,1
			c0,0-0.1,0-0.2,0s-0.1,0-0.2,0c-1.5-0.4-2.9-1-4.2-1.7c-1.4-0.7-2.7-1.5-3.9-2.5c-0.1-0.1-0.2-0.1-0.3,0c-1.2,1-2.4,1.8-3.8,2.5
			s-2.6,1.2-3.9,1.6c-0.1,0-0.2,0-0.3,0c-0.3,0-0.6-0.1-0.8-0.3c-0.2-0.2-0.4-0.5-0.4-0.9c0-0.6,0.3-1,0.9-1.3
			c2.2-0.8,4.3-1.9,6.3-3.4c0.1-0.1,0.1-0.2,0-0.3c-0.8-0.9-1.6-1.8-2.3-2.8s-1.3-2-1.7-3.1c-0.1-0.1-0.1-0.3-0.1-0.4
			c0-0.3,0.1-0.6,0.4-0.8c0.2-0.2,0.5-0.4,0.9-0.4c0.3,0,0.6,0.1,0.8,0.3c0.2,0.2,0.4,0.4,0.5,0.7c0.8,1.9,1.9,3.5,3.3,5
			c0.1,0.1,0.2,0.1,0.3,0c0.9-0.9,1.7-1.9,2.4-2.9c0.7-1,1.3-2.1,1.8-3.2c0.1-0.2,0-0.2-0.2-0.2h-11.8c-0.1,0-0.2,0.1-0.2,0.2
			c-0.1,2.7-0.4,5-0.7,7.1s-1,4-1.8,5.9c-0.2,0.6-0.7,0.9-1.4,0.9c-0.2,0-0.3,0-0.4,0c-0.2,0-0.4-0.2-0.6-0.4s-0.2-0.4-0.2-0.6
			c0-0.1,0-0.3,0.1-0.4c0.5-1.3,1-2.6,1.3-4c0.3-1.3,0.6-2.8,0.8-4.4c0.2-1.6,0.3-3.4,0.4-5.4s0.1-4.3,0.1-6.9v-0.9
			c0-0.6,0.2-1,0.6-1.4s0.9-0.6,1.4-0.6h6c0.1,0,0.2-0.1,0.2-0.2v-2.7c0-0.4,0.1-0.7,0.4-0.9c0.2-0.2,0.6-0.4,0.9-0.4
			s0.6,0.1,0.9,0.4c0.2,0.2,0.4,0.6,0.4,0.9v2.7c0,0.1,0.1,0.2,0.2,0.2h6.2c0.5,0,1,0.2,1.3,0.6c0.4,0.4,0.5,0.9,0.4,1.4
			s-0.2,1-0.3,1.6c-0.1,0.5-0.3,1-0.4,1.5c-0.1,0.3-0.3,0.5-0.5,0.7s-0.5,0.3-0.8,0.3c-0.4,0-0.7-0.1-0.9-0.4
			c-0.2-0.2-0.3-0.5-0.3-0.8c0-0.1,0-0.1,0-0.2c0-0.1,0-0.1,0.1-0.2c0.1-0.3,0.2-0.6,0.3-0.9c0.1-0.3,0.2-0.6,0.2-0.9
			c0-0.2-0.1-0.2-0.2-0.2h-5c-0.1,0-0.2,0.1-0.2,0.2v5.7c0,0.1,0.1,0.2,0.2,0.2h4.9c0.5,0,0.8,0.2,1.1,0.5c0.3,0.3,0.5,0.7,0.5,1.1
			c0,0.1,0,0.3-0.1,0.4c-0.5,1.7-1.2,3.2-2.1,4.6c-0.9,1.4-1.9,2.7-3.1,3.9c-0.1,0.1-0.1,0.2,0,0.3c1,0.7,2.1,1.4,3.2,1.9
			C486.3,644,487.6,644.5,488.9,644.9z M472.4,624.7c-0.1,0-0.2,0.1-0.2,0.2v0.2c0,1,0,1.9,0,2.9c0,0.9,0,1.8-0.1,2.6
			c0,0.1,0.1,0.2,0.2,0.2h5.4c0.1,0,0.2-0.1,0.2-0.2v-5.7c0-0.1-0.1-0.2-0.2-0.2H472.4z"/>
	</g>
	<g>
		<g>
			<polyline class="st17" points="378.6,565.8 409.5,663.4 503.6,663.4 			"/>
			<g>
				<path d="M375.1,567.1c-0.6-2,0.5-4.1,2.4-4.7s4.1,0.5,4.7,2.4c0.6,2-0.5,4.1-2.4,4.7C377.8,570.2,375.7,569.1,375.1,567.1z"/>
			</g>
		</g>
	</g>
	<text transform="matrix(1 0 0 1 338.7764 558.0307)" class="st18 st19 st20 st21">★</text>
	<text transform="matrix(1 0 0 1 338.7764 558.0307)" class="st22 st19 st20 st21">★</text>
</g>
<g id="レイヤー_6">
</g>
<g id="レイヤー_7">
</g>
<g id="レイヤー_8">
	<g>
		<path d="M25.8,825.7h-2.4c-0.1,0-0.1,0-0.1,0.1v0.1c0.4,0.4,0.8,0.8,1.2,1.2s0.7,0.9,1,1.4c0.1,0.1,0.1,0.2,0.1,0.3
			c0,0.3-0.1,0.5-0.4,0.7c-0.1,0.1-0.2,0.1-0.3,0.1c-0.3,0-0.5-0.1-0.7-0.4c-0.2-0.3-0.3-0.6-0.5-0.8c-0.2-0.3-0.4-0.5-0.7-0.8
			c0,0-0.1-0.1-0.1,0c0,0-0.1,0-0.1,0.1v3.9c0,0.2-0.1,0.4-0.2,0.5c-0.1,0.2-0.3,0.2-0.5,0.2s-0.4-0.1-0.6-0.2
			c-0.1-0.2-0.2-0.3-0.2-0.5v-3.3c0-0.1,0-0.1-0.1-0.1c0,0-0.1,0-0.1,0.1c-0.4,0.5-0.9,1.1-1.4,1.6s-1,1-1.5,1.3
			c-0.1,0.1-0.3,0.1-0.4,0.1c-0.3,0-0.4-0.1-0.6-0.4c-0.1-0.1-0.1-0.2-0.1-0.4c0-0.3,0.1-0.5,0.4-0.7c0.7-0.6,1.4-1.2,1.9-1.9
			c0.6-0.7,1-1.3,1.3-1.9c0.1-0.1,0-0.1-0.1-0.1h-2.5c-0.2,0-0.4-0.1-0.5-0.2c-0.1-0.1-0.2-0.3-0.2-0.5s0.1-0.4,0.2-0.5
			s0.3-0.2,0.5-0.2h3c0.1,0,0.1,0,0.1-0.1v-0.6c0-0.2,0.1-0.4,0.2-0.6c0.1-0.1,0.3-0.2,0.6-0.2c0.2,0,0.4,0.1,0.5,0.2
			c0.1,0.1,0.2,0.3,0.2,0.6v0.6c0,0.1,0,0.1,0.1,0.1h2.8c0.2,0,0.4,0.1,0.5,0.2c0.1,0.1,0.2,0.3,0.2,0.5s-0.1,0.4-0.2,0.5
			C26.2,825.6,26,825.7,25.8,825.7z M25.9,822.5h-7.7c-0.2,0-0.4-0.1-0.5-0.2c-0.1-0.1-0.2-0.3-0.2-0.5s0.1-0.4,0.2-0.5
			c0.1-0.1,0.3-0.2,0.5-0.2h3.7c0.1,0,0.1,0,0.1-0.1c0.6-0.8,1.1-1.7,1.5-2.8c0.1-0.2,0.2-0.3,0.3-0.4c0.1-0.1,0.3-0.2,0.4-0.2
			c0.2,0,0.4,0.1,0.6,0.2c0.1,0.2,0.2,0.3,0.2,0.5v0.1v0.1c-0.1,0.4-0.3,0.8-0.5,1.2s-0.4,0.7-0.6,1.1c0,0.1,0,0.1,0.1,0.1h1.8
			c0.2,0,0.4,0.1,0.5,0.2c0.1,0.1,0.2,0.3,0.2,0.5s-0.1,0.4-0.2,0.5C26.3,822.4,26.1,822.5,25.9,822.5z M25.5,817.6h-6.9
			c-0.2,0-0.4-0.1-0.5-0.2c-0.1-0.1-0.2-0.3-0.2-0.5s0.1-0.4,0.2-0.5c0.1-0.1,0.3-0.2,0.5-0.2h2.5c0.1,0,0.1,0,0.1-0.1v-1.3
			c0-0.2,0.1-0.4,0.2-0.5c0.2-0.2,0.3-0.2,0.6-0.2c0.2,0,0.4,0.1,0.5,0.2c0.2,0.2,0.2,0.3,0.2,0.5v1.3c0,0.1,0,0.1,0.1,0.1h2.5
			c0.2,0,0.4,0.1,0.5,0.2c0.1,0.1,0.2,0.3,0.2,0.5s-0.1,0.4-0.2,0.5C25.9,817.5,25.7,817.6,25.5,817.6z M19.4,817.8
			c0.2-0.1,0.3-0.1,0.4-0.1c0.3,0,0.5,0.1,0.7,0.4c0.2,0.3,0.4,0.6,0.6,0.9c0.2,0.3,0.3,0.6,0.5,0.9c0,0.1,0.1,0.2,0.1,0.3
			c0,0.3-0.1,0.6-0.4,0.7c-0.1,0-0.2,0.1-0.3,0.1c-0.3,0-0.5-0.1-0.7-0.4c-0.1-0.3-0.3-0.5-0.5-0.8s-0.4-0.6-0.6-0.9
			c-0.1-0.1-0.1-0.3-0.1-0.4C19,818.1,19.2,817.9,19.4,817.8z M28.4,820.5C28.4,820.6,28.4,820.6,28.4,820.5l6,0.1
			c0.2,0,0.4,0.1,0.5,0.2c0.2,0.2,0.2,0.3,0.2,0.5s-0.1,0.4-0.2,0.5s-0.3,0.2-0.5,0.2H33c-0.1,0-0.1,0-0.1,0.1v9.1
			c0,0.2-0.1,0.4-0.2,0.6s-0.3,0.2-0.6,0.2s-0.4-0.1-0.6-0.2s-0.2-0.4-0.2-0.6v-9.1c0-0.1,0-0.1-0.1-0.1h-2.7c-0.1,0-0.1,0-0.1,0.1
			c0,2.1-0.1,3.9-0.2,5.3c-0.1,1.5-0.4,2.8-0.8,3.9c-0.2,0.4-0.5,0.6-0.9,0.6h-0.1h-0.1c-0.2,0-0.3-0.1-0.4-0.2
			c-0.1-0.1-0.1-0.3-0.1-0.4c0-0.1,0-0.2,0.1-0.3c0.3-0.7,0.5-1.4,0.7-2.3c0.1-0.9,0.2-1.9,0.3-3.1c0-1.2,0.1-2.7,0.1-4.4v-3.7
			c0-0.4,0.1-0.7,0.4-0.9c0.2-0.3,0.5-0.4,0.9-0.5c1.1-0.2,2.1-0.4,3.2-0.6c1.1-0.3,2-0.6,2.9-0.9c0.1,0,0.2-0.1,0.3-0.1
			c0.2,0,0.4,0.1,0.5,0.2c0.2,0.1,0.2,0.3,0.2,0.6c0,0.2-0.1,0.4-0.2,0.5s-0.3,0.3-0.5,0.3c-0.9,0.3-1.9,0.6-3,0.9
			c-1.1,0.3-2.1,0.5-3.1,0.6c-0.1,0-0.1,0.1-0.1,0.1v2.8H28.4z"/>
		<path d="M44.6,827.7C44.6,827.8,44.6,827.8,44.6,827.7l2.6,0.1c0.2,0,0.4,0.1,0.5,0.2c0.1,0.1,0.2,0.3,0.2,0.5s-0.1,0.4-0.2,0.5
			c-0.1,0.1-0.3,0.2-0.5,0.2h-2.5c-0.1,0-0.1,0-0.1,0.1v2c0,0.2-0.1,0.4-0.2,0.5c-0.1,0.1-0.3,0.2-0.5,0.2s-0.4-0.1-0.5-0.2
			c-0.1-0.1-0.2-0.3-0.2-0.5v-2c0-0.1,0-0.1-0.1-0.1h-2.3c-0.2,0-0.4-0.1-0.5-0.2c-0.1-0.1-0.2-0.3-0.2-0.5s0.1-0.4,0.2-0.5
			c0.1-0.1,0.3-0.2,0.5-0.2h2.3c0.1,0,0.1,0,0.1-0.1v-1.4c0-0.1,0-0.1-0.1-0.1h-1.3c-0.3,0-0.6-0.1-0.9-0.4
			c-0.2-0.2-0.4-0.5-0.4-0.9v-4.6c0-0.3,0.1-0.6,0.4-0.9s0.5-0.4,0.9-0.4h1.4c0.1,0,0.1,0,0.1-0.1v-1.3c0-0.1,0-0.1-0.1-0.1h-2.3
			c-0.2,0-0.4-0.1-0.5-0.2c-0.1-0.1-0.2-0.3-0.2-0.5s0.1-0.4,0.2-0.5c0.1-0.1,0.3-0.2,0.5-0.2h2.3c0.1,0,0.1,0,0.1-0.1v-1
			c0-0.2,0.1-0.4,0.2-0.5c0.1-0.1,0.3-0.2,0.5-0.2s0.4,0.1,0.5,0.2c0.1,0.1,0.2,0.3,0.2,0.5v1c0,0.1,0,0.1,0.1,0.1h2.5
			c0.2,0,0.4,0.1,0.5,0.2c0.1,0.1,0.2,0.3,0.2,0.5s-0.1,0.4-0.2,0.5c-0.1,0.1-0.3,0.2-0.5,0.2h-2.5c-0.1,0-0.1,0-0.1,0.1v1.3
			c0,0.1,0,0.1,0.1,0.1h1.3c0.4,0,0.6,0.1,0.9,0.4s0.4,0.5,0.4,0.9v4.6c0,0.4-0.1,0.6-0.4,0.9c-0.2,0.2-0.5,0.4-0.9,0.4h-1.4
			c-0.1,0-0.1,0-0.1,0.1V827.7z M45.8,821.8C45.9,821.8,45.9,821.8,45.8,821.8l0.1-1.2c0-0.1,0-0.1-0.1-0.1H42c-0.1,0-0.1,0-0.1,0.1
			v1.1c0,0.1,0,0.1,0.1,0.1H45.8z M45.9,823.4C45.9,823.3,45.9,823.3,45.9,823.4l-3.9-0.1c-0.1,0-0.1,0-0.1,0.1v1.2
			c0,0.1,0,0.1,0.1,0.1h3.8c0.1,0,0.1,0,0.1-0.1L45.9,823.4L45.9,823.4z M57.6,818.3c0.3,0.2,0.4,0.5,0.4,0.8c0,0.2-0.1,0.4-0.2,0.5
			c-0.1,0.1-0.3,0.2-0.5,0.2c-0.1,0-0.2,0-0.3-0.1c-0.8-0.5-1.6-1.1-2.3-1.8s-1.3-1.3-1.9-1.9c0-0.1-0.1-0.1-0.2,0
			c-0.2,0.2-0.5,0.5-0.9,1c-0.4,0.4-1,0.9-1.5,1.4c-0.6,0.5-1.1,0.9-1.7,1.3c-0.1,0.1-0.3,0.1-0.4,0.1c-0.3,0-0.5-0.1-0.7-0.4
			c-0.1-0.1-0.1-0.2-0.1-0.4c0-0.3,0.1-0.6,0.4-0.8c0.8-0.5,1.5-1.1,2.3-1.7c0.7-0.7,1.4-1.3,1.9-1.9c0.2-0.2,0.5-0.4,0.8-0.4
			s0.6,0.1,0.8,0.3c0.4,0.4,0.8,0.8,1.3,1.3s1,0.9,1.5,1.3C56.7,817.6,57.2,818,57.6,818.3z M53.5,824.6
			C53.5,824.7,53.5,824.7,53.5,824.6l3.5,0.1c0.2,0,0.4,0.1,0.5,0.2c0.1,0.1,0.2,0.3,0.2,0.5s-0.1,0.4-0.2,0.5
			c-0.1,0.1-0.3,0.2-0.5,0.2h-3.4c-0.1,0-0.1,0-0.1,0.1v5.2c0,0.2-0.1,0.4-0.2,0.5c-0.1,0.1-0.3,0.2-0.5,0.2s-0.4-0.1-0.5-0.2
			c-0.1-0.1-0.2-0.3-0.2-0.5v-5.2c0-0.1,0-0.1-0.1-0.1h-3.3c-0.2,0-0.4-0.1-0.5-0.2c-0.1-0.1-0.2-0.3-0.2-0.5s0.1-0.4,0.2-0.5
			c0.1-0.1,0.3-0.2,0.5-0.2H52c0.1,0,0.1,0,0.1-0.1v-2.8c0-0.1,0-0.1-0.1-0.1h-2.2c-0.2,0-0.4-0.1-0.5-0.2c-0.1-0.1-0.2-0.3-0.2-0.5
			s0.1-0.4,0.2-0.5c0.1-0.1,0.3-0.2,0.5-0.2H56c0.2,0,0.4,0.1,0.5,0.2c0.1,0.1,0.2,0.3,0.2,0.5s-0.1,0.4-0.2,0.5
			c-0.1,0.1-0.3,0.2-0.5,0.2h-2.3c-0.1,0-0.1,0-0.1,0.1v2.8H53.5z"/>
		<path d="M68.2,824.1C68.2,824,68.1,824,68.2,824.1c-0.3-0.1-0.4,0-0.6,0s-0.3,0.1-0.5,0.1c-0.1,0-0.1,0.1-0.1,0.1v7.1
			c0,0.2-0.1,0.4-0.2,0.5c-0.2,0.2-0.3,0.2-0.5,0.2s-0.4-0.1-0.6-0.2c-0.1-0.2-0.2-0.3-0.2-0.5v-6.8c0-0.1,0-0.1-0.1-0.1
			c-0.3,0-0.7,0.1-1,0.1s-0.6,0.1-0.9,0.1c-0.3,0-0.5-0.1-0.6-0.3c-0.2-0.2-0.2-0.4-0.2-0.6c0-0.2,0-0.3,0.1-0.5
			c0.1-0.1,0.2-0.3,0.3-0.4c0.3-0.2,0.5-0.4,0.8-0.7s0.5-0.6,0.8-0.9c0-0.1,0-0.1,0-0.2c-0.2-0.4-0.5-0.7-0.7-1
			c-0.3-0.3-0.5-0.6-0.7-0.8c-0.3-0.3-0.4-0.6-0.4-1c0-0.3,0.1-0.6,0.3-0.8c0.3-0.5,0.6-1,0.9-1.5c0.3-0.5,0.5-1,0.6-1.5
			c0-0.2,0.1-0.3,0.3-0.4c0.1-0.1,0.3-0.2,0.5-0.2s0.4,0.1,0.5,0.2c0.1,0.1,0.2,0.3,0.2,0.5c0,0.1,0,0.1,0,0.2
			c-0.2,0.6-0.4,1.3-0.7,1.8c-0.3,0.6-0.6,1.1-1,1.6c0,0.1,0,0.1,0,0.2c0.2,0.2,0.4,0.4,0.6,0.7s0.4,0.5,0.6,0.7l0.1,0.1
			c0,0,0.1,0,0.1-0.1c0.4-0.6,0.7-1.2,1-1.9s0.6-1.4,0.7-2.2c0-0.2,0.1-0.3,0.3-0.4c0.1-0.1,0.3-0.2,0.5-0.2s0.4,0.1,0.6,0.2
			c0.1,0.2,0.2,0.3,0.2,0.6c0,0.1,0,0.1,0,0.2c-0.2,0.9-0.5,1.8-1,2.7s-0.9,1.7-1.3,2.4c-0.5,0.7-0.9,1.3-1.3,1.7c0,0-0.1,0.1,0,0.1
			c0,0,0,0,0.1,0c0.4-0.1,0.7-0.1,1.1-0.2c0.4-0.1,0.7-0.2,1.1-0.3c0.1,0,0.1-0.1,0.1-0.2c-0.1-0.1-0.1-0.3-0.2-0.4
			c-0.1-0.1-0.1-0.3-0.2-0.4c0-0.1-0.1-0.2-0.1-0.3c0-0.2,0.1-0.4,0.2-0.5c0.1-0.1,0.3-0.2,0.6-0.2c0.2,0,0.3,0,0.5,0.1
			s0.3,0.2,0.3,0.4c0.2,0.4,0.3,0.8,0.5,1.3s0.3,1,0.4,1.6c0.1,0.2,0,0.5-0.1,0.7s-0.4,0.3-0.6,0.3c-0.2,0-0.3,0-0.4-0.1
			c-0.1-0.1-0.2-0.2-0.2-0.4L68.2,824.1z M64.2,825.5c0.3,0,0.5,0.1,0.6,0.3s0.2,0.4,0.2,0.6c-0.1,0.8-0.2,1.6-0.3,2.5
			s-0.3,1.7-0.6,2.4c-0.1,0.2-0.2,0.3-0.3,0.4c-0.2,0.1-0.3,0.1-0.5,0.1s-0.4-0.1-0.5-0.2c-0.1-0.1-0.2-0.3-0.2-0.5V831v-0.1
			c0.3-0.8,0.5-1.6,0.6-2.4c0.1-0.8,0.2-1.6,0.3-2.4c0-0.2,0.1-0.3,0.2-0.5S64,825.5,64.2,825.5z M69.3,828.5c0,0.2,0,0.4-0.2,0.6
			c-0.1,0.2-0.3,0.3-0.6,0.3c-0.2,0-0.3-0.1-0.5-0.2c-0.1-0.1-0.2-0.2-0.2-0.4c-0.1-0.4-0.2-0.8-0.3-1.2s-0.2-0.7-0.3-1
			c0-0.1-0.1-0.2-0.1-0.3c0-0.2,0.1-0.4,0.2-0.5c0.1-0.1,0.3-0.2,0.5-0.2s0.3,0,0.5,0.1c0.1,0.1,0.2,0.2,0.3,0.4
			c0.1,0.4,0.2,0.7,0.3,1.1C69.1,827.7,69.2,828.1,69.3,828.5z M70.2,824.7h2.7c0.3,0,0.5,0.1,0.7,0.3s0.3,0.4,0.3,0.7
			c0,0.1,0,0.1,0,0.1v0.1c-0.4,1.1-0.9,2.1-1.7,3.1c-0.7,0.9-1.5,1.7-2.4,2.2c-0.1,0.1-0.2,0.1-0.3,0.1c-0.3,0-0.5-0.1-0.6-0.4
			c-0.1-0.1-0.1-0.2-0.1-0.3c0-0.3,0.1-0.5,0.4-0.7c0.7-0.4,1.3-1,1.9-1.6c0.6-0.6,1-1.3,1.2-1.9c0.1-0.1,0-0.1-0.1-0.1h-2
			c-0.2,0-0.4-0.1-0.5-0.2c-0.1-0.1-0.2-0.3-0.2-0.5s0.1-0.4,0.2-0.5C69.9,824.8,70,824.7,70.2,824.7z M77.8,823.1h-5.9
			c-0.4,0-0.6-0.1-0.9-0.4c-0.2-0.2-0.4-0.5-0.4-0.9v-4.9c0-0.3,0.1-0.6,0.4-0.9c0.2-0.2,0.5-0.4,0.9-0.4h1.6c0.1,0,0.1,0,0.1-0.1
			c0.1-0.2,0.1-0.3,0.2-0.5s0.1-0.3,0.2-0.5c0.1-0.4,0.4-0.6,0.8-0.6c0.2,0,0.4,0.1,0.5,0.2c0.1,0.1,0.2,0.3,0.2,0.5
			c0,0.1,0,0.1,0,0.2c0,0.1-0.1,0.2-0.1,0.3s-0.1,0.2-0.1,0.3s0,0.1,0.1,0.1h2.4c0.3,0,0.6,0.1,0.9,0.4s0.4,0.5,0.4,0.9v4.9
			c0,0.3-0.1,0.6-0.4,0.9S78.1,823.1,77.8,823.1z M77.4,818.6C77.5,818.6,77.5,818.6,77.4,818.6l0.1-1.3c0-0.1,0-0.1-0.1-0.1h-5.1
			c-0.1,0-0.1,0-0.1,0.1v1.2c0,0.1,0,0.1,0.1,0.1H77.4z M72.2,820.1C72.1,820.1,72.1,820.1,72.2,820.1l-0.1,1.4c0,0.1,0,0.1,0.1,0.1
			h5.1c0.1,0,0.1,0,0.1-0.1v-1.3c0-0.1,0-0.1-0.1-0.1H72.2z M80.1,830.1c0.3,0.2,0.4,0.4,0.4,0.8c0,0.2-0.1,0.4-0.2,0.5
			c-0.1,0.1-0.3,0.2-0.5,0.2s-0.3,0-0.4-0.1c-0.8-0.5-1.5-1.1-2.1-1.8s-1.2-1.4-1.7-2.2c0-0.1-0.1-0.1-0.1-0.1s-0.1,0-0.1,0.1v3.2
			c0,0.4-0.2,0.8-0.6,1.1c-0.4,0.3-0.9,0.4-1.6,0.4c-0.1,0-0.2,0-0.2,0s-0.2,0-0.3,0c-0.2,0-0.4-0.1-0.5-0.3
			c-0.1-0.1-0.2-0.3-0.2-0.5s0.1-0.4,0.3-0.6c0.2-0.1,0.4-0.2,0.6-0.2c0.1,0,0.2,0,0.2,0c0.1,0,0.1,0,0.2,0c0.3,0,0.5-0.1,0.5-0.2
			v-6.5c0-0.2,0.1-0.4,0.2-0.5c0.1-0.1,0.3-0.2,0.5-0.2s0.4,0.1,0.5,0.2c0.1,0.1,0.2,0.3,0.2,0.5v0.2c0,0.1,0,0.1,0,0.2
			c0.3,0.6,0.6,1.3,1,2c0.1,0.1,0.1,0.1,0.2,0c0.3-0.3,0.7-0.6,1-1s0.6-0.8,0.9-1.2c0.2-0.2,0.4-0.3,0.6-0.3c0.2,0,0.4,0.1,0.5,0.2
			c0.1,0.1,0.2,0.3,0.2,0.5c0,0.1,0,0.2-0.1,0.3c-0.3,0.5-0.6,1-1,1.4s-0.8,0.9-1.2,1.2c-0.1,0.1-0.1,0.1,0,0.2
			c0.4,0.4,0.8,0.8,1.2,1.2C79.2,829.4,79.7,829.8,80.1,830.1z"/>
	</g>
</g>
<g id="レイヤー_9">
</g>
</svg>
