<svg xmlns="http://www.w3.org/2000/svg" width="337" height="194" viewBox="0 0 337 194"><defs><style>.a{fill:#e6e403;}.b{fill:#6a5e4e;}.c{fill:#7b8395;}</style></defs><g transform="translate(-721 -976)"><g transform="translate(883 -199.047)"><path class="a" d="M17.219,35.387c4.043-11.65,20.519-11.65,24.563,0L53.009,67.738A13,13,0,0,1,40.728,85H18.272A13,13,0,0,1,5.991,67.738Z" transform="translate(9 1210.047)"/><rect class="b" width="4" height="51" transform="translate(36 1262.047)"/></g><g transform="translate(918 -234.5)"><path class="a" d="M19.852,31.889a13,13,0,0,1,24.3,0L57.285,66.372A13,13,0,0,1,45.136,84H18.864A13,13,0,0,1,6.715,66.372Z" transform="translate(9 1210.5)"/><rect class="c" width="4" height="56" transform="translate(39 1266.5)"/></g><g transform="translate(712 -152.5)"><path class="a" d="M19.852,31.889a13,13,0,0,1,24.3,0L57.285,66.372A13,13,0,0,1,45.136,84H18.864A13,13,0,0,1,6.715,66.372Z" transform="translate(9 1210.5)"/><rect class="c" width="4" height="56" transform="translate(39 1266.5)"/></g><g transform="translate(950 -234.566)"><path class="a" d="M37.263,34.114c4.118-11.481,20.355-11.481,24.473,0l31.026,86.5A13,13,0,0,1,80.526,138H18.474A13,13,0,0,1,6.237,120.611Z" transform="translate(9 1210.566)"/><rect class="b" width="7" height="70" transform="translate(55 1313.566)"/></g><g transform="translate(798.867 1011.525)"><path class="b" d="M99.266,50.975c-16.444,2.607-33.036,3.278-49.635,3.278S16.442,53.582,0,50.975L3.377,62.088q9.465,1.347,18.977,2.142l-.624,15.828H7.8v9.225H21.366l-1.608,40.8,9.847.388,1.624-41.192H68.037l1.624,41.192,9.848-.388-1.61-40.8H91.465V80.058H77.535l-.623-15.828q9.51-.8,18.979-2.142ZM44.706,80.058H31.6l.6-15.153q6.25.334,12.513.423v14.73Zm9.854,0V65.328q6.262-.092,12.517-.423l.6,15.153H54.56Z" transform="translate(0 0)"/></g></g></svg>