<?xml version="1.0" encoding="utf-8"?>
<!-- Generator: Adobe Illustrator 27.2.0, SVG Export Plug-In . SVG Version: 6.00 Build 0)  -->
<svg version="1.1" id="レイヤー_1" xmlns="http://www.w3.org/2000/svg" xmlns:xlink="http://www.w3.org/1999/xlink" x="0px"
	 y="0px" viewBox="0 0 479.6 204.9" style="enable-background:new 0 0 479.6 204.9;" xml:space="preserve">
<style type="text/css">
	.st0{fill:#E6E403;}
	.st1{enable-background:new    ;}
	.st2{fill:#393723;}
	.st3{fill:#FFFFFF;}
</style>
<g id="グループ_89" transform="translate(-17.703 -353.106)">
	
		<rect id="長方形_141" x="21.9" y="369.2" transform="matrix(0.9781 -0.2079 0.2079 0.9781 -80.4521 29.9386)" class="st0" width="160.6" height="57"/>
	<path id="パス_35" class="st0" d="M94.1,452.7l249.8-53.1l11.9,56L106,508.7L94.1,452.7z"/>
	
		<rect id="長方形_143" x="229.5" y="476.8" transform="matrix(0.9781 -0.2079 0.2079 0.9781 -96.8557 86.277)" class="st0" width="265.1" height="54.3"/>
	<g id="メインビジュコピー" transform="translate(-111.496 25.955) rotate(-3)">
		<g class="st1">
			<path class="st2" d="M150.5,387.8c-0.4,0.1-0.7,0-1-0.2c-0.3-0.2-0.5-0.5-0.6-0.9c0-0.3,0-0.6,0.2-0.8c0.2-0.3,0.4-0.4,0.7-0.5
				c0.2-0.1,0.5-0.1,0.7-0.2c0.2-0.1,0.5-0.1,0.7-0.2c0.1,0,0.2-0.1,0.2-0.2l-1-5.7c-0.1-0.3,0-0.6,0.2-0.9c0.2-0.3,0.5-0.5,0.8-0.5
				c0.3-0.1,0.6,0,0.9,0.2c0.3,0.2,0.5,0.5,0.5,0.8l1,5.4c0,0.1,0.1,0.2,0.2,0.1l1.8-0.6c0.1,0,0.2-0.1,0.2-0.3l-1.5-8.6
				c-0.1-0.3,0-0.6,0.2-0.9c0.2-0.3,0.5-0.5,0.8-0.5c0.3-0.1,0.6,0,0.9,0.2c0.3,0.2,0.5,0.5,0.5,0.8l0.4,2.3c0,0.1,0.1,0.2,0.3,0.2
				l4.5-0.8c0.3-0.1,0.6,0,0.9,0.2c0.3,0.2,0.4,0.4,0.5,0.8c0.1,0.3,0,0.6-0.2,0.9c-0.2,0.3-0.4,0.4-0.8,0.5l-4.5,0.8
				c-0.1,0-0.2,0.1-0.2,0.2l0.6,3.2c0,0.2,0.1,0.2,0.2,0.2c0.7-0.2,1.3-0.5,1.9-0.7c0.6-0.2,1.2-0.4,1.7-0.6
				c0.4-0.1,0.7-0.1,1.1,0.1c0.4,0.2,0.6,0.5,0.6,0.9c0.1,0.3,0,0.6-0.1,0.8c-0.1,0.3-0.4,0.4-0.7,0.5c-1.3,0.5-2.6,1-4.2,1.5
				c-1.5,0.5-3,1-4.5,1.4C153.1,387.1,151.7,387.5,150.5,387.8z M160.3,396.9c0.4,0.2,0.7,0.5,0.7,0.9c0,0.2,0,0.5-0.2,0.8
				c-0.8,1.3-1.8,2.4-3.1,3.4c-1.3,1-2.6,1.8-3.9,2.5c-0.1,0.1-0.2,0.1-0.3,0.1c-0.3,0.1-0.6,0-1-0.2c-0.3-0.2-0.5-0.5-0.6-0.9
				c-0.1-0.6,0.1-1.1,0.7-1.4c1.4-0.7,2.6-1.4,3.5-2.2c0.9-0.8,1.7-1.5,2.2-2.3c0.3-0.4,0.6-0.6,1-0.7
				C159.8,396.8,160.1,396.8,160.3,396.9z M174.1,392.8c-0.1-0.1-0.2-0.1-0.3-0.1c-1.1,0.3-2.2,0.7-3.4,1c-1.2,0.3-2.4,0.7-3.7,1
				c-0.1,0-0.2,0.1-0.2,0.3l1.1,6.4c0.1,0.4,0,0.7-0.2,1c-0.2,0.3-0.5,0.5-0.9,0.6c-0.4,0.1-0.7,0-1-0.2c-0.3-0.2-0.5-0.5-0.5-0.9
				l-1.1-6.2c0-0.1-0.1-0.2-0.3-0.2c-1.7,0.4-3.4,0.8-5.1,1.2c-1.6,0.4-3.2,0.7-4.6,1c-0.3,0.1-0.6,0-0.9-0.2
				c-0.3-0.2-0.4-0.4-0.5-0.8c-0.1-0.4,0-0.7,0.2-1c0.2-0.3,0.4-0.5,0.8-0.6c1.2-0.5,2.4-1.1,3.8-1.8c0.1-0.1,0.1-0.2,0-0.3
				c-0.4-0.3-0.8-0.5-1.2-0.8c-0.4-0.3-0.8-0.5-1.2-0.7c-0.3-0.2-0.5-0.4-0.6-0.8c-0.1-0.4,0.1-0.8,0.5-1.1c0.9-0.5,1.8-1.1,2.7-1.8
				c0.9-0.7,1.6-1.4,2.3-2.2c0.3-0.3,0.7-0.6,1.1-0.6c0.3,0,0.6,0,0.9,0.1c0.3,0.2,0.6,0.4,0.6,0.8c0.1,0.3,0,0.5-0.2,0.8
				c-0.5,0.7-1.1,1.3-1.8,1.9c-0.6,0.6-1.3,1.1-2,1.6c-0.2,0.1-0.2,0.2,0,0.3c0.5,0.3,0.9,0.6,1.3,1c0.1,0.1,0.2,0.1,0.3,0
				c1.3-0.9,2.5-1.8,3.6-2.8c1.1-1,2.1-2,2.8-3.1c0.3-0.4,0.6-0.6,1.1-0.7c0.3-0.1,0.6,0,0.9,0.1c0.4,0.2,0.6,0.5,0.7,0.9
				c0.1,0.3,0,0.6-0.2,0.8c-0.5,0.8-1.2,1.5-2,2.4c-0.8,0.8-1.6,1.6-2.4,2.2c-0.8,0.7-1.4,1.2-2,1.5c-0.2,0.2-0.2,0.2,0.1,0.2
				c1.5-0.4,3-0.8,4.5-1.2c1.5-0.4,2.9-0.8,4.2-1.1c0.2-0.1,0.2-0.2,0-0.3c-0.1-0.1-0.2-0.1-0.3-0.2c-0.1-0.1-0.2-0.1-0.3-0.2
				c-0.4-0.2-0.6-0.5-0.7-0.9c-0.1-0.4,0-0.7,0.3-1c0.3-0.3,0.6-0.5,1-0.6c0.5-0.1,0.9,0,1.2,0.3c0.7,0.6,1.6,1.3,2.4,2.1
				c0.9,0.8,1.6,1.6,2.2,2.3c0.1,0.1,0.2,0.3,0.2,0.5c0.1,0.5-0.1,0.9-0.5,1.3c-0.1,0.1-0.3,0.2-0.5,0.2c-0.5,0.1-1-0.1-1.4-0.5
				c-0.1-0.2-0.3-0.4-0.5-0.6C174.5,393.2,174.3,393,174.1,392.8z M177.9,379.3c0.2,0.2,0.3,0.4,0.3,0.7c0.1,0.5,0,0.9-0.4,1.2
				c-0.6,0.5-1.2,0.9-1.9,1.2c-0.7,0.3-1.6,0.6-2.6,0.8l-3.4,0.6c-1.3,0.2-2.3,0.1-3.3-0.4c-0.9-0.5-1.5-1.3-1.7-2.5l-1.4-7.8
				c-0.1-0.3,0-0.6,0.2-0.9c0.2-0.3,0.5-0.5,0.8-0.5c0.3-0.1,0.6,0,0.9,0.2c0.3,0.2,0.5,0.5,0.5,0.8l0.6,3.5c0,0.2,0.1,0.2,0.2,0.2
				c1.1-0.4,2.3-0.9,3.6-1.5c1.2-0.6,2.4-1.3,3.4-2c0.1-0.1,0.3-0.2,0.4-0.2c0.3-0.1,0.6,0,0.8,0.2c0.3,0.2,0.4,0.4,0.5,0.8
				c0,0.3,0,0.5-0.1,0.8c-0.1,0.2-0.3,0.4-0.5,0.6c-1.1,0.7-2.4,1.5-3.8,2.2c-1.4,0.7-2.7,1.3-3.9,1.7c-0.1,0.1-0.2,0.1-0.2,0.3
				l0.2,1.3c0.1,0.4,0.2,0.7,0.4,0.8c0.2,0.2,0.6,0.2,1.1,0.2c0.5,0,1.3-0.1,2.2-0.3c1-0.2,1.9-0.4,2.5-0.5c0.6-0.2,1.1-0.3,1.5-0.6
				c0.4-0.2,0.8-0.5,1.1-0.8c0.2-0.2,0.4-0.3,0.6-0.3C177.3,378.9,177.7,379,177.9,379.3z M179.3,397.4c0.3,0,0.6,0.2,0.8,0.4
				c0.2,0.2,0.4,0.5,0.4,0.7c0.1,0.3,0,0.6-0.2,0.9c-0.2,0.3-0.4,0.4-0.8,0.5c-0.1,0-0.2,0-0.4,0c-1.7-0.2-3.3-0.6-4.9-1.1
				c-1.6-0.6-2.9-1.3-4.1-2.2c-0.2-0.2-0.4-0.4-0.4-0.7c-0.1-0.4,0-0.7,0.3-1c0.2-0.2,0.5-0.4,0.8-0.4c0.3-0.1,0.7,0,1,0.2
				c1.2,0.7,2.4,1.3,3.7,1.8S178,397.3,179.3,397.4z"/>
			<path class="st2" d="M183.5,372.4c-0.3,0-0.6-0.2-0.8-0.4c-0.2-0.2-0.4-0.4-0.4-0.7c-0.1-0.4,0-0.7,0.2-1
				c0.2-0.3,0.5-0.5,0.8-0.5c0.1,0,0.1,0,0.2,0c0.1,0,0.1,0,0.2,0c1.7,0.2,3.3,0.5,5,1c0.6,0.2,1,0.7,1.2,1.4c0,0.1,0,0.2,0.1,0.3
				c0,0.1,0,0.2,0,0.3c-0.1,0.5-0.4,0.8-0.9,0.9c-0.2,0-0.4,0-0.6-0.1c-0.7-0.3-1.5-0.5-2.3-0.7
				C185.2,372.6,184.4,372.5,183.5,372.4z M189.3,381.1c-0.7-0.3-1.5-0.6-2.3-0.9c-0.9-0.3-1.7-0.5-2.6-0.7
				c-0.7-0.2-1.1-0.6-1.2-1.1c-0.1-0.4,0-0.8,0.2-1c0.2-0.3,0.5-0.5,0.8-0.5c0.1,0,0.2,0,0.4,0c0.8,0.2,1.7,0.4,2.6,0.7
				c0.9,0.3,1.8,0.5,2.5,0.8c0.6,0.2,1,0.7,1.1,1.4c0,0.2,0,0.4,0,0.6c-0.1,0.5-0.4,0.8-0.9,0.9
				C189.7,381.2,189.5,381.2,189.3,381.1z M190.8,384.2c0.4-0.1,0.8,0,1.1,0.2c0.3,0.2,0.5,0.5,0.5,0.8c0,0.1,0,0.3,0,0.3
				c-0.1,2.1-0.3,4.2-0.7,6.3c-0.4,2.2-0.9,4.2-1.6,6.1c-0.2,0.6-0.7,1-1.4,1.2c-0.1,0-0.2,0-0.3,0c-0.1,0-0.2,0-0.3,0
				c-0.5-0.1-0.9-0.3-1-0.9c0-0.2,0-0.4,0-0.6c0.6-1.8,1.1-3.7,1.6-5.9c0.4-2.2,0.7-4.3,0.8-6.4c0-0.3,0.1-0.6,0.3-0.8
				C190.2,384.4,190.5,384.3,190.8,384.2z M216,391.4c0.3,0,0.6,0.2,0.8,0.4c0.2,0.2,0.4,0.5,0.4,0.8c0,0.1,0,0.2,0,0.3
				c-0.1,0.7-0.4,1.1-1.1,1.3c0,0-0.1,0-0.2,0c-0.1,0-0.1,0-0.2,0c-1.6-0.2-3.2-0.5-4.7-1c-1.6-0.5-3.1-1.1-4.5-1.9
				c-0.1-0.1-0.2,0-0.3,0.1c-1,1.2-2.2,2.3-3.5,3.3c-1.3,1-2.5,1.8-3.8,2.4c-0.1,0-0.2,0.1-0.3,0.1c-0.3,0.1-0.6,0-0.9-0.2
				c-0.3-0.2-0.5-0.5-0.5-0.9c-0.1-0.6,0.1-1.1,0.7-1.5c2.2-1.2,4.2-2.8,5.9-4.7c0.1-0.1,0.1-0.2,0-0.3c-1-0.7-2-1.6-2.9-2.5
				c-0.9-0.9-1.7-1.9-2.4-2.9c-0.1-0.1-0.2-0.3-0.2-0.4c-0.1-0.3,0-0.6,0.2-0.9c0.2-0.3,0.5-0.5,0.9-0.5c0.3-0.1,0.6,0,0.9,0.1
				c0.3,0.1,0.5,0.3,0.7,0.6c1.1,1.8,2.6,3.3,4.4,4.6c0.1,0.1,0.2,0.1,0.3-0.1c0.8-1.1,1.4-2.3,2-3.5c0.6-1.2,1-2.4,1.2-3.7
				c0.1-0.2,0-0.3-0.2-0.2l-12.3,2.2c-0.1,0-0.2,0.1-0.2,0.2c0.4,2.8,0.6,5.3,0.5,7.5c0,2.2-0.3,4.3-0.7,6.4
				c-0.1,0.7-0.6,1.1-1.3,1.2c-0.2,0-0.3,0-0.4,0c-0.3,0-0.5-0.1-0.7-0.3c-0.2-0.2-0.3-0.4-0.4-0.6c0-0.1,0-0.3,0-0.4
				c0.3-1.4,0.5-2.9,0.7-4.4c0.1-1.5,0.1-3.1,0-4.8c-0.1-1.7-0.3-3.6-0.6-5.7c-0.3-2.1-0.7-4.5-1.2-7.2l-0.2-0.9
				c-0.1-0.6,0-1.1,0.4-1.6s0.8-0.8,1.4-0.9l6.2-1.1c0.1,0,0.2-0.1,0.2-0.2l-0.5-2.8c-0.1-0.4,0-0.7,0.2-1c0.2-0.3,0.5-0.5,0.9-0.6
				c0.4-0.1,0.7,0,1,0.2c0.3,0.2,0.5,0.5,0.6,0.9l0.5,2.8c0,0.1,0.1,0.2,0.3,0.2l6.5-1.1c0.5-0.1,1,0,1.5,0.4
				c0.5,0.4,0.7,0.8,0.6,1.4c0,0.6,0,1.1,0,1.7c0,0.6-0.1,1.1-0.1,1.7c0,0.3-0.2,0.6-0.4,0.8c-0.2,0.2-0.5,0.4-0.8,0.4
				c-0.4,0.1-0.7,0-1-0.2c-0.3-0.2-0.5-0.5-0.5-0.8c0-0.1,0-0.1,0-0.2c0-0.1,0-0.1,0-0.2c0-0.3,0.1-0.7,0.1-1c0-0.3,0.1-0.6,0.1-0.9
				c0-0.2-0.1-0.2-0.3-0.2l-5.2,0.9c-0.1,0-0.2,0.1-0.2,0.2l1,5.9c0,0.1,0.1,0.2,0.3,0.2l5.1-0.9c0.5-0.1,0.9,0,1.3,0.3
				c0.4,0.3,0.6,0.6,0.7,1c0,0.1,0,0.3,0,0.5c-0.2,1.8-0.7,3.6-1.4,5.2c-0.7,1.7-1.5,3.2-2.5,4.6c0,0.1,0,0.2,0,0.3
				c1.2,0.6,2.4,1.1,3.7,1.4C213.1,391,214.5,391.3,216,391.4z M195.1,373.4c-0.1,0-0.2,0.1-0.2,0.2l0,0.2c0.2,1,0.4,2,0.5,3
				c0.2,0.9,0.3,1.9,0.4,2.7c0,0.1,0.1,0.2,0.3,0.2l5.6-1c0.1,0,0.2-0.1,0.2-0.2l-1-5.9c0-0.1-0.1-0.2-0.3-0.2L195.1,373.4z"/>
			<path class="st2" d="M220.8,363.1l9.6-1.7c0.6-0.1,1.1,0,1.6,0.4c0.5,0.3,0.8,0.8,0.9,1.4l3.3,18.8c0.1,0.6,0,1.1-0.4,1.6
				c-0.3,0.5-0.8,0.8-1.4,0.9l-9.6,1.7c-0.6,0.1-1.1,0-1.6-0.4c-0.5-0.3-0.8-0.8-0.9-1.4l-3.3-18.8c-0.1-0.6,0-1.1,0.4-1.6
				C219.8,363.5,220.2,363.2,220.8,363.1z M225.7,371.6c0.1,0,0.2-0.1,0.2-0.2l-1.1-6.1c0-0.1-0.1-0.2-0.3-0.2l-2.7,0.5
				c-0.1,0-0.2,0.1-0.2,0.3l1.1,6.1c0,0.1,0.1,0.2,0.2,0.2L225.7,371.6z M226.4,374.3c0-0.1-0.1-0.2-0.3-0.2l-2.7,0.5
				c-0.1,0-0.2,0.1-0.2,0.3l1.5,8.5c0,0.1,0.1,0.2,0.2,0.2l2.7-0.5c0.1,0,0.2-0.1,0.2-0.2L226.4,374.3z M228.4,370.9
				c0,0.1,0.1,0.2,0.2,0.2l2.8-0.5c0.1,0,0.2-0.1,0.2-0.2l-1.1-6.1c0-0.1-0.1-0.2-0.3-0.2l-2.8,0.5c-0.1,0-0.2,0.1-0.2,0.3
				L228.4,370.9z M229.1,373.6c-0.1,0-0.2,0.1-0.2,0.3l1.5,8.5c0,0.1,0.1,0.2,0.2,0.2l2.8-0.5c0.1,0,0.2-0.1,0.2-0.2l-1.5-8.5
				c0-0.1-0.1-0.2-0.3-0.2L229.1,373.6z M235.2,364.8l11.5-2c0.4-0.1,0.7,0,1,0.2c0.3,0.2,0.5,0.5,0.6,0.9c0.1,0.4,0,0.7-0.2,1
				c-0.2,0.3-0.5,0.5-0.9,0.6l-3.5,0.6c-0.1,0-0.2,0.1-0.2,0.2l3,16.8c0.3,1.7,0.1,3.2-0.7,4.3c-0.8,1.1-2.1,1.8-3.9,2.1
				c-0.2,0-0.3,0.1-0.5,0.1c-0.2,0-0.4,0-0.6,0c-0.4,0-0.7-0.1-1-0.3c-0.3-0.3-0.5-0.6-0.6-0.9c-0.1-0.4,0-0.7,0.3-1
				c0.3-0.3,0.6-0.5,1-0.5c0.5,0,1-0.1,1.4-0.1c0.8-0.1,1.3-0.4,1.7-0.9c0.3-0.5,0.4-1.2,0.2-2.3l-3-16.8c0-0.1-0.1-0.2-0.3-0.2
				l-4.9,0.9c-0.4,0.1-0.7,0-1-0.2c-0.3-0.2-0.5-0.5-0.6-0.9c-0.1-0.4,0-0.7,0.2-1C234.6,365.1,234.9,364.9,235.2,364.8z"/>
		</g>
		<g class="st1">
			<path class="st3" d="M240.9,419c-0.2-0.2-0.4-0.5-0.4-0.8c0-0.3,0.1-0.6,0.4-0.8l6-6c0.1-0.1,0.1-0.3,0-0.4l-6-6
				c-0.2-0.3-0.4-0.6-0.4-0.8c0-0.3,0.1-0.6,0.4-0.8c0.2-0.2,0.5-0.4,0.8-0.4c0.3,0,0.6,0.1,0.8,0.4l6,6c0.1,0.1,0.3,0.1,0.4,0l6-6
				c0.2-0.2,0.5-0.4,0.8-0.4c0.3,0,0.6,0.1,0.8,0.4c0.2,0.2,0.4,0.5,0.4,0.8c0,0.3-0.1,0.6-0.4,0.8l-6,6c-0.1,0.1-0.1,0.3,0,0.4l6,6
				c0.2,0.2,0.4,0.5,0.4,0.8c0,0.3-0.1,0.6-0.4,0.8c-0.2,0.2-0.5,0.4-0.8,0.4s-0.6-0.1-0.8-0.4l-6-6c-0.1-0.1-0.3-0.1-0.4,0l-6,6
				c-0.2,0.2-0.5,0.4-0.8,0.4C241.5,419.4,241.2,419.3,240.9,419z"/>
		</g>
		<g class="st1">
			<path class="st3" d="M365.9,481c-0.2-0.2-0.4-0.5-0.4-0.8c0-0.3,0.1-0.6,0.4-0.8l6-6c0.1-0.1,0.1-0.3,0-0.4l-6-6
				c-0.2-0.3-0.4-0.6-0.4-0.8c0-0.3,0.1-0.6,0.4-0.8c0.2-0.2,0.5-0.4,0.8-0.4c0.3,0,0.6,0.1,0.8,0.4l6,6c0.1,0.1,0.3,0.1,0.4,0l6-6
				c0.2-0.2,0.5-0.4,0.8-0.4c0.3,0,0.6,0.1,0.8,0.4c0.2,0.2,0.4,0.5,0.4,0.8c0,0.3-0.1,0.6-0.4,0.8l-6,6c-0.1,0.1-0.1,0.3,0,0.4l6,6
				c0.2,0.2,0.4,0.5,0.4,0.8c0,0.3-0.1,0.6-0.4,0.8c-0.2,0.2-0.5,0.4-0.8,0.4c-0.3,0-0.6-0.1-0.8-0.4l-6-6c-0.1-0.1-0.3-0.1-0.4,0
				l-6,6c-0.2,0.2-0.5,0.4-0.8,0.4C366.5,481.4,366.2,481.3,365.9,481z"/>
		</g>
		<g class="st1">
			<path class="st2" d="M243.4,454.3c0.1,0.4,0,0.7-0.2,1c-0.2,0.3-0.5,0.5-0.8,0.6c-0.7,0.1-1.5,0.3-2.4,0.5
				c-0.9,0.2-1.9,0.4-2.9,0.6c-0.2,0-0.3,0.2-0.3,0.4c0.3,1.9,0.4,3.6,0.5,5.3c0.1,1.7-0.1,3.3-0.4,4.9c-0.3,1.5-1,3-1.9,4.5
				c-0.9,1.4-2.2,2.8-3.8,4.1c-0.1,0.1-0.3,0.2-0.5,0.2c-0.6,0.1-1.1-0.1-1.4-0.6c-0.1-0.1-0.2-0.3-0.2-0.5c-0.1-0.6,0.1-1,0.6-1.4
				c1.8-1.5,3.1-3,3.9-4.6c0.8-1.6,1.2-3.4,1.2-5.2c0-1.9-0.1-3.9-0.5-6.2c0-0.2-0.2-0.3-0.4-0.3l-7.4,1.3c-0.2,0-0.3,0.2-0.3,0.4
				c0.3,1.6,0.6,3,0.8,4.2c0.3,1.2,0.6,2.3,1.1,3.3c0,0,0.1,0.1,0.1,0.2c0,0.1,0,0.1,0,0.2c0.1,0.4,0,0.7-0.2,1
				c-0.2,0.3-0.5,0.5-0.9,0.6c-0.3,0-0.6,0-0.8-0.1c-0.3-0.1-0.5-0.3-0.6-0.6c-0.5-0.9-0.9-2.1-1.2-3.5c-0.4-1.4-0.7-3-1-4.6
				c0-0.2-0.2-0.3-0.4-0.3c-1,0.2-1.9,0.4-2.8,0.5c-0.9,0.2-1.7,0.3-2.4,0.5c-0.4,0.1-0.7,0-1-0.2c-0.3-0.2-0.5-0.5-0.6-0.9
				c-0.1-0.4,0-0.7,0.2-1c0.2-0.3,0.5-0.5,0.8-0.6c0.8-0.2,1.6-0.3,2.5-0.5c0.9-0.2,1.8-0.3,2.8-0.5c0.2,0,0.3-0.2,0.3-0.4l-0.3-1.5
				c-0.1-0.7-0.3-1.4-0.4-2c-0.1-0.7-0.3-1.3-0.4-1.9c-0.1-0.4,0-0.7,0.2-1c0.2-0.3,0.5-0.5,0.9-0.5c0.4-0.1,0.7,0,1,0.2
				c0.3,0.2,0.5,0.5,0.6,0.9c0.4,2,0.8,3.8,1.1,5.4c0,0.2,0.2,0.3,0.4,0.3l7.4-1.3c0.2,0,0.3-0.2,0.3-0.4l-0.5-3
				c-0.1-0.5-0.2-1-0.3-1.6c-0.1-0.5-0.2-1.1-0.2-1.6c-0.1-0.4,0-0.7,0.2-1c0.2-0.3,0.5-0.5,0.9-0.6c0.4-0.1,0.7,0,1,0.2
				c0.3,0.2,0.5,0.5,0.5,0.9c0.2,1.1,0.3,2.1,0.5,3.1c0.2,1,0.3,2,0.5,3c0,0.2,0.2,0.3,0.4,0.3c1-0.2,2-0.4,2.8-0.6
				c0.9-0.2,1.7-0.3,2.3-0.5c0.4-0.1,0.8,0,1.1,0.2C243.1,453.6,243.3,453.9,243.4,454.3z"/>
			<path class="st2" d="M270.7,440.9c0.6,0.2,1,0.5,1.1,1.1c0,0.2,0,0.4,0,0.6c-0.3,1.3-0.8,2.6-1.4,4c-0.6,1.4-1.3,2.8-2.2,4.2
				c-0.1,0.1-0.1,0.3,0,0.4c0.4,0.7,0.8,1.5,1.1,2.6c0.3,1,0.6,2.2,0.8,3.6c0.2,1.3,0.5,2.9,0.7,4.5c0.2,1.7,0.4,3.5,0.6,5.6
				c0,0.4-0.1,0.8-0.3,1.1c-0.2,0.3-0.6,0.5-1,0.6c-0.4,0-0.7-0.1-1-0.3c-0.3-0.2-0.5-0.6-0.5-0.9c-0.2-2.1-0.4-4.1-0.5-5.9
				c-0.2-1.8-0.4-3.3-0.6-4.7c-0.1-0.6-0.2-1.2-0.4-1.8c-0.1-0.6-0.3-1.1-0.5-1.5c-0.1-0.3-0.2-0.3-0.4,0c-1,1.3-2.2,2.6-3.5,3.9
				c-1.3,1.3-2.7,2.6-4.3,3.8c-0.2,0.1-0.4,0.2-0.6,0.2c-0.6,0.1-1.1-0.1-1.4-0.6c-0.1-0.2-0.2-0.4-0.2-0.6
				c-0.1-0.6,0.1-1.1,0.6-1.5c3.3-2.6,5.9-5.3,8-8.2c2.1-2.9,3.5-6,4.4-9.1c0.1-0.3,0.2-0.5,0.4-0.7c0.2-0.2,0.5-0.3,0.7-0.3
				C270.3,440.8,270.5,440.8,270.7,440.9z"/>
			<path class="st2" d="M300.6,439.8c0,0.1,0,0.1,0,0.2c0,0.1,0.1,0.2,0.3,0.2l4.6-0.8c1.8-0.3,3.1-0.1,3.9,0.5
				c0.9,0.7,1.4,1.6,1.6,2.8c0.2,1.2,0.1,2.4-0.2,3.8c-1,3.9-2.5,7.3-4.6,10.1c-2.1,2.8-4.5,5.2-7.4,7.3c-0.2,0.1-0.3,0.2-0.5,0.2
				c-0.6,0.1-1.1-0.1-1.4-0.6c-0.1-0.2-0.2-0.3-0.2-0.5c-0.1-0.6,0.1-1.1,0.6-1.5c2.3-1.7,4.2-3.4,5.7-5.2c1.5-1.8,2.6-3.6,3.4-5.4
				c0.8-1.8,1.4-3.5,1.7-5c0.2-1.1,0.3-2,0.2-2.6c-0.2-1-0.9-1.4-2.3-1.1l-6.3,1.1c-0.1,0-0.3,0.1-0.4,0.3c-0.7,1.9-1.6,3.7-2.5,5.4
				c-1,1.8-1.9,3.3-2.9,4.5c-0.2,0.3-0.5,0.4-0.8,0.5c-0.5,0.1-0.9,0-1.2-0.3c-0.2-0.2-0.4-0.5-0.4-0.8c-0.1-0.5,0-0.9,0.3-1.2
				c0.9-1.1,1.7-2.3,2.5-3.7c0.8-1.4,1.4-2.7,2-4.2c0.6-1.4,1.1-2.8,1.6-4.2c0.4-1.3,0.7-2.6,0.9-3.6c0-0.3,0.2-0.5,0.4-0.7
				c0.2-0.2,0.4-0.3,0.7-0.4c0.2,0,0.3,0,0.5,0c0.7,0.2,1,0.5,1.2,1.2c0,0.2,0,0.3,0,0.6c-0.1,0.5-0.2,1-0.4,1.6
				C300.9,438.6,300.8,439.2,300.6,439.8z"/>
			<path class="st2" d="M334.6,447.6c-0.2,0.3-0.5,0.4-0.9,0.5c-0.4,0.1-0.8,0-1.2-0.3c-0.9-0.9-1.6-1.9-2.2-3.1
				c-0.6-1.2-1.1-2.5-1.5-3.9c-0.4-1.4-0.7-2.7-0.9-4.1c-0.2-1.3-0.4-2.4-0.5-3.5c0-0.4,0-0.7,0.3-1c0.2-0.3,0.5-0.5,0.9-0.6
				c0.4-0.1,0.8,0,1.1,0.3c0.3,0.2,0.5,0.6,0.5,1c0.1,0.6,0.1,1.2,0.2,1.8c0.1,0.6,0.2,1.3,0.3,1.9c0.3,1.6,0.7,3.2,1.3,4.8
				c0.6,1.6,1.4,3,2.5,4.1c0.2,0.2,0.3,0.5,0.4,0.8C335,446.9,334.9,447.3,334.6,447.6z M336.3,457.7c-0.1,0.1-0.3,0.2-0.5,0.2
				c-0.3,0.1-0.7,0-1-0.2c-0.3-0.2-0.5-0.5-0.6-0.9c-0.1-0.7,0.1-1.2,0.7-1.6c2.3-1.6,3.9-3.2,5-5c1.1-1.7,1.7-3.5,1.9-5.4
				c0.2-1.9,0.1-3.8-0.2-5.8c-0.3-1.5-0.7-3.1-1.1-4.7c-0.5-1.6-1-3.2-1.5-4.8c-0.1-0.4-0.1-0.8,0.1-1.1c0.2-0.3,0.5-0.5,0.9-0.6
				c0.3-0.1,0.6,0,0.9,0.1c0.3,0.1,0.5,0.4,0.6,0.7c0.5,1.1,1,2.5,1.5,4.1c0.5,1.7,1,3.4,1.3,5.2c0.3,1.5,0.4,2.9,0.5,4.4
				c0.1,1.4,0,2.8-0.3,3.9c-0.5,2.5-1.5,4.7-2.9,6.7C340.1,454.8,338.4,456.4,336.3,457.7z"/>
			<path class="st2" d="M369.5,434.6c-0.2,0.3-0.5,0.5-0.9,0.6c-0.4,0.1-0.8,0-1.1-0.2c-0.9-0.6-2-1.1-3.1-1.3
				c-1.1-0.3-2.3-0.4-3.6-0.4c-0.3,0-0.7-0.1-1-0.3c-0.3-0.2-0.5-0.5-0.5-0.9c-0.1-0.4,0-0.9,0.3-1.2c0.3-0.4,0.6-0.6,1.1-0.6
				c1.6-0.1,3.1,0.1,4.7,0.6c1.5,0.4,2.8,1,3.8,1.6c0.4,0.2,0.6,0.6,0.7,1C369.8,433.8,369.8,434.2,369.5,434.6z M364.3,450.7
				c-0.4,0.1-0.8,0.1-1.1-0.1c-0.4-0.2-0.6-0.5-0.7-0.9c-0.1-0.4,0-0.7,0.2-1c0.2-0.3,0.4-0.6,0.8-0.7c1.5-0.7,3.1-1.5,4.8-2.6
				c1.7-1.1,3.4-2.4,5.1-3.8c1.7-1.5,3.3-3.2,4.8-5.1c1.5-1.9,2.9-4,4-6.3c0.2-0.4,0.6-0.7,1-0.8c0.4-0.1,0.7,0,0.9,0.1
				c0.4,0.2,0.7,0.6,0.8,1.1c0.1,0.4,0,0.7-0.1,1c-1,1.9-2.2,3.9-3.7,5.8c-1.5,1.9-3.1,3.7-4.9,5.4c-1.8,1.7-3.7,3.2-5.7,4.6
				C368.5,448.7,366.4,449.9,364.3,450.7z"/>
			<path class="st2" d="M406.4,421.1c0,0.1,0,0.1,0,0.2c0,0.1,0.1,0.2,0.3,0.2l4.6-0.8c1.7-0.3,3.1-0.1,3.9,0.5
				c0.9,0.7,1.4,1.6,1.6,2.8c0.2,1.2,0.1,2.4-0.2,3.8c-1,3.9-2.5,7.3-4.6,10.1c-2.1,2.8-4.5,5.2-7.4,7.3c-0.2,0.1-0.3,0.2-0.5,0.2
				c-0.6,0.1-1.1-0.1-1.4-0.6c-0.1-0.2-0.2-0.4-0.2-0.5c-0.1-0.6,0.1-1.1,0.6-1.5c2.3-1.7,4.2-3.4,5.7-5.2c1.5-1.8,2.6-3.6,3.4-5.4
				c0.8-1.8,1.4-3.5,1.7-5c0.3-1.1,0.3-2,0.2-2.6c-0.2-1-1-1.4-2.3-1.1l-6.3,1.1c-0.1,0-0.3,0.1-0.4,0.3c-0.7,1.9-1.6,3.7-2.5,5.4
				c-1,1.8-1.9,3.3-3,4.5c-0.2,0.3-0.5,0.4-0.8,0.5c-0.4,0.1-0.8,0-1.2-0.3c-0.3-0.2-0.4-0.5-0.5-0.8c-0.1-0.4,0-0.8,0.3-1.2
				c0.9-1.1,1.7-2.3,2.4-3.7c0.7-1.4,1.4-2.7,2-4.2c0.6-1.4,1.1-2.8,1.6-4.2c0.4-1.3,0.7-2.6,0.9-3.6c0.1-0.6,0.5-1,1.1-1.1
				c0.2,0,0.3,0,0.5,0c0.7,0.2,1,0.6,1.2,1.2c0,0.1,0,0.3,0,0.5c-0.1,0.5-0.2,1-0.4,1.6C406.8,419.9,406.6,420.5,406.4,421.1z
				 M415.4,416.3c0.6,0.4,1.3,0.9,1.9,1.5c0.7,0.6,1.3,1.2,1.8,1.7c0.1,0.1,0.2,0.3,0.2,0.5c0.1,0.3,0,0.6-0.3,0.9
				c-0.1,0.1-0.3,0.2-0.4,0.2c-0.4,0.1-0.6,0-0.9-0.2c-0.5-0.5-1-1.1-1.7-1.6c-0.6-0.6-1.2-1-1.8-1.4c-0.2-0.2-0.4-0.4-0.4-0.6
				c0-0.2,0-0.5,0.1-0.6c0.2-0.2,0.4-0.4,0.7-0.4C414.9,416.1,415.2,416.2,415.4,416.3z M421.5,417.6c0.1,0.1,0.2,0.3,0.2,0.5
				c0.1,0.3,0,0.6-0.3,0.8c-0.1,0.1-0.3,0.2-0.5,0.2c-0.3,0.1-0.6,0-0.8-0.3c-0.5-0.5-1-1-1.6-1.6c-0.6-0.6-1.2-1-1.7-1.4
				c-0.2-0.2-0.4-0.4-0.4-0.6c0-0.2,0-0.4,0.1-0.6c0.2-0.2,0.4-0.4,0.7-0.4c0.2,0,0.5,0,0.6,0.1c0.6,0.4,1.3,0.9,1.9,1.5
				C420.4,416.5,421,417,421.5,417.6z"/>
		</g>
		<g class="st1">
			<path class="st2" d="M360.2,520.9c-0.2,0.3-0.5,0.4-0.9,0.5c-0.4,0.1-0.8,0-1.2-0.3c-0.9-0.9-1.6-1.9-2.2-3.1
				c-0.6-1.2-1.1-2.5-1.5-3.9c-0.4-1.4-0.7-2.7-0.9-4.1c-0.2-1.3-0.4-2.4-0.5-3.5c0-0.4,0-0.7,0.3-1c0.2-0.3,0.5-0.5,0.9-0.6
				c0.4-0.1,0.8,0,1.1,0.3c0.3,0.2,0.5,0.6,0.5,1c0.1,0.6,0.1,1.2,0.2,1.8c0.1,0.6,0.2,1.3,0.3,1.9c0.3,1.6,0.7,3.2,1.3,4.8
				c0.6,1.6,1.4,3,2.5,4.1c0.2,0.2,0.3,0.5,0.4,0.8C360.6,520.2,360.5,520.6,360.2,520.9z M361.9,531c-0.1,0.1-0.3,0.2-0.5,0.2
				c-0.3,0.1-0.7,0-1-0.2c-0.3-0.2-0.5-0.5-0.6-0.9c-0.1-0.7,0.1-1.2,0.7-1.6c2.3-1.6,3.9-3.3,5-5c1.1-1.7,1.7-3.5,1.9-5.4
				c0.2-1.9,0.1-3.8-0.2-5.8c-0.3-1.5-0.7-3.1-1.1-4.7c-0.5-1.6-1-3.2-1.5-4.8c-0.1-0.4-0.1-0.8,0.1-1.1c0.2-0.3,0.5-0.5,0.9-0.6
				c0.3-0.1,0.6,0,0.9,0.1c0.3,0.1,0.5,0.4,0.6,0.7c0.5,1.1,1,2.5,1.5,4.1c0.5,1.7,1,3.4,1.3,5.2c0.3,1.5,0.4,2.9,0.5,4.4
				c0.1,1.4,0,2.8-0.3,3.9c-0.5,2.5-1.5,4.7-2.9,6.6C365.7,528.1,364,529.7,361.9,531z"/>
			<path class="st2" d="M395.3,524.2c-0.2,0.1-0.3,0.2-0.5,0.2c-0.6,0.1-1.1-0.1-1.5-0.7c-0.1-0.2-0.2-0.3-0.2-0.5
				c-0.1-0.6,0.1-1.1,0.7-1.5c3.5-2.3,6.2-4.8,8.1-7.5c1.9-2.7,3-5.9,3.4-9.5c0.1-0.5,0.1-1,0.1-1.4c0-0.4,0-0.8-0.1-1.1
				c-0.1-0.7-0.4-1.2-0.9-1.5c-0.5-0.3-1.3-0.4-2.3-0.3c-0.5,0-1.1,0.1-1.6,0.2c-0.5,0.1-1.1,0.1-1.7,0.2c-1.8,0.3-3.7,0.8-5.6,1.4
				c-1.9,0.6-3.9,1.3-6,2.2c-0.4,0.1-0.7,0.1-1.1-0.1c-0.4-0.2-0.6-0.5-0.7-0.9c-0.1-0.4,0-0.8,0.1-1.1c0.2-0.3,0.4-0.6,0.8-0.7
				c1.2-0.5,2.4-0.9,3.9-1.4c1.4-0.4,2.8-0.9,4.3-1.2c1.5-0.4,2.9-0.7,4.2-0.9c0.6-0.1,1.2-0.2,1.8-0.3c0.6-0.1,1.1-0.1,1.6-0.2
				c1.4-0.1,2.5,0.1,3.3,0.4c0.8,0.4,1.4,0.9,1.9,1.5c0.4,0.6,0.7,1.3,0.8,2.1c0.1,0.5,0.1,1.1,0.1,1.7c0,0.6-0.1,1.1-0.1,1.6
				c-0.5,4-1.8,7.5-3.9,10.6C402.2,518.9,399.2,521.7,395.3,524.2z"/>
			<path class="st2" d="M437.4,513.2c-2.3,2-4.3,3.2-6.2,3.6c-1.5,0.3-2.8,0-3.8-0.9c-1-0.9-1.7-2.3-2-4.2l-2.9-16.5
				c-0.1-0.4,0-0.8,0.2-1.1c0.2-0.3,0.5-0.5,0.9-0.6c0.4-0.1,0.8,0,1.1,0.2c0.3,0.2,0.5,0.5,0.6,0.9l2.8,16.1c0.2,1.1,0.5,1.9,1,2.4
				c0.5,0.5,1.1,0.7,1.9,0.6c0.6-0.1,1.2-0.4,2-0.8c0.8-0.5,1.7-1.1,2.7-2c1.2-1.1,2.6-2.4,4-4c1.4-1.6,2.8-3.4,4.3-5.5
				c0.2-0.3,0.5-0.5,0.9-0.6c0.4-0.1,0.8,0,1.1,0.3c0.3,0.3,0.5,0.6,0.6,1c0.1,0.4,0,0.8-0.3,1.1c-1.5,2.1-3,3.9-4.5,5.6
				C440.1,510.6,438.7,512,437.4,513.2z"/>
			<path class="st2" d="M463.7,501.8c-0.1,0.1-0.3,0.2-0.6,0.2c-0.2,0-0.4,0-0.6-0.1c-0.2-0.1-0.4-0.2-0.5-0.4
				c-0.6-0.8-1.1-1.7-1.7-2.7c-0.6-1-1-1.9-1.4-2.8c-0.1-0.4-0.1-0.7,0.1-1.1c0.2-0.3,0.5-0.5,0.9-0.6c0.6-0.1,1.1,0.1,1.4,0.8
				c0.3,0.7,0.7,1.6,1.2,2.4c0.5,0.9,1,1.7,1.4,2.4c0.1,0.1,0.1,0.2,0.2,0.3c0,0.1,0.1,0.2,0.1,0.3
				C464.2,501.1,464.1,501.5,463.7,501.8z M468,499.3c-0.5,0.1-0.9-0.1-1.2-0.5c-0.4-0.8-0.9-1.6-1.3-2.6c-0.4-1-0.8-1.9-1.1-2.8
				c-0.1-0.3-0.1-0.7,0.1-1c0.2-0.3,0.5-0.5,0.8-0.6c0.3,0,0.6,0,0.8,0.1c0.3,0.1,0.4,0.4,0.5,0.7c0.3,0.9,0.6,1.7,1,2.5
				c0.4,0.8,0.8,1.6,1.1,2.2c0.1,0.2,0.2,0.3,0.2,0.5c0.1,0.3,0,0.6-0.2,0.9C468.6,499,468.4,499.2,468,499.3z M468.9,511.8
				c-0.1,0.1-0.3,0.2-0.5,0.2c-0.3,0.1-0.6,0-0.9-0.2c-0.3-0.2-0.5-0.5-0.6-0.9c-0.1-0.6,0.1-1.1,0.6-1.4c1.7-1.2,3.1-2.5,4.2-4.1
				c1-1.5,1.8-3.2,2.3-4.9c0.5-1.7,0.8-3.4,1-5c0.1-1.6,0.2-3.1,0.1-4.5c0-0.3,0.1-0.6,0.3-0.9c0.2-0.2,0.4-0.4,0.7-0.4
				c0.4-0.1,0.8,0,1.2,0.3c0.3,0.3,0.5,0.7,0.5,1.1c0.3,4.7-0.4,8.9-1.9,12.4C474.3,507.1,472,509.8,468.9,511.8z"/>
			<path class="st2" d="M499.1,494.1c-0.9-0.2-1.8-0.3-2.9-0.3c-1.1,0-2,0-2.9,0.1c-0.4,0-0.7,0-1-0.2c-0.3-0.2-0.5-0.5-0.5-0.8
				c-0.1-0.4,0-0.8,0.2-1.1c0.2-0.3,0.5-0.5,0.9-0.6c1-0.1,2.1-0.2,3.3-0.1c1.2,0,2.4,0.2,3.4,0.4c0.6,0.1,0.9,0.5,1,1.1
				c0.1,0.4,0,0.8-0.2,1.1c-0.2,0.3-0.5,0.5-0.8,0.5C499.5,494.1,499.3,494.1,499.1,494.1z M499.8,486.1c-1-0.5-2.1-0.7-3.1-0.9
				c-1.1-0.1-2.1-0.2-3-0.2c-0.3,0-0.6-0.1-0.9-0.3c-0.3-0.2-0.4-0.5-0.5-0.8c-0.1-0.4,0-0.8,0.3-1.1c0.3-0.3,0.6-0.5,1-0.5
				c1.1-0.1,2.3,0,3.5,0.2c1.2,0.2,2.4,0.5,3.5,1c0.5,0.2,0.8,0.6,0.9,1.1c0,0.2,0,0.5,0,0.8c-0.1,0.4-0.4,0.7-0.9,0.8
				C500.3,486.1,500.1,486.1,499.8,486.1z M498.3,506c-0.1,0-0.2,0.1-0.4,0.1c-0.7,0.1-1.3-0.2-1.6-0.8c0-0.1-0.1-0.2-0.1-0.4
				c-0.1-0.7,0.1-1.2,0.8-1.5c1.4-0.7,2.9-1.6,4.5-2.7c1.6-1.1,3.1-2.4,4.6-3.8c1.5-1.5,2.9-3.1,4.2-4.8c1.3-1.8,2.3-3.6,3.2-5.6
				c0.2-0.4,0.5-0.7,1-0.8c0.3-0.1,0.6,0,0.8,0.1c0.5,0.3,0.8,0.7,0.9,1.2c0.1,0.3,0,0.6-0.1,0.9c-0.7,1.6-1.6,3.3-2.8,5.1
				c-1.2,1.8-2.6,3.5-4.2,5.2c-1.6,1.7-3.3,3.2-5.1,4.6C502.1,504,500.3,505.1,498.3,506z"/>
			<path class="st2" d="M552.3,491.3c0.1,0.3,0,0.6-0.2,0.9c-0.2,0.3-0.4,0.5-0.8,0.5c-0.8,0.2-1.8,0.4-3,0.6
				c-1.2,0.3-2.6,0.5-4,0.8c-1.5,0.3-3,0.6-4.5,0.9c-1.5,0.3-3,0.5-4.3,0.8c-0.7,0.1-1.4,0.2-2,0.4c-0.6,0.1-1.2,0.2-1.7,0.3
				c-0.3,0-0.6,0-0.9-0.3c-0.3-0.2-0.5-0.5-0.5-0.8c-0.1-0.4,0-0.7,0.2-1c0.2-0.3,0.5-0.5,0.9-0.6l5.4-1c1.1-0.2,2.2-0.4,3.4-0.6
				c1.2-0.2,2.3-0.4,3.4-0.6c0.2,0,0.3-0.1,0.3-0.3c0-0.7-0.1-1.5-0.1-2.3c-0.1-0.8-0.1-1.7-0.2-2.4s-0.2-1.4-0.2-1.9
				c-0.1-0.5-0.2-0.9-0.4-1.1c-0.2-0.2-0.5-0.2-1-0.2c-0.1,0-0.2,0-0.2,0c-0.1,0-0.2,0-0.3,0.1c-0.7,0.2-1.6,0.5-2.7,0.7
				c-1.1,0.3-2.2,0.5-3.4,0.7c-0.5,0.1-0.9,0.2-1.4,0.2c-0.5,0.1-0.9,0.1-1.3,0.2c-0.4,0-0.7,0-1-0.3c-0.3-0.2-0.5-0.5-0.5-0.9
				c0-0.4,0-0.7,0.3-1c0.2-0.3,0.5-0.4,0.9-0.5c0.4,0,0.7-0.1,1.2-0.2s0.8-0.1,1.3-0.2c1-0.2,2.1-0.4,3.2-0.6c1.1-0.2,2-0.5,2.7-0.7
				c0.2-0.1,0.3-0.1,0.5-0.1s0.3-0.1,0.4-0.1c1.1-0.2,2.1,0,2.9,0.5c0.8,0.5,1.3,1.7,1.6,3.5c0.1,1,0.2,2,0.3,3
				c0.1,1.1,0.2,2,0.2,2.9l0,0.1c0,0.2,0.2,0.3,0.4,0.2l3.8-0.8c0.4-0.1,0.7,0,1.1,0.2C552.1,490.6,552.3,490.9,552.3,491.3z"/>
		</g>
	</g>
</g>
</svg>
