<svg xmlns="http://www.w3.org/2000/svg" width="23" height="25" viewBox="0 0 23 25">
  <g id="グループ_35" data-name="グループ 35" transform="translate(-695 -8618)">
    <path id="パス_51" data-name="パス 51" d="M11.5,0A11.5,11.5,0,1,1,0,11.5,11.5,11.5,0,0,1,11.5,0Z" transform="translate(695 8620)" fill="#8e8d00"/>
    <path id="パス_51_-_アウトライン" data-name="パス 51 - アウトライン" d="M11.5,1A10.5,10.5,0,1,0,22,11.5,10.512,10.512,0,0,0,11.5,1m0-1A11.5,11.5,0,1,1,0,11.5,11.5,11.5,0,0,1,11.5,0Z" transform="translate(695 8620)" fill="#fff"/>
    <text id="B" transform="translate(701 8637)" fill="#fff" font-size="16" font-family="KiwiMaru-Medium, Kiwi Maru" font-weight="500"><tspan x="0" y="0">B</tspan></text>
  </g>
</svg>
